<svg width="85" height="85" viewBox="0 0 85 85" fill="none" xmlns="http://www.w3.org/2000/svg">
<circle cx="42.5" cy="42.5" r="41.5" stroke="white" stroke-width="2"/>
<path d="M38.2655 32.9231L33.2417 37.7078C32.9251 38.0093 32.9129 38.5103 33.2144 38.8268L46.2046 52.4661C46.5132 52.7901 47.0288 52.7941 47.3424 52.4748L51.2708 48.4754C51.4931 48.2491 51.8291 48.1774 52.1244 48.2932L65.0758 53.3717C65.3973 53.4978 65.5999 53.8177 65.5765 54.1622L64.8498 64.861C64.9317 66.1254 64.0465 68.5326 59.8499 68.0461C29.0417 65.7017 19.9005 29.0373 19.5659 27.293C19.0676 24.6955 20.0793 21.1733 20.7192 18.4445C20.9025 17.663 21.6192 17.11 22.42 17.1644L34.7119 17.9993C35.0611 18.023 35.3533 18.2733 35.4303 18.6147L38.4917 32.1757C38.553 32.4472 38.4671 32.7311 38.2655 32.9231Z" stroke="white" stroke-width="2"/>
</svg>
