<svg width="68" height="86" viewBox="0 0 68 86" fill="none" xmlns="http://www.w3.org/2000/svg">
<path d="M11.048 30.5313C14.2356 28.1831 17.1913 26.9502 19.2243 26.2758C21.2835 25.5932 24.0677 25.2976 29.6394 24.7081C32.1689 24.4403 33.8998 24.3293 36.0227 24.9318C37.7193 25.4136 39.0045 26.1614 39.8308 26.7232C42.1725 26.8898 45.053 27.3111 48.2308 28.2908C50.1871 28.8934 51.9082 29.6005 53.3828 30.3059C57.4522 30.381 61.5215 30.4545 65.5909 30.5296C65.7183 32.9399 65.7966 35.4433 65.8146 38.0331C65.8424 42.127 65.715 46.0167 65.4782 49.6811C62.3805 49.9424 59.2811 50.2037 56.1833 50.465C57.106 52.2008 56.9165 54.2616 55.7359 55.617C54.4459 57.0981 52.5467 57.0801 52.2642 57.0736C52.1679 57.5455 51.8249 58.9041 50.5839 59.9852C48.866 61.481 46.784 61.2589 46.4394 61.2164C46.4149 61.3242 45.8074 63.7247 43.4151 64.4644C41.8883 64.9363 40.2162 64.551 39.0469 63.4569C38.9473 63.6985 38.2288 65.374 36.5828 65.8083C34.8127 66.2754 32.6539 65.1258 31.7672 62.8968C31.6888 63.0568 30.5833 65.209 28.2955 65.472C26.2902 65.7022 24.2441 64.3844 23.4798 62.224C22.1065 62.7155 20.5846 62.4134 19.5607 61.4402C18.2135 60.1599 18.416 58.38 18.4405 58.1922C18.3392 58.202 16.3781 58.3473 15.1925 56.7356C14.0331 55.1597 14.701 53.3749 14.7451 53.2639C14.1654 53.0189 13.264 52.5552 12.3936 51.6962C11.6473 50.9614 11.1983 50.2086 10.937 49.6811C7.80169 49.7187 4.66476 49.7562 1.52945 49.7938C1.75317 43.2603 1.97688 36.7284 2.2006 30.1949C5.14975 30.3076 8.09889 30.4186 11.048 30.5313Z" fill="white"/>
<path d="M65.6446 32.0581C61.701 31.9862 57.7574 31.9144 53.8154 31.8425C53.6798 31.8392 53.5427 31.8392 53.4071 31.8343C53.2536 31.8294 53.0854 31.8147 52.9352 31.7805C52.785 31.7462 52.6233 31.6514 52.478 31.5812C52.2967 31.4931 52.1138 31.4081 51.9309 31.3232C51.5243 31.1354 51.1161 30.9558 50.7029 30.7811L51.054 30.9297C48.5278 29.8682 45.8922 29.0681 43.1994 28.5553C42.4907 28.4198 41.7771 28.3055 41.0619 28.2091L41.4522 28.2614C40.7092 28.1618 39.9629 28.0834 39.215 28.0263C38.8214 27.9952 38.4622 27.8826 38.1764 27.5951C37.9217 27.3404 37.729 26.9224 37.7453 26.5566C37.7616 26.1908 37.8874 25.7826 38.1764 25.518C38.4655 25.2535 38.8296 25.0575 39.215 25.0869C43.2566 25.3972 47.2508 26.2741 51.023 27.7633C52.0534 28.17 53.0707 28.6125 54.0685 29.0942L53.3271 28.8934C56.5228 28.9521 59.7186 29.0093 62.9127 29.0681C63.8239 29.0844 64.7351 29.1007 65.6463 29.1171C66.4137 29.1318 67.1519 29.7833 67.1159 30.5868C67.08 31.3902 66.4693 32.0711 65.6463 32.0564L65.6446 32.0581Z" fill="#343434"/>
<path d="M65.533 51.2106C62.8827 51.2482 60.2323 51.2858 57.582 51.3233L58.3234 51.1225C57.8384 51.3462 57.3534 51.5699 56.8668 51.7936C56.4994 51.9634 56.1385 52.0533 55.7335 51.9422C55.3922 51.8491 55.0232 51.5846 54.855 51.2662C54.6753 50.9249 54.5839 50.5117 54.7064 50.1329C54.8174 49.7883 55.0395 49.4127 55.3824 49.2544C55.7466 49.0862 56.1107 48.918 56.4749 48.7498C56.5712 48.7057 56.6692 48.6599 56.7655 48.6159C57.0791 48.4738 57.3126 48.3921 57.6621 48.3807C57.8515 48.3742 58.0409 48.3758 58.2303 48.3725C59.0419 48.3611 59.8535 48.3497 60.6651 48.3383C62.2883 48.3154 63.9114 48.2925 65.533 48.2697C66.3021 48.2582 67.0386 48.9539 67.0026 49.7393C66.9667 50.5248 66.3576 51.1976 65.533 51.209V51.2106Z" fill="#343434"/>
<path d="M2.14443 28.7839C5.09357 28.8966 8.04272 29.0076 10.9919 29.1203L10.2505 29.3211C12.1186 28.343 13.9786 27.3485 15.8516 26.3818C16.9604 25.8103 18.092 25.2828 19.2596 24.8452C19.823 24.6345 20.3961 24.4451 20.9742 24.2769C21.5066 24.1218 22.0895 24.0744 22.6382 23.9928C25.2951 23.5927 27.9715 23.3347 30.6577 23.2563C31.9543 23.2187 33.2525 23.2187 34.5491 23.2596C34.9361 23.271 35.3313 23.2661 35.7052 23.369C35.9926 23.4473 36.2768 23.5404 36.556 23.6449C37.2239 23.8964 37.8771 24.192 38.4895 24.5594C40.6548 25.8625 42.4396 27.7698 44.1069 29.6412C45.4818 31.1844 46.9074 32.7389 48.0701 34.4536C48.6433 35.2978 49.0776 36.2384 49.0858 37.277C49.0923 38.198 48.8539 39.1631 48.3934 39.9616C47.7288 41.1145 46.5302 41.9228 45.2206 42.1449C44.1069 42.3327 42.9246 42.2935 41.855 41.9015C41.0287 41.5994 40.3233 41.1536 39.693 40.538C39.1361 39.9942 38.656 39.3753 38.1416 38.7924C37.3594 37.9024 36.5234 37.0647 35.6334 36.2841C35.2088 35.9118 34.7728 35.5526 34.3254 35.208L34.6226 35.4382C34.3776 35.2488 34.1294 35.0643 33.8796 34.883C34.2568 34.932 34.634 34.981 35.0129 35.0316C32.2433 35.4987 29.4608 35.8889 26.67 36.2041C27.0162 36.0604 27.3624 35.9167 27.7086 35.773C25.6314 37.4419 23.5053 39.0504 21.322 40.5788C21.144 40.7046 20.9677 40.8303 20.7946 40.9626L21.0918 40.7323C18.9722 42.3718 16.944 44.1371 14.8881 45.855C14.1941 46.4347 13.443 46.9801 12.8861 47.7002L13.1164 47.403C12.8926 47.7002 12.7032 48.0187 12.5563 48.3616L12.7049 48.0105C12.5726 48.3338 12.4779 48.6702 12.4272 49.0164L12.4795 48.6261C12.4468 48.889 12.4485 49.1503 12.4828 49.4132L12.4305 49.0229C12.473 49.3038 12.5497 49.5732 12.6575 49.8345L12.5089 49.4834C12.633 49.7725 12.7898 50.0419 12.9808 50.2934L12.7506 49.9962C12.9367 50.2313 13.1441 50.442 13.3809 50.6265L13.0837 50.3963C13.2927 50.553 13.5148 50.6837 13.7532 50.7882L13.4021 50.6396C13.652 50.7424 13.9067 50.811 14.1729 50.8502L13.7826 50.798C14.0586 50.8306 14.3313 50.829 14.6089 50.7931L14.2186 50.8453C14.5305 50.7996 14.8326 50.7147 15.1233 50.5922L14.7722 50.7408C14.7951 50.731 14.8163 50.7212 14.8391 50.7114C15.2115 50.5449 15.5626 50.4501 15.9724 50.5628C16.3137 50.6559 16.6828 50.9204 16.851 51.2389C17.0306 51.5802 17.122 51.9933 16.9996 52.3722C16.8885 52.7134 16.6664 53.0988 16.3235 53.2507C15.7079 53.525 15.1478 53.6867 14.4717 53.7504C13.6879 53.8239 12.9188 53.6263 12.2117 53.3013C11.0441 52.7641 10.2227 51.6814 9.77857 50.504C9.30174 49.245 9.53526 47.8717 10.1052 46.6894C10.5134 45.8452 11.1699 45.1512 11.8818 44.5568C13.4968 43.2063 15.1119 41.8558 16.7334 40.5119C17.625 39.7738 18.5133 39.0292 19.4376 38.3319C19.9977 37.9089 20.5856 37.5203 21.1538 37.1088C22.1483 36.3903 23.1314 35.6554 24.103 34.9059L23.8058 35.1361C24.1618 34.8618 24.5161 34.5842 24.8689 34.3066C25.0534 34.1613 25.2379 34.0143 25.4224 33.8673C25.5874 33.7351 25.7507 33.5734 25.9303 33.4689C26.2226 33.2974 26.5573 33.2811 26.8856 33.2435C27.8278 33.1358 28.7684 33.0182 29.709 32.8924L29.3187 32.9447C30.514 32.7847 31.7061 32.6099 32.8982 32.4189C33.1725 32.3748 33.4452 32.3307 33.7196 32.285C34.3025 32.1886 34.9165 32.0204 35.4423 32.4009C35.8392 32.6883 36.2278 32.9872 36.6132 33.2909C38.1514 34.5042 39.5166 35.8841 40.7887 37.3701C41.2394 37.8975 41.6885 38.4413 42.2388 38.8691L41.9416 38.6389C42.2028 38.8381 42.4853 39.0047 42.7874 39.1369L42.4363 38.9883C42.8446 39.1598 43.2741 39.2676 43.7117 39.328L43.3214 39.2757C43.7819 39.3345 44.2457 39.3394 44.7078 39.279L44.3175 39.3312C44.6572 39.2806 44.987 39.1957 45.3038 39.0651L44.9528 39.2137C45.1895 39.1108 45.4116 38.9851 45.619 38.8299L45.3218 39.0602C45.5243 38.9034 45.7023 38.7254 45.8607 38.5246L45.6304 38.8218C45.7921 38.6062 45.9244 38.376 46.0338 38.1294L45.8852 38.4805C46.0273 38.1408 46.1187 37.7881 46.1677 37.4223L46.1154 37.8126C46.1514 37.5252 46.1644 37.2329 46.1285 36.9438L46.1808 37.3341C46.1481 37.0908 46.0779 36.8573 45.9832 36.6319L46.1318 36.983C45.8427 36.3054 45.3871 35.7012 44.9413 35.1215L45.1716 35.4187C44.4318 34.4601 43.6382 33.5456 42.8413 32.6344C41.8354 31.4865 40.8213 30.3417 39.7224 29.2803C39.1296 28.7088 38.5123 28.1617 37.8608 27.6588L38.158 27.889C37.4199 27.3224 36.6328 26.8358 35.7755 26.47L36.1266 26.6186C35.6954 26.4389 35.2529 26.2887 34.8006 26.1711L35.1909 26.2234C32.2695 26.1042 29.3399 26.1809 26.4283 26.4618C25.6298 26.5386 24.8329 26.63 24.0377 26.7378L24.4279 26.6855C23.9789 26.7459 23.5298 26.8113 23.0824 26.8815C22.635 26.9517 22.2055 26.9925 21.7874 27.1052C20.904 27.3452 20.0369 27.6669 19.1943 28.0213L19.5454 27.8727C17.7409 28.6386 16.0247 29.6118 14.2905 30.523C13.8349 30.7631 13.3776 31.0015 12.922 31.2415C12.6575 31.3803 12.393 31.5191 12.1284 31.6579C11.9994 31.7265 11.8704 31.7984 11.7398 31.862C11.3691 32.0433 11.0294 32.0645 10.6375 32.0482C9.31317 31.9976 7.98883 31.947 6.66449 31.898C5.16053 31.8408 3.65493 31.7837 2.15097 31.7265C1.38347 31.6971 0.645367 31.0717 0.681293 30.2568C0.715584 29.4861 1.32795 28.7561 2.15097 28.7872L2.14443 28.7839Z" fill="#343434"/>
<path d="M23.3438 47.0847C22.5256 47.7967 21.7124 48.5152 20.9025 49.237C19.7055 50.3033 18.5118 51.3762 17.3557 52.4882C16.9082 52.9193 16.4396 53.3488 16.0574 53.8403L16.2877 53.5431C16.1195 53.7652 15.9807 54.0053 15.8696 54.2616L16.0182 53.9106C15.8843 54.229 15.7929 54.5605 15.7455 54.9018L15.7978 54.5115C15.7651 54.7809 15.7635 55.0487 15.7962 55.3182L15.7439 54.9279C15.7815 55.1908 15.8501 55.4406 15.9529 55.6856L15.8043 55.3345C15.9039 55.5582 16.028 55.7656 16.1766 55.9616L15.9464 55.6644C16.1195 55.8832 16.3171 56.0775 16.5375 56.249L16.2403 56.0187C16.4722 56.1934 16.7204 56.3371 16.9882 56.4515L16.6371 56.3029C16.8739 56.3992 17.1205 56.4743 17.3752 56.5086L16.985 56.4564C17.1417 56.4776 17.3001 56.4711 17.4569 56.4515L17.0666 56.5037C17.4063 56.4564 17.7312 56.3469 18.0464 56.2147L17.6953 56.3633C18.6343 55.9616 19.4883 55.3672 20.2934 54.745L19.9962 54.9753C21.345 53.9318 22.555 52.7218 23.6197 51.3925C23.8402 51.1182 24.3235 50.9614 24.6583 50.9614C25.0192 50.9614 25.4487 51.1214 25.6969 51.3925C25.9451 51.6636 26.1443 52.0408 26.128 52.4311C26.11 52.8442 25.9549 53.1496 25.6969 53.4697C24.8591 54.5164 23.9333 55.4896 22.9175 56.3649C21.9835 57.17 20.9841 57.9424 19.9047 58.5433C19.1013 58.9891 18.2554 59.3353 17.3328 59.4055C17.0748 59.4251 16.8151 59.381 16.5604 59.3402C15.9676 59.2438 15.3667 58.9875 14.8752 58.6445C14.2383 58.2004 13.6619 57.637 13.3173 56.9315C13.092 56.4678 12.9499 56.0236 12.8829 55.5158C12.816 55.0079 12.8421 54.5654 12.9205 54.0608C13.0805 53.0206 13.6292 52.1094 14.3396 51.3517C15.45 50.1678 16.6812 49.0884 17.888 48.0025C18.956 47.0406 20.0321 46.0886 21.1147 45.1431C21.1654 45.099 21.2176 45.0533 21.2682 45.0092C21.5654 44.7512 21.9035 44.5781 22.3068 44.5781C22.6677 44.5781 23.0972 44.7382 23.3454 45.0092C23.5936 45.2803 23.7928 45.6575 23.7765 46.0478C23.7602 46.4381 23.6393 46.8316 23.3454 47.0864L23.3438 47.0847Z" fill="#343434"/>
<path d="M20.3224 58.0965C20.2767 58.1782 20.2391 58.2631 20.2032 58.348L20.3518 57.9969C20.2162 58.3219 20.1264 58.6599 20.0758 59.0093L20.1281 58.6191C20.0889 58.9293 20.0856 59.2363 20.1248 59.5466L20.0725 59.1563C20.1134 59.4404 20.1868 59.7115 20.2962 59.9761L20.1476 59.625C20.2587 59.8797 20.3975 60.1149 20.5641 60.337L20.3338 60.0397C20.5085 60.2651 20.7078 60.4643 20.9298 60.6423L20.6326 60.4121C20.8678 60.5933 21.1176 60.7419 21.3887 60.8628L21.0376 60.7142C21.3185 60.8334 21.6108 60.915 21.9129 60.9558L21.5226 60.9036C21.7545 60.9314 21.988 60.9363 22.2215 60.9069L21.8312 60.9591C22.068 60.9248 22.295 60.8546 22.5171 60.7632L22.166 60.9118C22.7767 60.6505 23.3336 60.2651 23.8594 59.8618L23.5622 60.092C24.4407 59.4127 25.2213 58.6191 25.9055 57.7438L25.6753 58.041C25.8924 57.7601 26.0998 57.4711 26.2974 57.1755C26.5113 56.8555 26.7971 56.604 27.176 56.4995C27.527 56.4031 27.9957 56.4456 28.3092 56.6481C28.9445 57.0579 29.2939 57.9757 28.8367 58.6583C28.1116 59.7409 27.2739 60.7632 26.2974 61.6286C25.5218 62.3161 24.6497 63.0118 23.6945 63.4314C23.1507 63.6715 22.6739 63.8201 22.0778 63.8609C21.5128 63.9001 20.8956 63.8005 20.3665 63.5931C19.6643 63.3188 19.0242 62.9481 18.4967 62.3978C17.935 61.8099 17.4973 61.0669 17.303 60.2749C17.0074 59.0698 17.1773 57.7046 17.7864 56.6154C18.162 55.9443 19.1385 55.6634 19.7966 56.088C20.4546 56.5125 20.7257 57.3796 20.324 58.0982L20.3224 58.0965Z" fill="#343434"/>
<path d="M25.5606 61.3869C25.5557 61.6237 25.577 61.8605 25.608 62.0957L25.5557 61.7054C25.6145 62.13 25.719 62.5464 25.8856 62.9415L25.737 62.5904C25.8513 62.8534 25.9917 63.1016 26.1665 63.3302L25.9362 63.033C26.0832 63.2191 26.2481 63.3841 26.4343 63.531L26.1371 63.3008C26.3036 63.4265 26.4816 63.5294 26.6711 63.616L26.32 63.4674C26.5551 63.567 26.7968 63.6323 27.0499 63.6698L26.6596 63.6176C27.1005 63.6747 27.548 63.6453 27.9889 63.5898L27.5986 63.6421C28.077 63.5751 28.5392 63.4461 28.9833 63.2583L28.6323 63.4069C29.1123 63.1979 29.5598 62.9285 29.9762 62.61L29.679 62.8403C30.0366 62.5627 30.3681 62.2524 30.6702 61.916C31.1846 61.3412 32.233 61.3543 32.749 61.916C33.3124 62.53 33.2977 63.3808 32.749 63.9948C32.2591 64.5435 31.6843 65.0219 31.0719 65.4286C30.1036 66.0703 29.0062 66.4247 27.8566 66.5471C27.2965 66.6059 26.7641 66.5912 26.2057 66.4965C25.4937 66.3757 24.8699 66.0279 24.3163 65.5772C23.5864 64.9828 23.1095 64.0699 22.8613 63.1751C22.7029 62.6035 22.6099 61.983 22.6229 61.3869C22.6393 60.6195 23.2875 59.8814 24.0926 59.9173C24.8977 59.9532 25.5802 60.5639 25.5623 61.3869H25.5606Z" fill="#343434"/>
<path d="M52.3173 55.6634C52.5067 55.6634 52.6945 55.6536 52.8823 55.6308L52.492 55.683C52.8186 55.6373 53.1321 55.5524 53.4359 55.4266L53.0848 55.5752C53.3951 55.4413 53.6841 55.2699 53.9535 55.0657L53.6563 55.296C53.9715 55.0494 54.2491 54.7669 54.494 54.4517L54.2638 54.7489C54.5022 54.4338 54.7014 54.0941 54.8598 53.7316L54.7112 54.0827C54.8598 53.73 54.9643 53.3658 55.0166 52.987L54.9643 53.3773C54.9888 53.178 55.0019 52.9804 54.9758 52.7812L55.028 53.1715C54.9954 52.9494 54.9268 52.7355 54.8402 52.5281L54.9888 52.8792C54.6214 52.0284 54.0205 51.2773 53.4587 50.5489L53.689 50.8461C53.0391 50.0052 52.3826 49.1658 51.6935 48.3542C51.2216 47.7974 50.7284 47.2389 50.1503 46.7882L50.4475 47.0185C50.2255 46.8486 49.9903 46.6984 49.7323 46.5874L50.0834 46.736C49.8825 46.6543 49.6751 46.5988 49.4612 46.5678L49.8515 46.62C49.5527 46.5792 49.2571 46.5776 48.9566 46.6135L49.3469 46.5612C49.0122 46.607 48.6905 46.6951 48.3786 46.8258L48.7297 46.6772C48.488 46.7817 48.2659 46.9123 48.0552 47.0724L48.3524 46.8421C48.1336 47.0136 47.9393 47.2095 47.7662 47.4283L47.9965 47.1311C47.7989 47.3891 47.6388 47.67 47.5098 47.9689L47.6584 47.6178C47.5131 47.9656 47.4086 48.3297 47.358 48.7037L47.4102 48.3134C47.4069 48.3428 47.4037 48.3706 47.4004 48.4C47.3596 48.8 47.2632 49.1446 46.9693 49.4385C46.7146 49.6933 46.2965 49.886 45.9307 49.8696C45.565 49.8533 45.1567 49.7276 44.8922 49.4385C44.644 49.1691 44.4219 48.7804 44.4611 48.4C44.6325 46.7278 45.4768 45.0442 47.0248 44.244C48.5729 43.4439 50.5112 43.408 51.9286 44.4825C52.6569 45.0344 53.2693 45.6843 53.8572 46.3816C54.659 47.3353 55.4265 48.3199 56.1809 49.3095C57.0627 50.4673 58.0866 51.8341 57.9021 53.3773C57.7388 54.7408 57.1493 55.9982 56.1793 56.9796C55.1587 58.0116 53.7706 58.6126 52.3157 58.6044C51.5465 58.5995 50.8101 57.9316 50.846 57.1347C50.8819 56.3378 51.4926 55.6601 52.3157 55.665L52.3173 55.6634Z" fill="#343434"/>
<path d="M47.3464 59.4495C47.4003 59.4756 47.4542 59.5001 47.5097 59.5246L47.1586 59.376C47.4003 59.474 47.6485 59.5393 47.9082 59.5769L47.5179 59.5246C47.8429 59.5655 48.1662 59.5589 48.4895 59.5165L48.0992 59.5687C48.4683 59.5148 48.8243 59.4152 49.1705 59.2748L48.8194 59.4234C49.1541 59.2813 49.4693 59.105 49.76 58.8861L49.4628 59.1164C49.7469 58.8976 50.0033 58.6494 50.2254 58.3668L49.9951 58.664C50.1568 58.4534 50.2939 58.228 50.4017 57.9847L50.2531 58.3358C50.3462 58.1154 50.4082 57.89 50.4409 57.6516L50.3887 58.0419C50.4082 57.8541 50.4082 57.6712 50.3887 57.4834L50.4409 57.8737C50.3903 57.503 50.2645 57.147 50.1208 56.8041L50.2694 57.1552C49.7649 55.9762 48.9647 54.9507 48.207 53.9284C47.7694 53.3389 47.3334 52.7462 46.9235 52.1354C46.5838 51.6308 46.2572 51.1148 45.8849 50.6331L46.1152 50.9303C45.7722 50.491 45.3869 50.0942 44.9476 49.7513L45.2448 49.9815C44.9313 49.7415 44.6014 49.521 44.2373 49.3675L44.5883 49.5161C44.3842 49.4361 44.1752 49.3806 43.958 49.3463L44.3483 49.3986C44.1001 49.3675 43.8535 49.3675 43.6053 49.3969L43.9956 49.3447C43.7 49.3855 43.4175 49.4672 43.1415 49.5815L43.4926 49.4329C43.184 49.5668 42.8949 49.7366 42.6288 49.9407L42.926 49.7105C42.6925 49.8917 42.4851 50.104 42.3038 50.3392L42.5341 50.042C42.3757 50.251 42.2434 50.4731 42.1389 50.7131L42.2875 50.362C42.2009 50.5727 42.1389 50.7866 42.1046 51.0103L42.1568 50.62C42.1258 50.8535 42.1258 51.0822 42.1568 51.3157L42.1046 50.9254C42.1421 51.1671 42.2124 51.3973 42.3038 51.6227L42.1552 51.2716C42.4818 52.0326 42.9668 52.738 43.4028 53.4385C43.7441 53.9856 44.0968 54.5261 44.4577 55.0617C45.0848 55.9909 45.7265 56.9086 46.3013 57.8721C46.6214 58.4093 46.8957 58.9972 47.2778 59.4936L47.0476 59.1964C47.1358 59.3074 47.2321 59.4071 47.3432 59.4936L47.046 59.2634C47.1407 59.3352 47.2419 59.3956 47.3481 59.4495C48.0339 59.8006 48.2887 60.8196 47.8755 61.4597C47.4248 62.1602 46.5985 62.3627 45.8653 61.9871C44.8529 61.4695 44.3859 60.4048 43.8355 59.4756C43.2852 58.5465 42.6712 57.65 42.0621 56.7551C41.3061 55.6431 40.5729 54.5081 39.9099 53.3373C39.6764 52.9258 39.4657 52.4865 39.3383 52.0326C39.1701 51.4316 39.1701 50.8389 39.2698 50.2298C39.402 49.4198 39.838 48.6931 40.3736 48.084C41.0415 47.3231 42.0523 46.7303 43.0419 46.5409C44.087 46.34 45.1142 46.4707 46.0531 46.9916C46.7716 47.39 47.4395 47.9534 47.9719 48.5788C48.5042 49.2042 48.9288 49.8542 49.3713 50.5172C49.8367 51.2144 50.3331 51.8905 50.8345 52.5649C51.7603 53.8109 52.6944 55.0764 53.1614 56.5771C53.6628 58.1856 53.0439 59.8692 51.8175 60.9682C51.21 61.5136 50.5454 61.8973 49.7812 62.1782C48.919 62.4966 48.0012 62.544 47.0998 62.4068C46.6655 62.3415 46.2621 62.1798 45.867 61.9871C45.5502 61.832 45.2824 61.4385 45.1909 61.1086C45.0946 60.7575 45.137 60.2889 45.3395 59.9753C45.542 59.6618 45.8425 59.3858 46.218 59.2993C46.6198 59.2078 46.979 59.2666 47.3513 59.4479L47.3464 59.4495Z" fill="#343434"/>
<path d="M39.6301 52.5716C39.6073 52.552 39.5828 52.5324 39.5583 52.5128L39.8555 52.743C39.6775 52.6059 39.4864 52.4948 39.2807 52.405L39.6318 52.5536C39.4342 52.4752 39.235 52.423 39.0243 52.3952L39.4146 52.4475C39.1974 52.4246 38.9851 52.4279 38.7679 52.4556L39.1582 52.4034C38.8594 52.4475 38.5752 52.5324 38.296 52.6483L38.6471 52.4997C38.2078 52.6891 37.7979 52.9472 37.4191 53.2378L37.7163 53.0076C37.5105 53.1692 37.3227 53.3456 37.1594 53.5497L37.3897 53.2525C37.2656 53.4142 37.1627 53.5856 37.0794 53.7702L37.228 53.4191C37.1464 53.615 37.0925 53.8126 37.0615 54.0233L37.1137 53.633C37.068 53.9988 37.0892 54.3646 37.1366 54.7287L37.0843 54.3385C37.2378 55.4489 37.6232 56.525 38.0576 57.5554L37.909 57.2043C38.523 58.6511 39.3117 60.031 40.1902 61.3308C40.5397 61.8485 40.8892 62.3694 41.2713 62.8658L41.041 62.5686C41.2402 62.8234 41.4509 63.0732 41.704 63.2741L41.4068 63.0438C41.5358 63.1434 41.6697 63.2202 41.8183 63.2871L41.4672 63.1385C41.6713 63.2218 41.8787 63.279 42.0959 63.3116L41.7056 63.2594C42.0371 63.3035 42.3735 63.2937 42.7034 63.2545L42.3131 63.3067C42.6348 63.2626 42.9451 63.1777 43.2439 63.0536L42.8928 63.2022C43.2145 63.0634 43.515 62.8854 43.7926 62.6731L43.4954 62.9034C43.8073 62.6601 44.0914 62.3825 44.3331 62.0689L44.1028 62.3661C44.2923 62.1196 44.4409 61.8452 44.5633 61.5594L44.4147 61.9105C44.5568 61.566 44.6515 61.2084 44.7021 60.8393L44.6499 61.2296C44.6809 60.9846 44.6923 60.7381 44.6842 60.4915C44.6564 59.7224 45.3798 58.9875 46.1538 59.0218C46.9736 59.0577 47.5941 59.6668 47.6235 60.4915C47.6431 61.0173 47.5778 61.5594 47.4537 62.0689C47.3133 62.6519 47.065 63.2479 46.7205 63.7411C46.2355 64.4351 45.6264 65.023 44.903 65.4688C43.7746 66.1612 42.2984 66.4322 41.0084 66.086C40.4042 65.9227 39.8783 65.6157 39.4309 65.183C39.0374 64.8042 38.7173 64.3437 38.4005 63.9011C37.3195 62.3841 36.3054 60.7936 35.5428 59.0904C35.1509 58.2135 34.7867 57.317 34.5238 56.3927C34.2136 55.3019 33.9899 54.087 34.2789 52.9684C34.5875 51.7747 35.4971 50.9353 36.5079 50.3066C36.9945 50.0045 37.5432 49.7514 38.1 49.6208C38.4805 49.5326 38.8888 49.4722 39.279 49.4983C39.8326 49.5326 40.2899 49.66 40.7928 49.8837C41.1308 50.0339 41.4199 50.2609 41.704 50.4961C41.9881 50.7312 42.1351 51.1933 42.1351 51.5346C42.1351 51.8955 41.9751 52.325 41.704 52.5732C41.4329 52.8214 41.0557 53.0206 40.6654 53.0043C40.2752 52.988 39.942 52.8345 39.6269 52.5732L39.6301 52.5716Z" fill="#343434"/>
<path d="M35.2384 56.0864C35.0849 56.0521 34.9298 56.0244 34.7747 56.0031L35.1649 56.0554C34.7289 55.9999 34.2929 55.9999 33.8569 56.0554L34.2472 56.0031C33.8177 56.0652 33.4079 56.1828 33.0078 56.351L33.3589 56.2024C32.9817 56.3624 32.624 56.5583 32.2991 56.8082L32.5963 56.5779C32.3742 56.7543 32.175 56.9503 32.0002 57.174L32.2305 56.8768C32.0852 57.0727 31.9627 57.2785 31.8663 57.5022L32.0149 57.1511C31.917 57.3928 31.8516 57.6394 31.8157 57.8974L31.868 57.5071C31.8222 57.8794 31.8337 58.2517 31.8843 58.6224L31.832 58.2321C32.0133 59.4732 32.5277 60.6734 33.0127 61.8247L32.8641 61.4736C33.1711 62.197 33.5254 62.9057 34.0072 63.5311L33.7769 63.2339C34.0104 63.5311 34.2717 63.8038 34.5722 64.0357L34.275 63.8055C34.4938 63.9704 34.7257 64.1076 34.9771 64.2153L34.6261 64.0667C34.8612 64.1631 35.1029 64.2268 35.3527 64.2643L34.9624 64.2121C35.2662 64.2496 35.5666 64.2415 35.8704 64.2023L35.4801 64.2545C35.9406 64.1908 36.3831 64.0798 36.8126 63.9002L36.4615 64.0488C36.8812 63.8675 37.2731 63.634 37.6356 63.3548L37.3384 63.585C37.7695 63.2503 38.1533 62.86 38.488 62.4289L38.2578 62.7261C38.3035 62.6673 38.3476 62.6069 38.3917 62.5464C38.6219 62.228 38.8767 61.9798 39.2702 61.8704C39.6213 61.7741 40.09 61.8165 40.4035 62.019C40.717 62.2215 40.993 62.5219 41.0796 62.8975C41.1661 63.2731 41.1596 63.7157 40.931 64.0308C39.9953 65.3209 38.7885 66.3447 37.2617 66.8624C36.7767 67.0273 36.2672 67.0992 35.7593 67.1547C35.2074 67.2151 34.6179 67.158 34.0888 66.9898C33.2119 66.7122 32.4232 66.1749 31.8304 65.4727C30.7428 64.1827 30.1452 62.6069 29.5638 61.0441C29.1981 60.0611 28.8894 59.0176 28.8976 57.9578C28.9058 56.7445 29.3712 55.5688 30.2546 54.7261C31.7651 53.2842 34.0137 52.7927 36.0206 53.2483C36.7718 53.4181 37.2845 54.3244 37.0477 55.056C36.793 55.8415 36.0435 56.2644 35.24 56.0831L35.2384 56.0864Z" fill="#343434"/>
<path d="M10.8787 51.2129C7.74337 51.2504 4.60643 51.288 1.47113 51.3256C0.701998 51.3354 -0.0344725 50.643 0.0014534 49.8559C0.0373783 49.0688 0.646477 48.396 1.47113 48.3862C4.60643 48.3487 7.74337 48.3111 10.8787 48.2735C11.6478 48.2637 12.3843 48.9561 12.3483 49.7432C12.3124 50.5303 11.7033 51.2031 10.8787 51.2129Z" fill="#343434"/>
<path d="M35.3615 1.47094C35.3697 4.6438 35.3779 7.8183 35.386 10.9912C35.3877 11.886 35.3909 12.7809 35.3926 13.6758C35.3942 14.4449 34.7149 15.1814 33.9229 15.1454C33.1309 15.1095 32.4549 14.5004 32.4532 13.6758C32.4451 10.5029 32.4369 7.3284 32.4287 4.15554C32.4271 3.26067 32.4238 2.3658 32.4222 1.47094C32.4206 0.701807 33.0999 -0.0346627 33.8919 0.00126267C34.6839 0.037188 35.3599 0.646286 35.3615 1.47094Z" fill="#343434"/>
<path d="M19.8628 3.41624C21.0092 6.37518 22.1539 9.33575 23.3003 12.2947C23.6236 13.1291 23.9469 13.9636 24.2702 14.7997C24.3992 15.1344 24.2964 15.6341 24.1216 15.933C23.9469 16.2318 23.5942 16.529 23.2431 16.609C22.8675 16.6939 22.4446 16.676 22.1098 16.4604C21.7751 16.2449 21.5791 15.9575 21.4338 15.5819C20.2874 12.6229 19.1427 9.66235 17.9964 6.70341C17.673 5.86896 17.3497 5.03451 17.0264 4.19843C16.8974 3.86367 17.0002 3.36398 17.175 3.06515C17.3497 2.76632 17.7024 2.46911 18.0535 2.3891C18.4291 2.30418 18.852 2.32215 19.1868 2.5377C19.5216 2.75325 19.7175 3.04065 19.8628 3.41624Z" fill="#343434"/>
<path d="M63.5738 12.5805C61.5359 15.0136 59.4979 17.4451 57.46 19.8783C56.8852 20.5641 56.3104 21.25 55.7356 21.9374C55.5069 22.2118 55.0399 22.3685 54.697 22.3685C54.3361 22.3685 53.9066 22.2085 53.6584 21.9374C53.4102 21.6664 53.211 21.2891 53.2273 20.8989C53.2436 20.5086 53.3955 20.1722 53.6584 19.8603C55.6964 17.4272 57.7343 14.9957 59.7723 12.5625C60.3471 11.8767 60.9219 11.1909 61.4967 10.5034C61.7253 10.229 62.1923 10.0723 62.5352 10.0723C62.8961 10.0723 63.3256 10.2323 63.5738 10.5034C63.822 10.7744 64.0213 11.1517 64.0049 11.5419C63.9886 11.9322 63.8367 12.2686 63.5738 12.5805Z" fill="#343434"/>
<path d="M50.2917 4.84318C49.1846 7.81682 48.0774 10.7921 46.9703 13.7657C46.6584 14.6051 46.3465 15.4428 46.0329 16.2821C45.8958 16.6479 45.7047 16.9566 45.3569 17.1607C45.0417 17.3452 44.578 17.4236 44.2236 17.3093C43.8693 17.195 43.5247 16.9745 43.3451 16.6332C43.1654 16.2919 43.0609 15.8674 43.1965 15.4999C44.3036 12.5263 45.4108 9.55103 46.5179 6.57739C46.8298 5.73805 47.1417 4.90033 47.4553 4.06098C47.5924 3.6952 47.7835 3.38657 48.1313 3.18245C48.4465 2.99792 48.9102 2.91954 49.2646 3.03385C49.6189 3.14815 49.9635 3.3686 50.1431 3.7099C50.3228 4.05119 50.4273 4.47576 50.2917 4.84318Z" fill="#343434"/>
<path d="M6.12347 10.5954C8.21857 12.9795 10.3137 15.3636 12.4088 17.7478C12.9999 18.4206 13.591 19.0933 14.1822 19.7645C14.4418 20.0601 14.6133 20.4014 14.6133 20.8031C14.6133 21.164 14.4532 21.5934 14.1822 21.8416C13.627 22.3511 12.6456 22.4589 12.1034 21.8416C10.0083 19.4575 7.9132 17.0734 5.8181 14.6892C5.22697 14.0164 4.63583 13.3437 4.04469 12.6725C3.78505 12.3769 3.61359 12.0356 3.61359 11.6339C3.61359 11.2731 3.77362 10.8436 4.04469 10.5954C4.5999 10.0859 5.58132 9.97811 6.12347 10.5954Z" fill="#343434"/>
<path d="M32.3282 84.5293C32.3201 81.3564 32.3119 78.1819 32.3037 75.009C32.3021 74.1142 32.2988 73.2193 32.2972 72.3245C32.2956 71.5553 32.9749 70.8189 33.7669 70.8548C34.5589 70.8907 35.2349 71.4998 35.2365 72.3245C35.2447 75.4973 35.2529 78.6718 35.261 81.8447C35.2627 82.7395 35.2659 83.6344 35.2676 84.5293C35.2692 85.2984 34.5899 86.0349 33.7979 85.9989C32.9994 85.963 32.3299 85.3539 32.3282 84.5293Z" fill="#343434"/>
<path d="M47.8283 82.5819C46.6819 79.6229 45.5372 76.6623 44.3909 73.7034C44.0676 72.869 43.7442 72.0345 43.4209 71.1984C43.2919 70.8637 43.3948 70.364 43.5695 70.0652C43.7442 69.7663 44.097 69.4691 44.448 69.3891C44.8236 69.3042 45.2466 69.3221 45.5813 69.5377C45.9161 69.7532 46.112 70.0407 46.2574 70.4162C47.4037 73.3752 48.5484 76.3358 49.6948 79.2947C50.0181 80.1291 50.3414 80.9636 50.6648 81.7997C50.7938 82.1344 50.6909 82.6341 50.5162 82.933C50.3414 83.2318 49.9887 83.529 49.6376 83.609C49.262 83.6939 48.8391 83.676 48.5043 83.4604C48.1696 83.2449 47.9736 82.9574 47.8283 82.5819Z" fill="#343434"/>
<path d="M4.11741 73.4189C6.15535 70.9858 8.1933 68.5543 10.2312 66.1211C10.8061 65.4353 11.3809 64.7494 11.9557 64.062C12.1843 63.7876 12.6513 63.6309 12.9942 63.6309C13.3551 63.6309 13.7846 63.7909 14.0328 64.062C14.281 64.333 14.4802 64.7103 14.4639 65.1005C14.4476 65.4908 14.2957 65.8272 14.0328 66.1391C11.9949 68.5722 9.95691 71.0037 7.91896 73.4369C7.34416 74.1227 6.76935 74.8085 6.19454 75.496C5.96593 75.7704 5.4989 75.9271 5.15597 75.9271C4.79509 75.9271 4.36562 75.7671 4.11741 75.496C3.8692 75.225 3.66997 74.8477 3.6863 74.4575C3.70263 74.0672 3.8545 73.7308 4.11741 73.4189Z" fill="#343434"/>
<path d="M17.4016 81.1581C18.5087 78.1845 19.6159 75.2092 20.723 72.2356C21.0349 71.3962 21.3468 70.5585 21.6603 69.7192C21.7975 69.3534 21.9886 69.0448 22.3364 68.8406C22.6516 68.6561 23.1153 68.5777 23.4697 68.6921C23.824 68.8064 24.1686 69.0268 24.3482 69.3681C24.5278 69.7094 24.6323 70.134 24.4968 70.5014C23.3897 73.475 22.2825 76.4503 21.1753 79.4239C20.8635 80.2633 20.5516 81.101 20.238 81.9403C20.1009 82.3061 19.9098 82.6148 19.562 82.8189C19.2468 83.0034 18.783 83.0818 18.4287 82.9675C18.0743 82.8532 17.7298 82.6327 17.5502 82.2914C17.3705 81.9501 17.266 81.5256 17.4016 81.1581Z" fill="#343434"/>
<path d="M61.5663 75.4041C59.4712 73.02 57.3761 70.6359 55.281 68.2517C54.6899 67.5789 54.0987 66.9062 53.5076 66.235C53.2479 65.9394 53.0765 65.5982 53.0765 65.1964C53.0765 64.8356 53.2365 64.4061 53.5076 64.1579C54.0628 63.6484 55.0442 63.5406 55.5864 64.1579C57.6815 66.542 59.7766 68.9261 61.8717 71.3103C62.4628 71.9831 63.0539 72.6558 63.6451 73.327C63.9047 73.6226 64.0762 73.9639 64.0762 74.3656C64.0762 74.7265 63.9161 75.1559 63.6451 75.4041C63.0899 75.9136 62.1084 76.0214 61.5663 75.4041Z" fill="#343434"/>
</svg>
