<svg width="80" height="86" viewBox="0 0 80 86" fill="none" xmlns="http://www.w3.org/2000/svg">
<path d="M14.673 24.3854C18.9185 24.3503 23.164 24.3152 27.4075 24.2801C31.6354 24.2451 35.8653 24.21 40.0932 24.1749C42.4741 24.1554 44.857 24.136 47.2379 24.1165C48.1556 24.1087 49.0343 23.3157 48.9914 22.363C48.9485 21.4102 48.2199 20.6016 47.2379 20.6094C42.9924 20.6445 38.7469 20.6796 34.5034 20.7146C30.2755 20.7497 26.0456 20.7848 21.8176 20.8199C19.4367 20.8393 17.0539 20.8588 14.673 20.8783C13.7553 20.8861 12.8766 21.6791 12.9195 22.6318C12.9623 23.5846 13.691 24.3931 14.673 24.3854Z" fill="#343434"/>
<path d="M14.673 36.2291C18.9185 36.194 23.164 36.159 27.4075 36.1239C31.6354 36.0888 35.8653 36.0537 40.0932 36.0187C42.4741 35.9992 44.857 35.9797 47.2379 35.9602C48.1556 35.9524 49.0343 35.1595 48.9914 34.2067C48.9485 33.254 48.2199 32.4454 47.2379 32.4532C42.9924 32.4883 38.7469 32.5233 34.5034 32.5584C30.2755 32.5935 26.0456 32.6285 21.8176 32.6636C19.4367 32.6831 17.0539 32.7026 14.673 32.7221C13.7553 32.7298 12.8766 33.5228 12.9195 34.4756C12.9623 35.4186 13.691 36.2369 14.673 36.2291Z" fill="#343434"/>
<path d="M14.673 47.8014C18.9185 47.7663 23.164 47.7312 27.4075 47.6962C31.6354 47.6611 35.8653 47.626 40.0932 47.5909C42.4741 47.5715 44.857 47.552 47.2379 47.5325C48.1556 47.5247 49.0343 46.7317 48.9914 45.779C48.9485 44.8262 48.2199 44.0177 47.2379 44.0254C42.9924 44.0605 38.7469 44.0956 34.5034 44.1307C30.2755 44.1657 26.0456 44.2008 21.8176 44.2359C19.4367 44.2554 17.0539 44.2748 14.673 44.2943C13.7553 44.3021 12.8766 45.0951 12.9195 46.0478C12.9623 46.9909 13.691 47.8092 14.673 47.8014Z" fill="#343434"/>
<path d="M14.9425 60.7213C19.188 60.6862 23.4335 60.6511 27.677 60.6161C31.9049 60.581 36.1348 60.5459 40.3628 60.5109C42.7437 60.4914 45.1265 60.4719 47.5074 60.4524C48.4251 60.4446 49.3038 59.6516 49.2609 58.6989C49.2181 57.7461 48.4894 56.9376 47.5074 56.9454C43.2619 56.9804 39.0165 57.0155 34.7729 57.0506C30.545 57.0857 26.3151 57.1207 22.0872 57.1558C19.7063 57.1753 17.3234 57.1948 14.9425 57.2142C14.0249 57.222 13.1461 58.015 13.189 58.9678C13.2319 59.9205 13.9606 60.7291 14.9425 60.7213Z" fill="#343434"/>
<path d="M10.9121 2.41602C8.50973 5.53339 6.10545 8.65077 3.70312 11.7681C4.51364 12.1111 6.03336 12.6274 7.98952 12.5475C9.75863 12.4734 11.1166 11.9435 11.8862 11.5733C11.5609 8.52023 11.2374 5.46909 10.9121 2.41602Z" fill="#0C4050"/>
<path d="M5.58736e-05 11.5986C0.0701968 20.4948 0.140338 29.391 0.210479 38.2892C0.28062 47.1854 0.350761 56.0816 0.420902 64.9797C0.459869 69.9734 0.498837 74.969 0.539752 79.9626C0.547546 80.9037 1.33663 81.7259 2.29328 81.7162C9.73991 81.646 17.1846 81.5759 24.6312 81.5057C32.1032 81.4356 39.5751 81.3654 47.0471 81.2953C51.238 81.2563 55.4309 81.2174 59.6218 81.1765C60.5687 81.1667 61.3753 80.3796 61.3753 79.4229V1.90939C61.3753 0.958591 60.5726 0.159763 59.6218 0.155866C51.4251 0.130538 43.2303 0.103262 35.0335 0.0779332C26.864 0.0526045 18.6926 0.0253287 10.5231 0C9.9211 0 9.34049 0.0584488 8.89237 0.512417C8.69364 0.713098 8.52023 0.94885 8.33708 1.16512C7.9669 1.5996 7.59671 2.03409 7.22652 2.47052C6.48614 3.33949 5.74577 4.2104 5.00539 5.07937C3.50905 6.83874 2.01076 8.59811 0.514423 10.3575C-0.079827 11.055 -0.222057 12.1617 0.514423 12.8377C1.16712 13.4378 2.35952 13.584 2.99468 12.8377C5.78668 9.5567 8.57868 6.27372 11.3707 2.99268L10.1315 3.50705C16.5845 3.52653 23.0375 3.54796 29.4904 3.56745C35.8908 3.58693 42.2931 3.60836 48.6935 3.62784C52.3369 3.63954 55.9784 3.65122 59.6218 3.66291L57.8683 1.90939V79.4229L59.6218 77.6694C52.1752 77.7395 44.7305 77.8097 37.2839 77.8798C29.8119 77.95 22.3399 78.0201 14.868 78.0903C10.6771 78.1292 6.4842 78.1682 2.29328 78.2091L4.0468 79.9626C3.97666 71.0664 3.90652 62.1702 3.83638 53.272C3.76624 44.3758 3.69609 35.4796 3.62595 26.5815C3.58699 21.5878 3.54802 16.5922 3.5071 11.5986C3.49931 10.6809 2.70633 9.8022 1.75358 9.84506C0.800832 9.88793 -0.00773756 10.6166 5.58736e-05 11.5986Z" fill="#343434"/>
<path d="M10.2259 2.1785C10.4948 5.67776 10.7636 9.17701 11.0325 12.6743L12.786 10.9208H3.09683C2.17915 10.9208 1.30044 11.7274 1.3433 12.6743C1.38617 13.6212 2.11291 14.4278 3.09683 14.4278H12.786C13.6803 14.4278 14.6116 13.6232 14.5395 12.6743C14.2707 9.17506 14.0018 5.67581 13.7329 2.1785C13.6959 1.70895 13.5615 1.28031 13.2186 0.939347C12.9146 0.635403 12.4158 0.405497 11.9794 0.42498C11.543 0.444464 11.0559 0.594488 10.7402 0.939347C10.4246 1.28421 10.1908 1.71869 10.2259 2.1785Z" fill="#343434"/>
<path d="M77.1471 68.9824C76.9774 65.1798 75.7279 61.2365 72.8413 58.5851C69.9643 55.9453 66.4278 54.2793 62.444 54.2793C58.6742 54.2793 54.7136 55.9203 52.0468 58.5851C50.6121 59.9176 49.5998 61.4949 49.0059 63.3171C48.0861 65.0699 47.6638 66.9577 47.739 68.9824C47.9087 72.785 49.1582 76.7283 52.0448 79.3797C54.9218 82.0214 58.4583 83.6855 62.4421 83.6855C66.2119 83.6855 70.1726 82.0445 72.8394 79.3797C74.274 78.0472 75.2863 76.4699 75.8803 74.6477C76.8 72.8949 77.2223 71.0071 77.1471 68.9824Z" fill="#0C4050" stroke="#343434" stroke-width="0.192828" stroke-miterlimit="10"/>
<path d="M53.8531 68.1833C55.7814 70.3681 57.7097 72.5547 59.6379 74.7395C60.2222 75.4028 61.5122 75.4221 62.0926 74.7395C65.7467 70.4356 69.4008 66.1297 73.0549 61.8258C74.0923 60.6033 75.1316 59.3808 76.1691 58.1563C76.4718 57.7996 76.6781 57.412 76.6781 56.9299C76.6781 56.5038 76.4891 55.9966 76.1691 55.7035C75.849 55.4104 75.4035 55.1752 74.9427 55.1945C74.505 55.2137 74.0113 55.3545 73.7163 55.7035C70.0622 60.0074 66.4081 64.3133 62.754 68.6172C61.7166 69.8397 60.6773 71.0623 59.6399 72.2867H62.0946C60.1663 70.102 58.238 67.9153 56.3097 65.7306C55.7081 65.048 54.4625 65.0692 53.855 65.7306C53.1859 66.4595 53.2129 67.4564 53.855 68.1853L53.8531 68.1833Z" fill="#343434"/>
<path d="M62.4058 84.1182C70.7125 84.1182 77.4463 77.3843 77.4463 69.0777C77.4463 60.771 70.7125 54.0371 62.4058 54.0371C54.0991 54.0371 47.3652 60.771 47.3652 69.0777C47.3652 77.3843 54.0991 84.1182 62.4058 84.1182Z" stroke="#343434" stroke-width="3.27807" stroke-miterlimit="10"/>
</svg>
