<svg width="82" height="57" viewBox="0 0 82 57" fill="none" xmlns="http://www.w3.org/2000/svg">
<path d="M40.2113 1.50158C36.774 1.53546 27.3692 1.76338 18.9469 8.3885C6.01078 18.5649 6.32648 35.2355 6.39886 37.2621C3.21721 38.3678 1.10739 40.6671 1.06889 43.0372C1.03347 45.2224 2.76752 46.8133 3.73465 47.7018C5.96458 49.7485 8.33928 50.2983 12.7298 51.2562C19.6383 52.7623 23.091 53.5154 23.6131 53.5878C27.4354 54.1191 31.8152 54.4702 39.9372 54.3655C48.2779 54.2577 54.7598 54.1468 63.2575 52.6992C77.5735 50.2613 79.3321 47.1428 79.8034 45.7029C80.153 44.6372 80.5364 42.2333 79.2474 40.0388C78.0847 38.0598 76.1705 37.2852 75.4713 37.0404C75.5252 34.8997 75.6638 19.5228 63.4778 9.27708C54.2531 1.52159 43.6286 1.4677 40.2113 1.50158Z" fill="#0C4050" stroke="white" stroke-width="0.667123" stroke-miterlimit="10"/>
<path d="M7.78342 37.2624C7.72182 35.496 7.82962 33.7189 8.03136 31.9633C8.05138 31.7939 8.0714 31.626 8.09296 31.4566C8.10374 31.3765 8.11606 31.2949 8.12376 31.2148C8.12376 31.2194 8.0714 31.5952 8.1022 31.3734C8.1099 31.3149 8.11914 31.2549 8.12684 31.1963C8.18074 30.8175 8.23926 30.4402 8.30394 30.0644C8.43946 29.2636 8.59962 28.4659 8.78289 27.6743C9.19715 25.8802 9.73153 24.1123 10.3968 22.3952C10.4784 22.1857 10.5601 21.9778 10.6448 21.7699C10.6925 21.6529 10.8049 21.3618 10.691 21.6529C10.7387 21.5312 10.7941 21.4127 10.845 21.2941C11.0498 20.8244 11.2654 20.3593 11.4918 19.8988C11.9599 18.9456 12.4712 18.0139 13.0287 17.1099C13.5862 16.2059 14.2207 15.2803 14.8859 14.4164C14.7011 14.6566 14.9537 14.3317 15.0091 14.2639C15.0892 14.1623 15.1708 14.0622 15.2525 13.9621C15.4419 13.7311 15.6328 13.5047 15.8284 13.2799C16.2134 12.8364 16.6123 12.4036 17.0235 11.9832C17.8628 11.1239 18.7544 10.3138 19.6892 9.55921C19.8063 9.46527 19.9233 9.37133 20.0404 9.27893C19.8987 9.38981 20.0865 9.24351 20.102 9.23119C20.1774 9.17421 20.2544 9.11569 20.3314 9.05871C20.6333 8.83387 20.9397 8.61365 21.2508 8.39958C21.816 8.00996 22.395 7.63882 22.9848 7.2877C24.1352 6.60239 25.3318 5.99255 26.5607 5.45971C26.6362 5.42737 26.7132 5.39349 26.7887 5.36115C26.7686 5.37039 26.5946 5.43969 26.7425 5.38117C26.8903 5.32265 27.0443 5.25797 27.1968 5.19791C27.4955 5.07933 27.7958 4.9669 28.0961 4.85756C28.6428 4.6589 29.1957 4.47564 29.7516 4.30624C30.8173 3.9813 31.8984 3.71026 32.9903 3.4885C33.4877 3.38686 33.9867 3.29754 34.4887 3.21746C34.7028 3.18358 34.9184 3.15123 35.1324 3.12043C35.1848 3.11273 35.2603 3.11119 35.3126 3.09579C35.288 3.10349 34.9677 3.14046 35.211 3.10966C35.328 3.09426 35.4435 3.0804 35.5606 3.06654C36.9712 2.89713 38.388 2.81089 39.8079 2.78471C41.0183 2.76315 42.2288 2.77547 43.4362 2.84939C43.8643 2.87557 44.2909 2.90945 44.7174 2.95103C44.9392 2.97259 45.161 2.99569 45.3827 3.02033C45.489 3.03265 45.5968 3.04497 45.7031 3.05883C45.8216 3.07269 46.2451 3.08039 45.8494 3.07577C46.3298 3.08039 46.8473 3.22362 47.3185 3.30678C47.8575 3.40226 48.395 3.5116 48.9294 3.63172C50.0736 3.8889 51.204 4.20306 52.3159 4.5742C52.9226 4.77748 53.5232 4.99617 54.1177 5.23333C54.2547 5.28877 54.3933 5.34421 54.5304 5.40119C54.7814 5.50437 54.6058 5.43353 54.5535 5.41043C54.632 5.44431 54.7121 5.47819 54.7906 5.51361C55.111 5.65375 55.4282 5.79851 55.7424 5.94943C57.0036 6.55157 58.2264 7.23534 59.3984 7.99764C60.0067 8.39342 60.6011 8.81077 61.1817 9.24659C61.2448 9.29433 61.3095 9.34361 61.3726 9.39135C61.3557 9.37903 61.2048 9.25891 61.328 9.35747C61.4512 9.45603 61.5775 9.55305 61.7007 9.65315C61.944 9.85027 62.1858 10.0505 62.4229 10.2538C63.3023 11.0068 64.14 11.8092 64.9301 12.6562C65.3181 13.072 65.6939 13.497 66.0589 13.9328C66.2329 14.1407 66.4039 14.3502 66.5717 14.5612C66.6056 14.6043 66.8366 14.8984 66.7273 14.7583C66.6179 14.6181 66.755 14.7952 66.7812 14.8307C66.8351 14.9015 66.889 14.9723 66.9413 15.0432C68.1826 16.7064 69.2606 18.4866 70.1769 20.347C70.3971 20.7936 70.6081 21.2463 70.8098 21.7022C70.8545 21.8038 70.8991 21.9055 70.9438 22.0071C70.9669 22.061 71.0008 22.1241 71.0177 22.1811C70.9253 21.8777 70.9561 22.0317 70.9885 22.1103C71.0839 22.3397 71.1779 22.5707 71.2687 22.8017C71.6045 23.6534 71.9109 24.5158 72.1866 25.389C72.6856 26.9659 73.089 28.5722 73.3986 30.1953C73.5326 30.896 73.6496 31.5998 73.7482 32.3067C73.7574 32.3698 73.7959 32.6563 73.7574 32.376C73.7189 32.0957 73.7574 32.376 73.7651 32.4407C73.7851 32.6008 73.8051 32.7625 73.8236 32.9227C73.8575 33.2137 73.8883 33.5048 73.916 33.7974C73.9976 34.6567 74.0546 35.5191 74.0746 36.3815C74.0793 36.6018 74.0823 36.8204 74.0823 37.0407C74.0823 37.6859 74.5197 38.1726 75.1003 38.3774C75.2127 38.4174 75.3236 38.4621 75.436 38.5037C75.6208 38.5714 75.1111 38.3558 75.3759 38.479C75.4776 38.5268 75.5792 38.573 75.6809 38.6223C76.0813 38.8225 76.437 39.0719 76.8097 39.3153C76.936 39.3984 76.7419 39.2644 76.7342 39.2567C76.7866 39.3029 76.8451 39.3461 76.899 39.3923C76.996 39.4754 77.0915 39.5617 77.1839 39.651C77.3934 39.8527 77.592 40.0668 77.7707 40.2962C77.5997 40.0776 77.8831 40.4703 77.9139 40.5196C77.9986 40.6504 78.0771 40.786 78.1526 40.923C78.228 41.0601 78.302 41.2095 78.3666 41.3573C78.3543 41.3311 78.3004 41.1895 78.3559 41.3388C78.3959 41.442 78.4329 41.5467 78.4683 41.6515C78.5622 41.9364 78.6346 42.229 78.69 42.5231C78.7054 42.6047 78.7178 42.6863 78.7316 42.7695C78.7285 42.7479 78.7116 42.5447 78.7208 42.7048C78.7301 42.865 78.7486 43.0221 78.7547 43.1822C78.7655 43.4656 78.7609 43.7505 78.7393 44.0339C78.7362 44.0754 78.6854 44.3311 78.7085 44.3526C78.67 44.3172 78.7532 44.0816 78.7162 44.2895C78.7024 44.3696 78.6885 44.4512 78.6731 44.5313C78.613 44.8424 78.533 45.1519 78.4236 45.4491C78.4036 45.503 78.3774 45.5569 78.3605 45.6124C78.3158 45.751 78.5407 45.2197 78.4544 45.3875C78.4359 45.4229 78.4221 45.4599 78.4051 45.4953C78.285 45.7479 78.1341 45.9758 77.9786 46.2068C77.8492 46.3993 78.1942 45.9481 78.0987 46.0528C78.0725 46.0805 78.0509 46.1129 78.0263 46.1421C77.9709 46.2068 77.9154 46.2715 77.8584 46.3331C77.7383 46.464 77.6105 46.5887 77.4781 46.7088C77.4041 46.7766 77.3271 46.8413 77.2501 46.906C77.2178 46.9321 77.1839 46.9583 77.1531 46.9845C77.0546 47.0692 77.4888 46.735 77.244 46.9137C77.0592 47.0476 76.8728 47.1785 76.6803 47.3002C76.2091 47.599 75.7148 47.8608 75.2096 48.0995C75.071 48.1657 74.9309 48.2288 74.7907 48.2904C74.7168 48.3228 74.6429 48.3536 74.5705 48.3859C74.378 48.4706 74.8847 48.2581 74.5736 48.3828C74.2163 48.5261 73.8575 48.6647 73.4941 48.7956C72.647 49.0989 71.7877 49.3654 70.9222 49.6087C68.5753 50.2678 66.1852 50.7683 63.7874 51.2026C62.3244 51.4675 60.8567 51.7077 59.386 51.9233C59.0303 51.9757 58.6746 52.0265 58.3188 52.0742C58.2572 52.0835 57.9153 52.1297 58.1294 52.1004C57.923 52.1281 57.7167 52.1559 57.5103 52.182C56.8697 52.2652 56.2275 52.3422 55.5853 52.4161C53.3954 52.6671 51.1978 52.8643 48.9971 53.0029C45.1163 53.2477 41.2216 53.297 37.3331 53.2123C33.0888 53.1199 28.8477 52.8473 24.6327 52.3299C24.2631 52.2852 23.8627 52.2744 23.5023 52.1851C23.5115 52.1867 23.875 52.2359 23.6486 52.2051C23.6116 52.2005 23.5762 52.1959 23.5393 52.1897C23.4561 52.179 23.3714 52.1666 23.2882 52.1543C23.1034 52.1281 22.9186 52.102 22.7354 52.0758C22.1471 51.9911 21.5603 51.9002 20.9736 51.8047C18.6928 51.4321 16.4213 50.9962 14.1745 50.4511C12.2741 49.9906 10.3876 49.4547 8.5565 48.7648C8.38248 48.7001 8.21 48.6323 8.03752 48.5646C7.95436 48.5322 7.8712 48.4983 7.78804 48.4645C7.73876 48.4444 7.40766 48.3058 7.64328 48.4059C7.8789 48.506 7.59554 48.3844 7.54318 48.3613C7.45694 48.3243 7.37224 48.2858 7.286 48.2473C7.132 48.178 6.97954 48.1087 6.82708 48.0363C6.30655 47.7884 5.79373 47.522 5.29939 47.2248C4.91284 46.9922 4.55094 46.7319 4.18288 46.4717C4.6341 46.792 4.30916 46.5687 4.19982 46.4778C4.12898 46.4193 4.05814 46.3593 3.98884 46.2977C3.86718 46.1899 3.75014 46.079 3.63618 45.9635C3.533 45.8588 3.43444 45.751 3.34049 45.6385C3.28967 45.5785 3.13105 45.3737 3.32509 45.6247C3.51914 45.8757 3.36205 45.6724 3.31739 45.6077C3.20189 45.4445 3.10333 45.2736 3.01247 45.0965C2.99553 45.0626 2.98167 45.0256 2.96473 44.9917C2.88157 44.8347 3.12489 45.4229 3.05559 45.2058C3.03557 45.1457 3.01093 45.0857 2.99245 45.0256C2.97551 44.9733 2.96165 44.9194 2.94625 44.867C2.90775 44.7207 2.87541 44.5729 2.84923 44.425C2.83999 44.3757 2.84307 44.2371 2.81227 44.2002C2.88773 44.2895 2.84615 44.5051 2.82921 44.3188C2.82305 44.2433 2.81381 44.1694 2.80765 44.0939C2.78763 43.8614 2.77993 43.6273 2.78301 43.3932C2.78455 43.2654 2.78917 43.1376 2.79841 43.0097C2.80611 42.9004 2.86309 42.5139 2.81227 42.8003C2.86463 42.5139 2.91853 42.2305 3.00169 41.9502C3.04481 41.8024 3.09563 41.6592 3.14953 41.5144C3.22807 41.305 3.06329 41.673 3.16801 41.4697C3.22191 41.3666 3.26811 41.2603 3.32355 41.1571C3.46524 40.8922 3.62694 40.6381 3.80866 40.3994C3.65466 40.6027 3.87026 40.3363 3.92878 40.2732C4.02888 40.1607 4.13514 40.0529 4.24294 39.9497C4.33534 39.862 4.42928 39.7773 4.5263 39.6941C4.5802 39.6479 4.63564 39.6048 4.69108 39.5601C4.68184 39.5678 4.4878 39.6987 4.61716 39.6202C4.8266 39.4939 5.02064 39.343 5.23317 39.2198C5.42413 39.1089 5.61971 39.0088 5.81991 38.9164C5.85687 38.8995 5.89383 38.8825 5.93079 38.8656C6.10943 38.7824 5.83223 38.8764 5.81375 38.9149C5.82915 38.881 6.01703 38.8348 6.04783 38.824C6.28191 38.7378 6.52061 38.6623 6.76239 38.5992C7.4631 38.4144 7.95898 37.6012 7.73106 36.8944C7.50314 36.1875 6.77779 35.7286 6.02627 35.9257C4.04736 36.4462 2.23477 37.6567 1.13828 39.4015C0.00175528 41.2095 -0.297006 43.6381 0.302057 45.6894C0.623919 46.7935 1.38314 47.7268 2.25941 48.4491C4.41234 50.2262 7.10736 51.2627 9.73923 52.0989C13.6817 53.3509 17.7781 54.1301 21.8668 54.7292C25.7507 55.2975 29.6608 55.6625 33.5816 55.8519C38.0184 56.0659 42.4737 56.089 46.912 55.8858C51.6521 55.6702 56.3799 55.1712 61.0693 54.4505C63.8921 54.0162 66.7103 53.508 69.4885 52.8412C71.3658 52.3915 73.2384 51.8725 75.0371 51.1626C77.0977 50.3494 79.2829 49.3022 80.5288 47.3787C81.1679 46.3916 81.4266 45.1858 81.5113 44.0308C81.7223 41.1679 80.4056 38.4837 78.0864 36.8297C77.4026 36.3415 76.6295 35.9811 75.8395 35.7024L76.8574 37.0391C76.8621 35.1757 76.6726 33.3154 76.4093 31.4735C75.935 28.1517 75.0818 24.8746 73.8221 21.7622C72.1466 17.6212 69.815 13.7835 66.7365 10.531C62.982 6.56389 58.2249 3.6271 53.0535 1.90075C49.282 0.64102 45.2811 0.0373364 41.3079 0.00191616C38.2371 -0.024264 35.1648 0.215977 32.1541 0.836601C26.9011 1.91769 21.9592 4.19998 17.7765 7.56028C14.1329 10.4863 11.1838 14.267 9.12169 18.4543C7.4323 21.8839 6.27113 25.5614 5.63203 29.3283C5.22701 31.7153 4.9806 34.1424 4.99908 36.5648C5.00062 36.7973 5.00524 37.0299 5.01294 37.2624C5.03758 37.9862 5.63203 38.6823 6.39895 38.6484C7.16588 38.6146 7.81114 38.0386 7.78496 37.2624H7.78342Z" fill="#343434"/>
<path d="M7.16888 30.6877C10.0472 31.9859 13.0394 33.0208 16.1071 33.7646C19.1748 34.5085 22.3133 34.9612 25.4642 35.1229C26.918 35.1984 28.3733 35.2092 29.8286 35.1614L29.5976 34.9304C29.5606 36.2256 29.5236 37.5223 29.4867 38.8174L29.7177 38.5864C26.995 38.6326 24.2707 38.494 21.568 38.1614C18.3216 37.7625 15.1107 37.0772 11.9814 36.127C10.3552 35.6327 8.75047 35.0644 7.1735 34.4284C6.89784 34.3175 6.77771 34.7641 7.0503 34.8735C10.0056 36.0654 13.0563 37.0141 16.1687 37.6994C19.281 38.3847 22.2379 38.7835 25.3133 38.9606C26.7794 39.0453 28.2485 39.0731 29.7177 39.0484C29.8455 39.0469 29.9456 38.9437 29.9487 38.8174C29.9857 37.5223 30.0226 36.2256 30.0596 34.9304C30.0627 34.8088 29.9502 34.6948 29.8286 34.6994C27.1212 34.7888 24.4077 34.6686 21.7189 34.3298C18.4279 33.914 15.1785 33.1656 12.0338 32.1091C10.4599 31.5794 8.91371 30.9726 7.40142 30.2904C7.13192 30.1687 6.89784 30.5676 7.16888 30.6892V30.6877Z" fill="#343434"/>
<path d="M38.7091 30.8859C40.0428 30.9043 41.378 30.9228 42.7116 30.9413L42.4806 30.7103C42.5099 34.0937 42.5391 37.4756 42.5668 40.859C42.5745 41.8076 42.5838 42.7547 42.5915 43.7034L42.8225 43.4724H38.8246L39.0556 43.7034C39.0248 40.3138 38.9956 36.9242 38.9648 33.5331C38.9555 32.5737 38.9478 31.6143 38.9386 30.6549C38.9355 30.3576 38.4735 30.3576 38.4766 30.6549C38.5074 34.0444 38.5366 37.434 38.5674 40.8251C38.5767 41.7845 38.5844 42.7439 38.5936 43.7034C38.5936 43.8281 38.6983 43.9344 38.8246 43.9344H42.8225C42.9472 43.9344 43.055 43.8281 43.0535 43.7034C43.0242 40.32 42.995 36.9381 42.9672 33.5547C42.9595 32.6061 42.9503 31.6589 42.9426 30.7103C42.9426 30.584 42.8379 30.4808 42.7116 30.4793C41.378 30.4608 40.0428 30.4423 38.7091 30.4239C38.4119 30.4192 38.4119 30.8812 38.7091 30.8859Z" fill="#343434"/>
<path d="M74.1012 30.224C71.2614 31.5053 68.3015 32.5201 65.2723 33.2547C62.2431 33.9893 59.1092 34.4421 55.9768 34.5991C54.543 34.6715 53.1078 34.6823 51.6725 34.6346C51.5508 34.6299 51.4384 34.7439 51.4415 34.8656C51.4784 36.1607 51.5154 37.4574 51.5523 38.7526C51.5554 38.8788 51.6555 38.982 51.7834 38.9836C54.5169 39.0313 57.2535 38.8896 59.967 38.5539C63.2195 38.1519 66.4365 37.4774 69.5735 36.5272C71.2244 36.0283 72.8507 35.4539 74.4492 34.8086C74.7218 34.6992 74.6032 34.2511 74.326 34.3635C71.383 35.5509 68.3431 36.4964 65.2446 37.1817C62.2446 37.8455 59.1923 38.2644 56.1262 38.4368C54.6801 38.5185 53.231 38.5462 51.7834 38.52L52.0144 38.751C51.9774 37.4559 51.9404 36.1592 51.9035 34.864L51.6725 35.095C54.4245 35.1859 57.1842 35.0596 59.9146 34.7085C63.2256 34.2819 66.4904 33.5335 69.6536 32.4662C71.2429 31.9288 72.8029 31.3128 74.3322 30.6228C74.6032 30.5012 74.3676 30.1023 74.0996 30.224H74.1012Z" fill="#343434"/>
<path d="M34.5577 39.1471C34.5762 37.8135 34.5947 36.4783 34.6132 35.1446L34.3822 35.3756C37.7656 35.3464 41.1474 35.3171 44.5308 35.2894C45.4795 35.2817 46.4266 35.2725 47.3752 35.2648L47.1442 35.0338C47.1442 36.3659 47.1442 37.6995 47.1442 39.0316L47.3752 38.8006C43.9857 38.8314 40.5961 38.8607 37.205 38.8915C36.2456 38.9007 35.2862 38.9084 34.3267 38.9177C34.0295 38.9207 34.0295 39.3827 34.3267 39.3797C37.7163 39.3489 41.1059 39.3196 44.497 39.2888C45.4564 39.2796 46.4158 39.2719 47.3752 39.2626C47.5 39.2626 47.6062 39.1579 47.6062 39.0316C47.6062 37.6995 47.6062 36.3659 47.6062 35.0338C47.6062 34.909 47.5 34.8012 47.3752 34.8028C43.9918 34.832 40.61 34.8613 37.2266 34.889C36.2779 34.8967 35.3308 34.9059 34.3822 34.9136C34.2559 34.9136 34.1527 35.0184 34.1512 35.1446C34.1327 36.4783 34.1142 37.8135 34.0957 39.1471C34.0911 39.4443 34.5531 39.4443 34.5577 39.1471Z" fill="#343434"/>
<path d="M29.6615 34.9859C28.4218 35.0059 26.794 34.9951 24.886 34.875C23.4938 34.7872 21.538 34.6594 19.0001 34.2082C17.8666 34.008 15.7337 33.586 13.1141 32.7652C11.3693 32.2185 9.33188 31.47 7.11735 30.4336C6.96951 31.7657 6.82167 33.0993 6.67383 34.4315C8.69586 35.2738 10.9566 36.0793 13.4483 36.763C19.7023 38.4786 25.3372 38.859 29.7724 38.762C29.7355 37.5038 29.6985 36.244 29.6615 34.9859Z" fill="#343434" stroke="#343434" stroke-width="0.667123" stroke-miterlimit="10"/>
<path d="M47.3192 34.9868H42.6545V30.7671C41.3224 30.7302 39.9888 30.6932 38.6567 30.6562V35.0976C37.2137 35.1346 35.7692 35.1716 34.3262 35.2085V39.2064C35.8061 39.1694 37.2876 39.1325 38.7676 39.0955V43.6493C40.1366 43.6863 41.5072 43.7232 42.8763 43.7602V39.0955C44.3563 39.0585 45.8377 39.0216 47.3177 38.9846V34.9868H47.3192Z" fill="#343434"/>
<path d="M51.8316 34.8648C53.0713 34.8848 54.6991 34.874 56.6071 34.7539C57.9993 34.6661 59.9551 34.5383 62.4931 34.0871C63.6265 33.8869 65.7594 33.4649 68.379 32.6441C70.1238 32.0974 72.1612 31.3489 74.3758 30.3125C74.5236 31.6446 74.6714 32.9783 74.8193 34.3104C72.7973 35.1528 70.5365 35.9582 68.0448 36.6419C61.7908 38.3575 56.1559 38.7379 51.7207 38.6409C51.7577 37.3827 51.7946 36.123 51.8316 34.8648Z" fill="#343434" stroke="#343434" stroke-width="0.667123" stroke-miterlimit="10"/>
</svg>
