<svg width="100" height="113" viewBox="0 0 100 113" fill="none" xmlns="http://www.w3.org/2000/svg">
<mask id="path-1-inside-1_1029_1545" fill="white">
<rect x="27.0488" y="18.7383" width="72.9508" height="94.2623" rx="2.45902"/>
</mask>
<rect x="27.0488" y="18.7383" width="72.9508" height="94.2623" rx="2.45902" fill="white" stroke="#343434" stroke-width="9.83607" mask="url(#path-1-inside-1_1029_1545)"/>
<path d="M3.2793 14.6387H72.9514V98.2452H3.2793V14.6387Z" fill="white"/>
<path d="M18.0294 30.6668C23.2457 30.6237 28.4619 30.5806 33.6758 30.5375C38.8706 30.4944 44.0677 30.4513 49.2624 30.4082C52.1877 30.3843 55.1155 30.3603 58.0408 30.3364C59.1683 30.3268 60.2479 29.3525 60.1953 28.1819C60.1426 27.0113 59.2473 26.0178 58.0408 26.0274C52.8245 26.0705 47.6082 26.1136 42.3944 26.1567C37.1996 26.1998 32.0025 26.2429 26.8078 26.286C23.8824 26.3099 20.9547 26.3338 18.0294 26.3578C16.9019 26.3673 15.8222 27.3417 15.8749 28.5123C15.9276 29.6829 16.8229 30.6763 18.0294 30.6668Z" fill="#343434"/>
<path d="M18.0294 45.2175C23.2457 45.1745 28.4619 45.1314 33.6758 45.0883C38.8706 45.0452 44.0677 45.0021 49.2624 44.959C52.1877 44.9351 55.1155 44.9111 58.0408 44.8872C59.1683 44.8776 60.2479 43.9033 60.1953 42.7327C60.1426 41.5621 59.2473 40.5686 58.0408 40.5782C52.8245 40.6213 47.6082 40.6644 42.3944 40.7075C37.1996 40.7506 32.0025 40.7936 26.8078 40.8367C23.8824 40.8607 20.9547 40.8846 18.0294 40.9086C16.9019 40.9181 15.8222 41.8924 15.8749 43.063C15.9276 44.2217 16.8229 45.2271 18.0294 45.2175Z" fill="#343434"/>
<path d="M18.0294 59.4382C23.2457 59.3952 28.4619 59.3521 33.6758 59.309C38.8706 59.2659 44.0677 59.2228 49.2624 59.1797C52.1877 59.1558 55.1155 59.1318 58.0408 59.1079C59.1683 59.0983 60.2479 58.124 60.1953 56.9534C60.1426 55.7828 59.2473 54.7893 58.0408 54.7989C52.8245 54.842 47.6082 54.8851 42.3944 54.9282C37.1996 54.9713 32.0025 55.0144 26.8078 55.0574C23.8824 55.0814 20.9547 55.1053 18.0294 55.1293C16.9019 55.1388 15.8222 56.1131 15.8749 57.2838C15.9276 58.4424 16.8229 59.4478 18.0294 59.4382Z" fill="#343434"/>
<path d="M18.3595 75.3113C23.5757 75.2682 28.792 75.2251 34.0059 75.182C39.2006 75.1389 44.3978 75.0958 49.5925 75.0528C52.5178 75.0288 55.4455 75.0049 58.3709 74.9809C59.4984 74.9714 60.578 73.997 60.5254 72.8264C60.4727 71.6558 59.5774 70.6624 58.3709 70.6719C53.1546 70.715 47.9383 70.7581 42.7244 70.8012C37.5297 70.8443 32.3326 70.8874 27.1378 70.9305C24.2125 70.9544 21.2848 70.9784 18.3595 71.0023C17.232 71.0119 16.1523 71.9862 16.205 73.1568C16.2576 74.3274 17.153 75.3209 18.3595 75.3113Z" fill="#343434"/>
<path d="M13.4062 3.67383C10.4545 7.50404 7.50049 11.3343 4.54883 15.1645C5.54468 15.5858 7.41191 16.2202 9.81537 16.122C11.989 16.0311 13.6576 15.3799 14.6031 14.9251C14.2034 11.1739 13.806 7.42505 13.4062 3.67383Z" fill="#0C4050"/>
<path d="M6.865e-05 14.9559C0.0862485 25.8864 0.172429 36.8168 0.258609 47.7497C0.344789 58.6802 0.430969 69.6107 0.517149 80.5435C0.565026 86.6791 0.612904 92.817 0.663176 98.9525C0.672751 100.109 1.64227 101.119 2.81767 101.107C11.9671 101.021 21.1141 100.935 30.2636 100.848C39.4441 100.762 48.6247 100.676 57.8052 100.59C62.9545 100.542 68.1061 100.494 73.2553 100.444C74.4188 100.432 75.4098 99.4648 75.4098 98.2894V3.05108C75.4098 1.88287 74.4236 0.901374 73.2553 0.896586C63.1843 0.865465 53.1156 0.831953 43.0445 0.800832C33.007 0.769712 22.967 0.736199 12.9294 0.705078C12.1897 0.705078 11.4764 0.776892 10.9258 1.33467C10.6816 1.58124 10.4685 1.8709 10.2435 2.13662C9.78866 2.67046 9.33383 3.20429 8.87899 3.74052C7.96931 4.8082 7.05964 5.87826 6.14996 6.94593C4.31146 9.10761 2.47056 11.2693 0.632054 13.431C-0.0980808 14.288 -0.272834 15.6477 0.632054 16.4784C1.43401 17.2157 2.89906 17.3952 3.67947 16.4784C7.10991 12.4471 10.5403 8.41339 13.9708 4.38209L12.4483 5.01407C20.3768 5.03801 28.3054 5.06434 36.2339 5.08828C44.0978 5.11222 51.9641 5.13855 59.828 5.16249C64.3046 5.17685 68.7788 5.19122 73.2553 5.20558L71.1008 3.05108V98.2894L73.2553 96.1349C64.1059 96.2211 54.9589 96.3073 45.8094 96.3934C36.6289 96.4796 27.4484 96.5658 18.2678 96.652C13.1186 96.6999 7.96692 96.7477 2.81767 96.798L4.97217 98.9525C4.88599 88.022 4.79981 77.0915 4.71363 66.1587C4.62745 55.2282 4.54127 44.2977 4.45509 33.3648C4.40721 27.2293 4.35933 21.0914 4.30906 14.9559C4.29949 13.8284 3.32517 12.7487 2.15457 12.8014C0.983955 12.854 -0.00950689 13.7494 6.865e-05 14.9559Z" fill="#343434"/>
<path d="M12.564 3.38052C12.8944 7.67994 13.2247 11.9794 13.5551 16.2764L15.7096 14.1219H3.80479C2.67727 14.1219 1.59762 15.1129 1.65029 16.2764C1.70295 17.4398 2.59587 18.4309 3.80479 18.4309H15.7096C16.8084 18.4309 17.9526 17.4422 17.8641 16.2764C17.5337 11.977 17.2034 7.67754 16.873 3.38052C16.8275 2.8036 16.6623 2.27694 16.241 1.85801C15.8676 1.48456 15.2547 1.20209 14.7185 1.22603C14.1823 1.24996 13.5838 1.43429 13.196 1.85801C12.8082 2.28173 12.5209 2.81556 12.564 3.38052Z" fill="#343434"/>
</svg>
