<svg width="73" height="90" viewBox="0 0 73 90" fill="none" xmlns="http://www.w3.org/2000/svg">
<path d="M57.9669 13.4584C48.2098 13.2038 38.1114 13.1267 27.6929 13.2655C18.9058 13.3832 10.352 13.6473 2.04688 14.0369C2.06809 25.7357 2.13172 37.4326 2.2397 49.1315C2.33419 59.415 2.46338 69.6985 2.62536 79.9839C15.6084 80.1767 28.5935 80.3696 41.5765 80.5624C39.3552 74.8932 40.3058 68.474 44.0833 63.7864C49.5866 56.9545 58.0594 57.5561 58.7382 57.6159C58.4817 42.8974 58.2233 28.1769 57.9669 13.4584Z" fill="white" stroke="#FFFF00" stroke-width="0.192828" stroke-miterlimit="10"/>
<path d="M44.7577 17.6038C44.9003 17.3589 47.3647 13.0068 45.529 9.69785C44.7769 8.34034 43.6007 7.57674 43.6007 7.57674C42.5903 6.9192 41.6377 6.78422 40.3226 6.61261C39.4105 6.49305 38.082 6.40628 36.4661 6.61261C36.4834 6.08233 36.4757 4.20033 35.1163 2.56323C33.3905 0.486472 30.8509 0.449835 30.2956 0.442122C29.6515 0.432481 27.4996 0.496114 25.6677 2.17757C23.778 3.91495 23.5775 6.13825 23.5466 6.61261C20.1027 5.99363 16.8709 6.92884 15.4479 9.11936C14.5261 10.5386 14.4953 12.2798 14.4837 12.9759C14.4471 15.1375 15.1972 16.7881 15.6407 17.6038H44.7577Z" fill="#343434" stroke="#343434" stroke-width="0.192828" stroke-miterlimit="10"/>
<path d="M16.4119 11.2408H5.32628C4.94641 11.2408 4.52412 11.2022 4.16161 11.3141C3.88779 11.3989 3.61012 11.5378 3.35366 11.6689C2.84652 11.9273 2.37988 12.2763 1.95566 12.6523C1.11686 13.3966 0.44196 14.4417 0.114153 15.5177C-0.0748179 16.1405 0.0273803 16.908 0.0293085 17.5578C0.0293085 18.1691 0.0331678 18.7804 0.0350961 19.3916C0.0428092 21.8598 0.0505213 24.328 0.0582344 26.7962C0.0736606 31.7326 0.089085 36.669 0.104511 41.6054C0.119937 46.5417 0.135365 51.4781 0.150791 56.4145C0.166217 61.3509 0.181644 66.2873 0.197071 71.2237C0.204784 73.5646 0.154649 75.9133 0.218282 78.2523C0.249134 79.3841 0.688781 80.5045 1.49866 81.3086C2.30853 82.1127 3.45007 82.4809 4.60704 82.5832C5.764 82.6853 6.91904 82.6622 8.06829 82.6776C10.5172 82.7104 12.9661 82.7201 15.415 82.7278C18.9399 82.7393 22.4667 82.7393 25.9916 82.7355C30.3939 82.7297 34.7961 82.7162 39.2003 82.6989C40.3804 82.6931 41.5586 82.6892 42.7387 82.6834C43.6469 82.6796 44.5166 81.889 44.4741 80.948C44.4317 80.0108 43.7125 79.2087 42.7387 79.2125C38.2516 79.2337 33.7626 79.2511 29.2755 79.2588C25.5578 79.2665 21.8381 79.2704 18.1204 79.2627C15.4015 79.2588 12.6807 79.2492 9.96186 79.226C8.41153 79.2125 6.85926 79.2048 5.30893 79.1489C5.1296 79.1431 4.9522 79.1354 4.77287 79.1238C4.57811 79.1103 4.13654 79.0043 4.76516 79.1373C4.60897 79.1045 4.45277 79.0814 4.29658 79.0371C4.21945 79.0139 3.88393 78.8867 4.15968 79.0004C4.43542 79.1142 4.08833 78.9464 4.01698 78.9098C3.96492 78.8809 3.83765 78.769 4.02277 78.9271C4.22717 79.1007 4.04205 78.9368 3.99385 78.8924C3.94564 78.8481 3.70075 78.5627 3.86658 78.7729C4.03241 78.9831 3.83187 78.7015 3.79909 78.6418C3.76631 78.582 3.74124 78.5241 3.71039 78.4663C3.61783 78.2947 3.81259 78.8057 3.78173 78.6263C3.76052 78.4952 3.71617 78.2503 3.66025 78.1346C3.6911 78.1982 3.70075 78.6321 3.69689 78.3622C3.69689 78.3082 3.69303 78.2542 3.69111 78.2002C3.67375 77.076 3.68532 75.948 3.68146 74.8238C3.66604 70.0012 3.65061 65.1766 3.63711 60.354C3.62169 55.5082 3.60626 50.6625 3.59276 45.8167C3.57927 40.971 3.56191 36.1695 3.54841 31.3469C3.53299 26.5243 3.51756 21.6998 3.50406 16.8771C3.50406 16.719 3.50406 16.5609 3.50406 16.4009C3.50406 16.3719 3.48478 16.2177 3.50406 16.1965C3.53877 16.1579 3.37294 16.5551 3.46935 16.4394C3.48864 16.4163 3.55998 16.2331 3.55034 16.2177C3.55034 16.2177 3.38065 16.5898 3.452 16.451C3.47707 16.4009 3.50021 16.3469 3.52335 16.2948C3.6159 16.1039 3.72003 15.9188 3.83765 15.7395C3.86658 15.6932 3.90322 15.6508 3.93021 15.6045C4.02855 15.4387 3.82609 15.7375 3.82994 15.7279C3.87429 15.6006 4.05748 15.4579 4.15196 15.3596C4.23681 15.2709 4.32551 15.1861 4.41807 15.1051C4.46242 15.0665 4.5087 15.0299 4.55112 14.9913C4.72273 14.8351 4.2773 15.1822 4.46242 15.0588C4.64753 14.9354 4.81336 14.8235 5.00041 14.7213C5.08525 14.6751 5.17009 14.6346 5.25686 14.5921C5.27422 14.5844 5.34749 14.5632 5.35714 14.5459C5.30893 14.6288 5.01776 14.6751 4.93099 14.6886C4.64175 14.731 4.8635 14.7059 4.93099 14.7078C5.01969 14.7117 5.11225 14.7078 5.20095 14.7078H16.4235C17.3317 14.7078 18.2014 13.9095 18.159 12.9724C18.1165 12.0352 17.3973 11.2369 16.4235 11.2369L16.4119 11.2408Z" fill="#343434"/>
<path d="M44.5631 14.3264C48.0263 14.3399 51.4895 14.3514 54.9527 14.3649L54.4918 14.3032C54.8427 14.3514 55.1841 14.4517 55.5119 14.5867L55.0973 14.4112C55.4212 14.5481 55.7259 14.7217 56.0074 14.9338L55.6565 14.6619C55.9322 14.8759 56.1771 15.1189 56.3931 15.3946L56.1212 15.0437C56.3237 15.3117 56.4914 15.599 56.6245 15.9056L56.449 15.4911C56.5936 15.842 56.692 16.2064 56.744 16.5825L56.6823 16.1216C56.7286 16.5034 56.7112 16.8833 56.7112 17.267V58.6787C56.7112 59.5869 57.5096 60.4565 58.4467 60.4141C59.3838 60.3717 60.1821 59.6524 60.1821 58.6787V18.6631C60.1821 17.9053 60.2284 17.1359 60.1783 16.38C60.0452 14.3688 58.948 12.4482 57.1065 11.5323C56.5898 11.2739 56.0383 11.0541 55.4637 10.9635C54.889 10.8728 54.3568 10.8921 53.7976 10.8902C53.2847 10.8902 52.7718 10.8863 52.2589 10.8844C50.2072 10.8767 48.1536 10.869 46.1019 10.8613C45.589 10.8613 45.076 10.8574 44.5631 10.8555C43.6549 10.8516 42.7852 11.6557 42.8277 12.5909C42.8701 13.5261 43.5893 14.3225 44.5631 14.3264Z" fill="#343434"/>
<path d="M9.59285 33.1015C10.9426 34.3877 12.2924 35.6719 13.6422 36.9581C14.321 37.604 15.4201 37.6349 16.0969 36.9581C18.218 34.8369 20.3391 32.7158 22.4602 30.5947C23.1023 29.9526 23.1506 28.7745 22.4602 28.14C21.7699 27.5056 20.692 27.4536 20.0055 28.14L13.6422 34.5034H16.0969C14.7471 33.2172 13.3973 31.933 12.0475 30.6468C11.39 30.0201 10.2369 29.9449 9.59285 30.6468C8.94881 31.3487 8.89096 32.4324 9.59285 33.1015Z" fill="#343434"/>
<path d="M9.59285 48.9108C10.9426 50.197 12.2924 51.4812 13.6422 52.7674C14.321 53.4133 15.4201 53.4442 16.0969 52.7674C18.218 50.6463 20.3391 48.5251 22.4602 46.404C23.1023 45.7619 23.1506 44.5838 22.4602 43.9494C21.768 43.313 20.692 43.2629 20.0055 43.9494L13.6422 50.3127H16.0969C14.7471 49.0265 13.3973 47.7423 12.0475 46.4561C11.39 45.8294 10.2369 45.7542 9.59285 46.4561C8.94881 47.158 8.89096 48.2417 9.59285 48.9108Z" fill="#343434"/>
<path d="M9.39949 64.7233C10.7493 66.0095 12.0991 67.2937 13.4489 68.5799C14.1276 69.2258 15.2267 69.2567 15.9036 68.5799C18.0247 66.4588 20.1458 64.3376 22.2669 62.2165C22.909 61.5744 22.9572 60.3963 22.2669 59.7619C21.5746 59.1255 20.4986 59.0754 19.8122 59.7619L13.4489 66.1252H15.9036C14.5538 64.839 13.204 63.5548 11.8542 62.2686C11.1966 61.6419 10.0435 61.5667 9.39949 62.2686C8.75545 62.9705 8.6976 64.0542 9.39949 64.7233Z" fill="#343434"/>
<path d="M27.3073 34.1877H50.4466C51.3548 34.1877 52.2244 33.3894 52.182 32.4522C52.1396 31.5112 51.4203 30.7168 50.4466 30.7168H27.3073C26.399 30.7168 25.5294 31.5151 25.5718 32.4522C25.6142 33.3894 26.3335 34.1877 27.3073 34.1877Z" fill="#343434"/>
<path d="M27.4987 50.1936H50.638C51.5462 50.1936 52.4158 49.3952 52.3734 48.4581C52.331 47.521 51.6117 46.7227 50.638 46.7227H27.4987C26.5904 46.7227 25.7208 47.521 25.7632 48.4581C25.8056 49.3952 26.5249 50.1936 27.4987 50.1936Z" fill="#343434"/>
<path d="M27.3795 65.7951H42.5396C43.4478 65.7951 44.3175 64.9968 44.2751 64.0597C44.2326 63.1225 43.5134 62.3242 42.5396 62.3242H27.3795C26.4713 62.3242 25.6016 63.1225 25.6441 64.0597C25.6865 64.9968 26.4057 65.7951 27.3795 65.7951Z" fill="#343434"/>
<path d="M45.8188 14.3265C45.6646 15.5278 45.1478 16.6732 44.361 17.593L44.5654 17.5081C40.8014 17.4831 37.0375 17.458 33.2754 17.4329C29.5114 17.4079 25.7474 17.3828 21.9853 17.3577C19.8719 17.3442 17.7566 17.3288 15.6432 17.3153L15.8939 17.458C15.2576 16.4032 14.8314 15.2251 14.5769 14.0199C14.2761 12.6026 14.3744 11.114 15.1052 9.83745C16.0906 8.11357 18.0478 6.98938 19.9568 6.6018C21.1157 6.36655 22.3305 6.40897 23.474 6.69821C23.6687 6.74835 23.823 6.60759 23.8403 6.41862C23.9078 5.62802 24.1469 4.72752 24.5191 3.96199C25.1554 2.65269 26.2295 1.60178 27.585 1.05222C30.2885 -0.0411096 33.6823 0.830469 35.302 3.31602C35.9383 4.29365 36.3008 5.45062 36.3741 6.61144C36.3857 6.80427 36.5496 6.93539 36.7405 6.89104C38.2523 6.54202 39.8412 6.53431 41.3433 6.94696C42.6969 7.31912 44.1142 7.88796 44.9588 9.06999C45.4949 9.82009 45.7764 10.711 45.8227 11.6269C45.842 11.9971 46.4204 11.999 46.4012 11.6269C46.3105 9.87408 45.4409 8.28711 43.9272 7.37118C43.3236 7.00674 42.6603 6.76378 41.9931 6.54202C41.0541 6.23157 40.0687 6.06574 39.0776 6.05417C38.2407 6.04453 37.4019 6.1448 36.5843 6.33377L36.9507 6.61337C36.8813 5.52197 36.5901 4.43827 36.0675 3.47606C35.2981 2.05492 34.0178 0.996302 32.506 0.442887C30.9942 -0.110528 29.3996 -0.139451 27.9167 0.323335C26.4339 0.786121 25.1014 1.80618 24.2877 3.17333C23.7015 4.15482 23.3583 5.28479 23.2599 6.42054L23.6263 6.14094C21.2468 5.53739 18.688 6.00211 16.6614 7.38275C15.514 8.1637 14.5942 9.24739 14.143 10.5721C13.6031 12.1591 13.8557 13.8213 14.3436 15.3832C14.5827 16.1448 14.8873 16.8834 15.2884 17.5756C15.381 17.7357 15.4446 17.8649 15.6432 17.8938C15.8881 17.9304 16.1639 17.8976 16.4126 17.8996C16.9255 17.9034 17.4385 17.9073 17.9494 17.9092C19.9992 17.9227 22.049 17.9362 24.0987 17.9497C28.1674 17.9767 32.2341 18.0037 36.3028 18.0307C38.3371 18.0442 40.3714 18.0577 42.4038 18.0712C42.9168 18.075 43.4297 18.0789 43.9407 18.0808C44.147 18.0808 44.444 18.1367 44.6426 18.075C44.8007 18.0249 44.9125 17.8321 45.0089 17.7067C45.518 17.0511 45.9056 16.3087 46.1505 15.5162C46.27 15.1267 46.3472 14.7295 46.3992 14.3245C46.4474 13.9562 45.867 13.9601 45.8208 14.3245L45.8188 14.3265Z" fill="#343434"/>
<path d="M70.4909 72.8496C70.3212 69.047 69.0717 65.1037 66.185 62.4523C63.3081 59.8125 59.7716 58.1465 55.7878 58.1465C52.018 58.1465 48.0573 59.7874 45.3905 62.4523C43.9559 63.7848 42.9435 65.3621 42.3496 67.1843C41.4298 68.9371 41.0075 70.8249 41.0827 72.8496C41.2524 76.6521 42.502 80.5955 45.3886 83.2468C48.2656 85.8886 51.802 87.5527 55.7858 87.5527C59.5556 87.5527 63.5163 85.9117 66.1831 83.2468C67.6177 81.9144 68.6301 80.3371 69.224 78.5149C70.1438 76.7621 70.5661 74.8743 70.4909 72.8496Z" fill="#0C4050" stroke="#343434" stroke-width="0.192828" stroke-miterlimit="10"/>
<path d="M47.1949 72.0525C49.1232 74.2372 51.0515 76.4239 52.9797 78.6086C53.564 79.2719 54.854 79.2912 55.4344 78.6086C59.0885 74.3047 62.7426 69.9989 66.3967 65.695C67.4341 64.4724 68.4734 63.2499 69.5109 62.0254C69.8136 61.6687 70.0199 61.2811 70.0199 60.7991C70.0199 60.3729 69.8309 59.8658 69.5109 59.5727C69.1908 59.2796 68.7453 59.0443 68.2845 59.0636C67.8468 59.0829 67.3531 59.2237 67.0581 59.5727C63.404 63.8766 59.7499 68.1824 56.0958 72.4863C55.0584 73.7089 54.0191 74.9314 52.9817 76.1558H55.4364C53.5081 73.9711 51.5798 71.7844 49.6515 69.5997C49.0499 68.9171 47.8042 68.9383 47.1968 69.5997C46.5277 70.3286 46.5547 71.3255 47.1968 72.0544L47.1949 72.0525Z" fill="#343434"/>
<path d="M55.7476 87.9874C64.0543 87.9874 70.7881 81.2535 70.7881 72.9468C70.7881 64.6401 64.0543 57.9062 55.7476 57.9062C47.4409 57.9062 40.707 64.6401 40.707 72.9468C40.707 81.2535 47.4409 87.9874 55.7476 87.9874Z" stroke="#343434" stroke-width="3.27807" stroke-miterlimit="10"/>
<path d="M30.2041 3.20312C26.6484 3.20312 26.6426 8.05852 30.2041 8.05852C33.7657 8.05852 33.7657 3.20312 30.2041 3.20312Z" fill="white"/>
</svg>
