<svg width="81" height="80" viewBox="0 0 81 80" fill="none" xmlns="http://www.w3.org/2000/svg">
<path d="M62.208 7.7678C53.4045 1.96264 43.9115 3.09093 36.7865 3.93716C29.2158 4.83562 15.5683 6.45841 8.23084 17.8667C3.8256 24.7166 1.79188 34.9375 5.79316 43.2883C8.97955 49.9362 15.119 53.5822 20.071 56.5214C24.4031 59.0914 28.3765 60.5505 31.2147 61.3967C31.6778 65.2274 32.1445 69.058 32.6076 72.8886C36.9014 69.058 41.1987 65.2274 45.4925 61.3967C48.066 61.5743 52.0951 61.5256 56.6362 60.0038C57.5729 59.6904 70.2315 55.219 74.7446 42.5918C79.4911 29.3169 72.5298 14.5724 62.208 7.7678Z" fill="#0C4050" stroke="#0C4050" stroke-width="0.833333" stroke-miterlimit="10"/>
<path d="M28.9523 60.8737C28.8617 64.3596 28.5831 67.835 28.1269 71.293L28.2384 70.4607C27.9876 72.3343 27.6812 74.2043 27.3225 76.0604C27.1867 76.7743 27.1936 77.422 27.4792 78.1011C27.7334 78.7036 28.1687 79.2851 28.7607 79.5985C29.997 80.2497 31.5431 80.1244 32.56 79.1075C37.6687 73.9988 42.7739 68.8936 47.8826 63.785C47.1443 64.0914 46.406 64.3979 45.6678 64.7043C49.4636 64.8854 53.3604 64.4257 56.9821 63.2591C60.8963 61.9985 64.3996 59.9787 67.6104 57.4331C70.5112 55.1312 73.0046 52.3209 75.0453 49.239C77.0859 46.1571 78.6809 42.5911 79.5097 38.9485C80.4151 34.9681 80.4778 30.8902 79.649 26.889C78.9351 23.4449 77.469 20.1018 75.5433 17.1661C72.7225 12.8653 68.9546 9.18793 64.6468 6.3846C58.7372 2.54003 51.7515 0.586402 44.7589 0.109313C38.0204 -0.350363 31.0556 0.645606 24.7177 2.98578C21.5278 4.16283 18.4284 5.6324 15.5868 7.5129C13.2989 9.02774 11.1746 10.7863 9.21749 12.7086C7.26039 14.6309 5.31721 16.9641 3.82326 19.4088C1.76865 22.7762 0.518469 26.5129 0.117993 30.434C-0.282483 34.3552 0.354797 38.1859 1.75124 41.717C3.00838 44.8964 4.71824 47.7903 7.02359 50.3394C9.52395 53.1045 12.6546 55.281 15.8724 57.1301C19.3687 59.136 22.9765 60.9503 26.7444 62.3885C28.2244 62.9527 29.7288 63.4541 31.2506 63.8929C32.7724 64.3317 34.733 63.3392 35.1057 61.7025C35.4783 60.0658 34.6042 58.3315 32.9152 57.8475C30.7944 57.2381 28.712 56.5033 26.6782 55.6501L27.427 55.967C24.9579 54.9223 22.5795 53.6825 20.2323 52.3906C18.1638 51.2518 16.144 50.0295 14.2705 48.5878L14.9043 49.0788C13.2048 47.759 11.6517 46.265 10.3249 44.5656L10.8159 45.1994C9.54485 43.5522 8.5071 41.7414 7.69221 39.8296L8.0091 40.5783C7.19422 38.6421 6.63008 36.6118 6.348 34.5293L6.45944 35.3616C6.21916 33.4951 6.21568 31.6146 6.46293 29.748L6.35149 30.5803C6.61267 28.6894 7.12807 26.8541 7.86633 25.092L7.54943 25.8408C8.44093 23.7374 9.6319 21.7803 11.0283 19.9729L10.5373 20.6067C12.4701 18.1203 14.7824 15.8637 17.2723 13.9379L16.6385 14.4289C19.2816 12.3952 22.1964 10.748 25.2644 9.44911L24.5157 9.76601C28.2697 8.185 32.2292 7.12983 36.2618 6.5831L35.4295 6.69453C39.4795 6.15476 43.5957 6.1269 47.6492 6.67364L46.8169 6.5622C50.2785 7.0358 53.6738 7.9273 56.895 9.28543L56.1463 8.96854C58.7999 10.0968 61.3072 11.5385 63.5951 13.2937L62.9613 12.8027C65.3154 14.624 67.4571 16.7204 69.2784 19.0779L68.7874 18.4441C70.2744 20.3804 71.535 22.4802 72.4892 24.7264L72.1723 23.9777C73.0115 25.9801 73.5966 28.0765 73.8891 30.2321L73.7777 29.3998C74.0563 31.538 74.0493 33.6936 73.7672 35.8318L73.8787 34.9995C73.5583 37.3466 72.914 39.6345 72.0016 41.8215L72.3186 41.0728C71.2773 43.5383 69.9087 45.8506 68.2755 47.9714L68.7665 47.3376C67.0566 49.542 65.0786 51.5269 62.8743 53.2403L63.5081 52.7493C61.457 54.3303 59.2282 55.6675 56.8463 56.6809L57.595 56.364C55.3036 57.3286 52.9007 57.9763 50.4386 58.3176L51.2709 58.2062C49.8606 58.3942 48.4363 58.4848 47.012 58.4743C46.7369 58.4743 46.4617 58.4673 46.1901 58.4569C46.0473 58.4534 45.9011 58.443 45.7583 58.4395C44.8424 58.4186 44.0415 58.7912 43.3868 59.4146C42.6555 60.111 41.9555 60.8458 41.2416 61.5597C38.4627 64.3387 35.6837 67.1176 32.9048 69.8966C31.3098 71.4915 29.7184 73.083 28.1234 74.6779C29.8681 75.6948 31.6163 76.7116 33.361 77.7285C34.4301 72.1741 35.0639 66.5291 35.2136 60.8772C35.2554 59.237 33.7406 57.6699 32.0794 57.743C30.4183 57.8161 28.9906 59.1186 28.9453 60.8772L28.9523 60.8737Z" fill="#343434"/>
<path d="M25.2239 34.3008C19.8889 34.3008 19.8785 42.5924 25.2239 42.5924C30.5694 42.5924 30.5694 34.3008 25.2239 34.3008Z" fill="white"/>
<path d="M39.5013 34.3008C34.1663 34.3008 34.1558 42.5924 39.5013 42.5924C44.8468 42.5924 44.8468 34.3008 39.5013 34.3008Z" fill="white"/>
<path d="M52.388 34.3008C47.053 34.3008 47.0425 42.5924 52.388 42.5924C57.7335 42.5924 57.7335 34.3008 52.388 34.3008Z" fill="white"/>
</svg>
