<svg width="112" height="103" viewBox="0 0 112 103" fill="none" xmlns="http://www.w3.org/2000/svg">
<path d="M79.7213 2.10602C79.9684 31.1928 80.2156 60.2771 80.4628 89.3639C71.4824 89.2823 62.4996 89.1983 53.5192 89.1167V67.6112C49.5518 67.327 45.3421 67.149 40.9125 67.1169C36.9377 67.0897 33.1433 67.1811 29.5418 67.364L28.8002 89.6111C20.1486 89.5295 11.497 89.4455 2.84532 89.3639C2.89229 74.6957 2.80824 60.0275 2.59813 45.3642C2.39049 31.0272 2.06173 16.6902 1.60938 2.35321C13.8008 1.92557 26.3308 1.66849 39.1822 1.61164C53.0742 1.54984 66.5955 1.72782 79.7213 2.10602Z" fill="white"/>
<path d="M4.29421 4.29677L4.06185 4.46485C4.13353 4.41542 4.20522 4.37339 4.28432 4.33384L3.96792 4.4698C4.03219 4.44755 4.09893 4.43025 4.16567 4.41542C4.49937 4.31654 3.51803 4.42283 3.95803 4.45497C4.59578 4.49946 5.24836 4.45991 5.88858 4.46238C7.17644 4.46733 8.46182 4.4698 9.74968 4.47474C12.3229 4.48216 14.8962 4.49205 17.4719 4.49946C22.6184 4.51676 27.7673 4.53407 32.9138 4.55137C43.1499 4.58598 53.386 4.62058 63.6222 4.65272C66.1954 4.66013 68.7686 4.67002 71.3444 4.67744C72.6322 4.68238 73.9176 4.68485 75.2055 4.6898C75.8482 4.6898 76.4933 4.69474 77.136 4.69721C77.4277 4.69721 77.7218 4.69721 78.0135 4.69968H78.189C78.4733 4.70957 78.4239 4.69474 78.0407 4.65519C78.0704 4.68485 78.4189 4.76395 78.4313 4.75901L78.1445 4.64778C78.3423 4.77384 78.3027 4.73924 78.0259 4.54396C78.0358 4.55137 78.0407 4.56126 78.0506 4.56867C78.2459 4.74912 77.6774 4.00755 77.8553 4.31407C77.8949 4.38575 77.9517 4.52665 78.0086 4.58103L77.9443 4.43025C77.8677 4.23497 77.8578 4.23002 77.9171 4.41047C77.3115 3.97789 77.9567 4.56373 77.9517 4.55879C77.9591 4.56373 77.8776 3.95564 77.8776 4.00755C77.8776 4.08171 77.8899 4.15834 77.8924 4.23497C77.9072 4.53407 77.9122 4.83317 77.9196 5.13474C77.9814 8.01697 77.9789 10.9041 77.9888 13.7864C78.0036 18.7104 78.0061 23.6344 78.0036 28.5584C78.0036 34.5305 77.9938 40.5051 77.9814 46.4772C77.969 52.6273 77.9567 58.7773 77.9394 64.9274C77.9245 70.2494 77.9097 75.5714 77.8924 80.8934C77.885 82.9772 77.8801 85.061 77.8726 87.1448C77.8726 87.3574 77.8677 87.57 77.8726 87.7825C77.8726 87.8122 77.8702 87.8443 77.8726 87.874C77.885 88.1953 78.0086 87.2214 77.9048 87.5897C77.8009 87.958 78.1421 87.1572 77.9913 87.4019C77.9097 87.5428 77.9666 87.4785 78.1618 87.2016C77.9987 87.3598 78.0383 87.3326 78.283 87.1225L78.5796 87.0064C78.5104 87.0311 78.4387 87.0508 78.3645 87.0657C78.8614 86.8136 78.9009 87.0286 78.7057 87.0138C78.4461 86.994 78.1742 87.0187 77.9146 87.0212C77.272 87.0286 76.6317 87.0336 75.989 87.041C73.4232 87.0682 70.8549 87.0929 68.2891 87.1201C65.7233 87.1473 63.155 87.172 60.5891 87.1992C59.3062 87.2115 58.0233 87.2264 56.7379 87.2387C56.157 87.2437 55.5687 87.2214 54.9878 87.256C54.4069 87.2906 55.3907 87.4043 55.1213 87.3203C55.057 87.3005 54.9854 87.2758 54.9211 87.2634C54.6912 87.2189 55.4402 87.5675 55.0991 87.3228C55.366 87.5502 55.4081 87.5798 55.2227 87.4142C55.1979 87.3895 55.1707 87.3623 55.1485 87.3351C55.1485 87.2857 55.4995 87.8987 55.3413 87.5798C55.2671 87.4315 55.1386 87.0978 55.3636 87.6837C55.2103 87.2882 55.3265 88.0248 55.3858 87.7356C55.413 87.5996 55.3932 87.434 55.3957 87.298C55.4105 86.596 55.4278 85.894 55.4427 85.192C55.4723 83.9338 55.4995 82.6781 55.5292 81.4199C55.586 78.8763 55.6454 76.3327 55.7022 73.7891C55.7591 71.2456 55.8159 68.7613 55.8728 66.2449C55.9 65.0436 54.8321 64.0202 53.6481 64.0202H29.6707C28.457 64.0202 27.4583 65.0386 27.446 66.2449C27.3965 70.8006 27.3446 75.3539 27.2952 79.9096C27.2705 82.1862 27.2458 84.4652 27.2186 86.7419C27.2136 87.2956 27.1864 87.8518 27.2013 88.4055C27.2013 88.3758 27.2013 88.5612 27.1963 88.5612C27.1469 88.5637 27.3446 87.8888 27.2433 88.1657C27.2136 88.2448 27.1098 88.5414 27.2581 88.1657C27.3496 87.9655 27.352 87.9383 27.2655 88.0891C27.3347 87.9407 27.4361 87.8221 27.5671 87.7331C27.6536 87.6639 28.1851 87.4711 27.8439 87.5551C28.7264 87.3376 28.3186 87.5205 28.1875 87.5032C27.9156 87.4637 27.5869 87.5106 27.3125 87.5131C26.7291 87.518 26.1433 87.5255 25.5599 87.5304C21.0042 87.5774 16.446 87.6268 11.8903 87.6738C9.61125 87.6985 7.33464 87.7207 5.05555 87.7455C4.91465 87.7455 4.77376 87.7529 4.63286 87.7504C4.36589 87.7455 4.27937 87.6268 4.88993 87.8023C4.83555 87.7875 4.45735 87.7455 4.44499 87.6886C4.4351 87.6441 4.99128 87.9951 4.67982 87.7801C4.27196 87.4983 4.74162 87.7949 4.73421 87.8493L4.64027 87.7578C4.52162 87.6243 4.51915 87.6243 4.63286 87.7578L4.7169 87.8592C4.60072 87.6416 4.61555 87.696 4.7614 88.0198C4.75151 87.958 4.71443 87.8493 4.68971 87.785C4.54881 87.4019 4.71196 88.2695 4.71196 88.0248C4.71196 87.5823 4.70454 87.1374 4.70207 86.6949C4.67488 77.6156 4.64769 68.5364 4.6205 59.4571C4.59331 50.3778 4.56611 41.2986 4.53892 32.2193C4.51173 23.1104 4.48454 14.0039 4.45735 4.89497C4.45735 4.58845 4.46477 4.27946 4.44252 3.97542C4.4351 3.88149 4.4796 3.59969 4.42027 4.02733C4.35848 4.47721 4.42027 4.12868 4.43758 4.03474C4.46724 3.88396 4.62544 3.71587 4.3387 4.2498C4.54881 3.85677 3.96792 4.63542 4.29668 4.28441C5.09016 3.43408 5.20386 1.97071 4.29668 1.13768C3.38949 0.304654 1.99782 0.228025 1.14996 1.13768C0.361424 1.98307 -0.0390232 3.02868 0.00299905 4.18306C0.0450213 5.33743 0.0104117 6.52889 0.0153555 7.69809C0.0227712 10.034 0.0301873 12.37 0.0351311 14.7034C0.0499625 19.4322 0.0623215 24.1609 0.0771529 28.8921C0.104344 38.3224 0.134009 47.7502 0.1612 57.1805C0.188391 66.6108 0.218053 76.0386 0.245244 85.4688C0.247716 86.554 0.158726 87.6812 0.351533 88.754C0.578948 90.0072 1.4713 91.1764 2.62568 91.7153C3.56747 92.1528 4.47465 92.1973 5.48813 92.1875C6.68453 92.1751 7.8834 92.1627 9.07979 92.1504C13.7813 92.1009 18.4854 92.0515 23.1869 92.0021C24.3833 91.9897 25.5822 91.9773 26.7786 91.965C27.2804 91.96 27.7871 91.9749 28.2864 91.9452C29.201 91.8908 30.039 91.5398 30.6817 90.8773C31.6185 89.9108 31.6408 88.6897 31.6531 87.4389C31.6655 86.2722 31.6779 85.103 31.6927 83.9363C31.7446 79.2075 31.799 74.4763 31.8509 69.7476C31.8632 68.5809 31.8756 67.4117 31.8904 66.2449L29.6657 68.4696H53.6431L51.4184 66.2449C51.2998 71.5076 51.1786 76.7702 51.06 82.0329C51.0303 83.3776 50.9982 84.7223 50.9685 86.067C50.9562 86.6504 50.9216 87.2387 50.929 87.8221C50.9413 88.8108 51.3072 89.6834 51.9474 90.4225C52.4047 90.949 53.0326 91.3124 53.6851 91.5349C54.2982 91.745 54.9557 91.7005 55.5934 91.6955C56.906 91.6832 58.2186 91.6684 59.5312 91.656C64.7815 91.6016 70.0318 91.5472 75.2821 91.4929C76.4414 91.4805 77.6131 91.5176 78.7699 91.4558C80.7005 91.352 82.1342 89.9108 82.3023 88.005C82.3838 87.0731 82.322 86.1115 82.3245 85.1747C82.3418 80.1913 82.3566 75.2105 82.3715 70.2271C82.3888 64.082 82.4061 57.9344 82.4184 51.7893C82.4308 45.6441 82.4432 39.3037 82.4481 33.0622C82.453 27.6611 82.453 22.2576 82.4432 16.8565C82.4357 13.3414 82.4333 9.82887 82.3863 6.31383C82.3764 5.58462 82.3814 4.85294 82.3344 4.12621C82.2256 2.47498 81.3011 1.11296 79.7389 0.512294C79.074 0.257689 78.3645 0.242859 77.66 0.240388C76.9556 0.237916 76.256 0.235444 75.554 0.232972C74.2661 0.228028 72.9808 0.225556 71.6929 0.220612C61.1651 0.186005 50.6348 0.151399 40.107 0.116793C29.6361 0.0821863 19.1651 0.0475802 8.69665 0.0129737C7.4088 0.00802988 6.12341 0.00555723 4.83555 0.000613438C4.23488 0.000613438 3.66882 -0.014217 3.07309 0.101962C2.33647 0.245332 1.69872 0.648251 1.14996 1.1451C0.284795 1.92869 0.294683 3.50576 1.14996 4.29182C2.07445 5.13968 3.37219 5.12732 4.29668 4.29182L4.29421 4.29677Z" fill="#343434"/>
<path d="M15.2754 18.1486C18.835 18.198 22.397 18.2475 25.9565 18.2969L23.7318 16.0722V27.4429L25.9565 25.2182H15.3274L17.5521 27.4429C17.5348 23.6041 17.5175 19.7652 17.5002 15.9239C17.4952 14.7596 16.4817 13.6448 15.2754 13.6992C14.0692 13.7536 13.0458 14.6756 13.0507 15.9239C13.068 19.7627 13.0853 23.6016 13.1027 27.4429C13.1076 28.6467 14.1186 29.6676 15.3274 29.6676H25.9565C27.1603 29.6676 28.1812 28.6492 28.1812 27.4429V16.0722C28.1812 14.8585 27.1628 13.8648 25.9565 13.8475C22.397 13.7981 18.835 13.7486 15.2754 13.6992C14.1112 13.6819 12.9964 14.7349 13.0507 15.9239C13.1051 17.1129 14.0271 18.1313 15.2754 18.1486Z" fill="#343434"/>
<path d="M35.793 18.1486C39.3526 18.198 42.9145 18.2475 46.4741 18.2969L44.2494 16.0722V27.4429L46.4741 25.2182H35.8449L38.0696 27.4429C38.0523 23.6041 38.035 19.7652 38.0177 15.9239C38.0128 14.7596 36.9993 13.6448 35.793 13.6992C34.5867 13.7536 33.5634 14.6756 33.5683 15.9239C33.5856 19.7627 33.6029 23.6016 33.6202 27.4429C33.6252 28.6467 34.6362 29.6676 35.8449 29.6676H46.4741C47.6779 29.6676 48.6988 28.6492 48.6988 27.4429V16.0722C48.6988 14.8585 47.6804 13.8648 46.4741 13.8475C42.9145 13.7981 39.3526 13.7486 35.793 13.6992C34.6288 13.6819 33.5139 14.7349 33.5683 15.9239C33.6227 17.1129 34.5447 18.1313 35.793 18.1486Z" fill="#343434"/>
<path d="M56.5586 18.3966C60.1182 18.4461 63.6802 18.4955 67.2397 18.5449L65.015 16.3202V27.691L67.2397 25.4663H56.6106L58.8353 27.691C58.818 23.8521 58.8007 20.0133 58.7834 16.1719C58.7784 15.0077 57.7649 13.8928 56.5586 13.9472C55.3524 14.0016 54.329 14.9236 54.3339 16.1719C54.3512 20.0108 54.3685 23.8496 54.3859 27.691C54.3908 28.8948 55.4018 29.9157 56.6106 29.9157H67.2397C68.4435 29.9157 69.4644 28.8972 69.4644 27.691V16.3202C69.4644 15.1065 68.446 14.1128 67.2397 14.0955C63.6802 14.0461 60.1182 13.9967 56.5586 13.9472C55.3944 13.9299 54.2796 14.9829 54.3339 16.1719C54.3883 17.3609 55.3103 18.3793 56.5586 18.3966Z" fill="#343434"/>
<path d="M15.5254 39.4064C19.085 39.4558 22.647 39.5053 26.2065 39.5547L23.9818 37.33V48.7007L26.2065 46.476H15.5774L17.8021 48.7007C17.7848 44.8619 17.7675 41.023 17.7502 37.1817C17.7452 36.0174 16.7317 34.9026 15.5254 34.957C14.3192 35.0114 13.2958 35.9334 13.3007 37.1817C13.318 41.0205 13.3353 44.8594 13.3527 48.7007C13.3576 49.9045 14.3686 50.9254 15.5774 50.9254H26.2065C27.4103 50.9254 28.4312 49.907 28.4312 48.7007V37.33C28.4312 36.1163 27.4128 35.1226 26.2065 35.1053C22.647 35.0559 19.085 35.0064 15.5254 34.957C14.3612 34.9397 13.2464 35.9927 13.3007 37.1817C13.3551 38.3707 14.2771 39.3891 15.5254 39.4064Z" fill="#343434"/>
<path d="M36.0411 39.4064C39.6006 39.4558 43.1626 39.5053 46.7221 39.5547L44.4974 37.33V48.7007L46.7221 46.476H36.093L38.3177 48.7007C38.3004 44.8619 38.2831 41.023 38.2658 37.1817C38.2608 36.0174 37.2474 34.9026 36.0411 34.957C34.8348 35.0114 33.8114 35.9334 33.8164 37.1817C33.8337 41.0205 33.851 44.8594 33.8683 48.7007C33.8732 49.9045 34.8842 50.9254 36.093 50.9254H46.7221C47.9259 50.9254 48.9468 49.907 48.9468 48.7007V37.33C48.9468 36.1163 47.9284 35.1226 46.7221 35.1053C43.1626 35.0559 39.6006 35.0064 36.0411 34.957C34.8768 34.9397 33.762 35.9927 33.8164 37.1817C33.8707 38.3707 34.7928 39.3891 36.0411 39.4064Z" fill="#343434"/>
<path d="M56.8047 39.6544C60.3643 39.7039 63.9263 39.7533 67.4858 39.8028L65.2611 37.5781V48.9488L67.4858 46.7241H56.8566L59.0814 48.9488C59.0641 45.1099 59.0468 41.2711 59.0294 37.4297C59.0245 36.2655 58.011 35.1507 56.8047 35.205C55.5985 35.2594 54.5751 36.1814 54.58 37.4297C54.5973 41.2686 54.6146 45.1074 54.6319 48.9488C54.6369 50.1526 55.6479 51.1735 56.8566 51.1735H67.4858C68.6896 51.1735 69.7105 50.1551 69.7105 48.9488V37.5781C69.7105 36.3644 68.6921 35.3707 67.4858 35.3534C63.9263 35.3039 60.3643 35.2545 56.8047 35.205C55.6405 35.1877 54.5257 36.2408 54.58 37.4297C54.6344 38.6187 55.5564 39.6371 56.8047 39.6544Z" fill="#343434"/>
<path d="M108.644 77.4028C108.389 71.7029 106.516 65.792 102.189 61.8176C97.8768 57.8606 92.5757 55.3633 86.6041 55.3633C80.9533 55.3633 75.0163 57.823 71.0188 61.8176C68.8684 63.8149 67.3509 66.1793 66.4606 68.9107C65.0819 71.5382 64.4489 74.3679 64.5616 77.4028C64.816 83.1028 66.689 89.0137 71.0159 92.9881C75.3285 96.948 80.6295 99.4424 86.6012 99.4424C92.252 99.4424 98.1889 96.9826 102.186 92.9881C104.337 90.9908 105.854 88.6264 106.745 85.8949C108.123 83.2675 108.756 80.4378 108.644 77.4028Z" fill="#0C4050" stroke="#343434" stroke-width="0.289043" stroke-miterlimit="10"/>
<path d="M73.7245 76.204C76.6149 79.4789 79.5054 82.7567 82.3958 86.0315C83.2716 87.0258 85.2053 87.0547 86.0753 86.0315C91.5527 79.5801 97.0301 73.1257 102.507 66.6743C104.062 64.8418 105.62 63.0092 107.175 61.1738C107.629 60.6391 107.939 60.0581 107.939 59.3355C107.939 58.6967 107.655 57.9365 107.175 57.4972C106.696 57.0578 106.028 56.7052 105.337 56.7341C104.681 56.763 103.941 56.974 103.499 57.4972C98.0215 63.9486 92.5441 70.4029 87.0667 76.8544C85.5117 78.6869 83.9537 80.5195 82.3987 82.3549H86.0782C83.1878 79.08 80.2973 75.8023 77.4069 72.5274C76.5051 71.5042 74.6379 71.536 73.7274 72.5274C72.7244 73.62 72.7649 75.1144 73.7274 76.2069L73.7245 76.204Z" fill="#343434"/>
<path d="M86.5454 100.091C98.9969 100.091 109.091 89.9969 109.091 77.5454C109.091 65.0939 98.9969 55 86.5454 55C74.0939 55 64 65.0939 64 77.5454C64 89.9969 74.0939 100.091 86.5454 100.091Z" stroke="#343434" stroke-width="4.91374" stroke-miterlimit="10"/>
</svg>
