<svg width="71" height="76" viewBox="0 0 71 76" fill="none" xmlns="http://www.w3.org/2000/svg">
<path d="M67.6394 73.8154C67.8401 59.2991 68.0408 44.7809 68.2415 30.2646C64.2938 28.2577 60.3482 26.2507 56.4005 24.2438C54.7428 26.6521 51.0078 31.3083 44.5595 33.8771C42.1833 34.8244 39.9716 35.274 38.1373 35.4827C35.5283 37.8248 32.9192 40.1649 30.3102 42.507C30.5109 39.91 30.7116 37.311 30.9103 34.714C28.7287 34.3167 25.2828 33.3995 21.6803 31.0674C16.7513 27.8784 14.1824 23.7581 13.0505 21.6348C9.17102 24.4445 5.28959 27.2542 1.41016 30.0639C1.54462 44.7147 1.67708 59.3654 1.81155 74.0161C23.7535 73.9499 45.6975 73.8816 67.6394 73.8154Z" fill="white" stroke="white" stroke-width="0.667123" stroke-miterlimit="10"/>
<path d="M47.6707 4.477C42.5972 1.13142 37.1262 1.78167 33.02 2.26936C28.6569 2.78715 20.7917 3.72239 16.5631 10.2972C14.0243 14.2448 12.8522 20.1352 15.1582 24.9479C16.9946 28.7791 20.5328 30.8804 23.3867 32.5743C25.8833 34.0554 28.1733 34.8963 29.8089 35.384C30.0758 37.5916 30.3448 39.7993 30.6117 42.0069C33.0863 39.7993 35.5628 37.5916 38.0374 35.384C39.5205 35.4863 41.8426 35.4583 44.4596 34.5812C44.9995 34.4006 52.2948 31.8237 54.8958 24.5465C57.6312 16.896 53.6193 8.39858 47.6707 4.477Z" fill="#0C4050" stroke="#0C4050" stroke-width="0.667123" stroke-miterlimit="10"/>
<path d="M11.6724 20.2593C8.81246 22.6918 5.95256 25.1242 3.09266 27.5566C2.74144 27.8556 2.39022 28.1547 2.03901 28.4517C1.68779 28.7487 1.27436 29.0538 0.935187 29.391C0.335109 29.989 0.405354 30.8199 0.397326 31.5966C0.393312 32.0823 0.389297 32.568 0.383276 33.0556C0.365214 34.9562 0.347152 36.8568 0.331097 38.7554C0.260853 46.2674 0.192615 53.7794 0.122372 61.2914C0.0822333 65.5341 0.0441021 69.7768 0.00396313 74.0174C-0.00406466 74.9908 0.838853 75.8257 1.81022 75.8237C10.3919 75.7976 18.9756 75.7715 27.5573 75.7454C36.0949 75.7193 44.6345 75.6932 53.172 75.6671C57.9947 75.6531 62.8154 75.637 67.6381 75.623C68.6235 75.621 69.4303 74.7981 69.4443 73.8167C69.5487 66.2044 69.6551 58.592 69.7594 50.9797C69.8116 47.1725 69.8638 43.3673 69.918 39.5602C69.9441 37.6796 69.9702 35.7991 69.9963 33.9166C70.0103 32.9653 70.0224 32.014 70.0364 31.0627C70.0404 30.842 70.0484 30.6192 70.0464 30.3984C70.0344 29.6539 69.7474 29.1341 69.1533 28.7066C68.7419 28.4096 68.3044 28.1426 67.8809 27.8617C64.3246 25.5015 60.7683 23.1393 57.212 20.7791C56.4233 20.2553 55.179 20.5985 54.7414 21.4274C54.2618 22.3345 54.5468 23.34 55.3897 23.8979C59.3695 26.5411 63.3512 29.1822 67.331 31.8254L66.4359 30.266C66.3577 35.9316 66.2794 41.5972 66.2011 47.2608C66.1229 52.9264 66.0446 58.592 65.9663 64.2556C65.9222 67.4427 65.878 70.6297 65.8338 73.8147L67.6401 72.0085C59.0584 72.0346 50.4747 72.0607 41.893 72.0868C33.3554 72.1128 24.8159 72.1389 16.2783 72.165C11.4556 72.1791 6.63492 72.1951 1.81222 72.2092L3.61847 74.0154C3.67066 68.3819 3.72284 62.7464 3.77502 57.1129C3.8272 51.4794 3.87938 45.8439 3.93156 40.2104C3.96167 37.0294 3.98976 33.8464 4.01986 30.6654L3.49003 31.9418C7.06842 28.8972 10.6488 25.8547 14.2272 22.8102C14.9497 22.1961 14.9055 20.8795 14.2272 20.2553C13.4585 19.5489 12.443 19.5991 11.6724 20.2553V20.2593Z" fill="#343434"/>
<path d="M1.5618 41.7323C4.63243 43.8356 7.70105 45.9389 10.7717 48.0421C13.8423 50.1454 16.9109 52.2487 19.9816 54.352C21.7156 55.5401 23.4516 56.7282 25.1856 57.9163C25.5569 58.1692 26.1569 58.2134 26.5784 58.099C26.9999 57.9846 27.4514 57.6594 27.6581 57.2681C27.8789 56.8486 27.9913 56.3409 27.8408 55.8753C27.6902 55.4097 27.4153 55.0725 27.0099 54.7955C23.9393 52.6922 20.8706 50.589 17.8 48.4857C14.7294 46.3824 11.6608 44.2791 8.59013 42.1758C6.85612 40.9877 5.12011 39.7996 3.38611 38.6115C3.01483 38.3586 2.41475 38.3145 1.99329 38.4289C1.57183 38.5433 1.12027 38.8684 0.913553 39.2597C0.692789 39.6792 0.580399 40.187 0.73092 40.6526C0.881441 41.1182 1.15639 41.4553 1.5618 41.7323Z" fill="#343434"/>
<path d="M67.1296 39.1417C64.0268 41.2028 60.9221 43.2619 57.8193 45.3231C54.7166 47.3842 51.6118 49.4433 48.5091 51.5045C46.755 52.6685 45.001 53.8325 43.2489 54.9966C42.8555 55.2575 42.5465 55.6127 42.418 56.0763C42.2996 56.5078 42.3518 57.0838 42.6006 57.4691C43.1064 58.2538 44.2303 58.6753 45.0712 58.1174C48.1739 56.0562 51.2787 53.9971 54.3814 51.936C57.4842 49.8748 60.5889 47.8157 63.6917 45.7546C65.4457 44.5905 67.1998 43.4265 68.9519 42.2625C69.3452 42.0016 69.6543 41.6464 69.7827 41.1827C69.9012 40.7513 69.849 40.1753 69.6001 39.7899C69.0944 39.0052 67.9705 38.5838 67.1296 39.1417Z" fill="#343434"/>
<path d="M2.72244 75.5769C7.05945 72.6507 11.3965 69.7246 15.7335 66.7985C20.0524 63.8844 24.3714 60.9703 28.6903 58.0562C31.1408 56.4025 33.5893 54.7508 36.0398 53.097H34.2175C38.4441 55.9931 42.6707 58.8891 46.8974 61.7851C51.124 64.6811 55.3506 67.5772 59.5772 70.4732C61.9615 72.1068 64.3457 73.7405 66.73 75.3742C67.5107 75.91 68.7671 75.5468 69.2006 74.7259C69.6862 73.8087 69.3872 72.8253 68.5523 72.2554C64.3257 69.3593 60.099 66.4633 55.8724 63.5673C51.6458 60.6713 47.4192 57.7752 43.1925 54.8792C40.8083 53.2456 38.424 51.6119 36.0398 49.9782C35.542 49.6371 34.7152 49.6431 34.2175 49.9782C29.8804 52.9044 25.5434 55.8305 21.2064 58.7566C16.8875 61.6707 12.5685 64.5848 8.24957 67.4989C5.79909 69.1526 3.35061 70.8043 0.900131 72.4581C0.117421 72.9859 -0.300026 74.0736 0.251885 74.9286C0.753622 75.7073 1.88554 76.1408 2.72244 75.5769Z" fill="#343434"/>
<path d="M28.5058 35.0822C28.4537 37.0912 28.2931 39.0941 28.0302 41.087L28.0944 40.6074C27.9499 41.6871 27.7733 42.7648 27.5666 43.8345C27.4883 44.2459 27.4923 44.6192 27.6569 45.0106C27.8034 45.3578 28.0543 45.693 28.3955 45.8736C29.1079 46.2489 29.999 46.1766 30.585 45.5906C33.5292 42.6464 36.4714 39.7042 39.4156 36.76C38.9901 36.9366 38.5647 37.1133 38.1392 37.2899C40.3268 37.3942 42.5725 37.1293 44.6598 36.457C46.9156 35.7305 48.9346 34.5664 50.785 33.0994C52.4567 31.7728 53.8937 30.1532 55.0698 28.377C56.2459 26.6009 57.165 24.5458 57.6427 22.4465C58.1645 20.1525 58.2006 17.8024 57.723 15.4964C57.3115 13.5116 56.4666 11.5849 55.3568 9.89303C53.7312 7.41445 51.5596 5.29511 49.077 3.67952C45.6713 1.46385 41.6453 0.33795 37.6154 0.0629985C33.7319 -0.201919 29.718 0.37207 26.0654 1.72074C24.227 2.39909 22.4408 3.24602 20.8032 4.32977C19.4846 5.20279 18.2604 6.2163 17.1325 7.32414C16.0046 8.43197 14.8847 9.77662 14.0237 11.1855C12.8396 13.1262 12.1191 15.2797 11.8883 17.5395C11.6575 19.7993 12.0248 22.007 12.8296 24.042C13.5541 25.8743 14.5395 27.5421 15.8681 29.0112C17.3091 30.6047 19.1133 31.8591 20.9677 32.9248C22.9827 34.0808 25.0619 35.1264 27.2334 35.9552C28.0864 36.2804 28.9534 36.5694 29.8304 36.8223C30.7075 37.0751 31.8374 36.5031 32.0521 35.5599C32.2669 34.6166 31.7631 33.6172 30.7897 33.3382C29.5675 32.987 28.3674 32.5635 27.1953 32.0718L27.6268 32.2544C26.2039 31.6524 24.8331 30.9379 23.4804 30.1933C22.2883 29.537 21.1243 28.8326 20.0445 28.0017L20.4098 28.2847C19.4304 27.5241 18.5353 26.6631 17.7707 25.6837L18.0537 26.049C17.3211 25.0997 16.7231 24.0561 16.2534 22.9542L16.4361 23.3857C15.9664 22.2699 15.6413 21.0998 15.4787 19.8997L15.543 20.3793C15.4045 19.3036 15.4025 18.2199 15.545 17.1441L15.4808 17.6238C15.6313 16.534 15.9283 15.4764 16.3538 14.4608L16.1711 14.8923C16.6849 13.6801 17.3713 12.5522 18.1761 11.5106L17.8931 11.8759C19.007 10.4429 20.3396 9.14243 21.7745 8.03259L21.4093 8.31557C22.9325 7.14351 24.6124 6.19422 26.3805 5.44563L25.949 5.62827C28.1125 4.71711 30.3944 4.10901 32.7184 3.79392L32.2388 3.85814C34.5728 3.54706 36.945 3.53101 39.2811 3.8461L38.8015 3.78187C40.7964 4.05482 42.7532 4.5686 44.6096 5.35131L44.1781 5.16867C45.7074 5.81892 47.1524 6.6498 48.471 7.6613L48.1057 7.37832C49.4624 8.42796 50.6966 9.63614 51.7463 10.9948L51.4633 10.6296C52.3203 11.7454 53.0468 12.9556 53.5967 14.2501L53.4141 13.8186C53.8977 14.9726 54.2349 16.1808 54.4035 17.4231L54.3393 16.9434C54.4998 18.1757 54.4958 19.418 54.3332 20.6503L54.3975 20.1706C54.2128 21.5233 53.8415 22.8419 53.3157 24.1022L53.4983 23.6707C52.8983 25.0916 52.1095 26.4243 51.1683 27.6465L51.4513 27.2812C50.4659 28.5516 49.3259 29.6956 48.0555 30.683L48.4208 30.4C47.2387 31.3112 45.9542 32.0818 44.5815 32.6659L45.013 32.4832C43.6924 33.0392 42.3076 33.4124 40.8887 33.6091L41.3684 33.5449C40.5555 33.6533 39.7347 33.7055 38.9139 33.6994C38.7553 33.6994 38.5968 33.6954 38.4402 33.6894C38.3579 33.6874 38.2737 33.6814 38.1914 33.6794C37.6635 33.6673 37.2019 33.8821 36.8246 34.2413C36.4032 34.6427 35.9998 35.0662 35.5884 35.4776C33.9868 37.0791 32.3853 38.6807 30.7837 40.2822C29.8645 41.2014 28.9474 42.1186 28.0282 43.0378C29.0337 43.6238 30.0412 44.2098 31.0466 44.7959C31.6628 41.5948 32.028 38.3415 32.1143 35.0842C32.1384 34.139 31.2654 33.2358 30.3081 33.278C29.3508 33.3201 28.5279 34.0707 28.5018 35.0842L28.5058 35.0822Z" fill="#343434"/>
<path d="M26.3571 19.7676C23.2824 19.7676 23.2764 24.5461 26.3571 24.5461C29.4377 24.5461 29.4377 19.7676 26.3571 19.7676Z" fill="white"/>
<path d="M34.5836 19.7676C31.509 19.7676 31.503 24.5461 34.5836 24.5461C37.6643 24.5461 37.6643 19.7676 34.5836 19.7676Z" fill="white"/>
<path d="M42.0114 19.7676C38.9367 19.7676 38.9307 24.5461 42.0114 24.5461C45.092 24.5461 45.092 19.7676 42.0114 19.7676Z" fill="white"/>
</svg>
