<svg width="59" height="100" viewBox="0 0 59 100" fill="none" xmlns="http://www.w3.org/2000/svg">
<path d="M25.6838 88.0426C22.1901 83.0115 18.6965 77.9818 15.2028 72.9507C15.0272 72.8791 13.7975 72.3999 12.5833 73.0561C11.5293 73.6253 10.9096 74.8212 11.0108 76.0959C14.6084 81.0567 18.2074 86.0175 21.8051 90.9783C23.098 90.0002 24.3909 89.0221 25.6824 88.044L25.6838 88.0426Z" fill="white"/>
<path d="M22.8537 92.6553C18.6265 86.507 14.3993 80.3587 10.1721 74.209C7.20259 76.2706 4.23313 78.3308 1.26367 80.3924C5.52603 86.5056 9.7884 92.6202 14.0494 98.7334C16.9837 96.7069 19.918 94.6804 22.8523 92.6553H22.8537Z" fill="#0C4050"/>
<path d="M26.3126 45.0745C25.6479 45.6394 26.2339 46.8508 26.418 48.7424C26.6935 51.5952 25.8334 53.7187 24.1119 57.9656C22.8035 61.1936 22.0474 62.0902 20.8627 64.5678C19.6176 67.1705 18.1111 71.0759 17.2988 76.4105C19.4996 79.3097 21.7003 82.2103 23.9011 85.1095C26.9956 83.121 29.41 81.3868 31.0275 80.1838C34.8809 77.3184 34.3539 77.3619 36.4774 75.9917C39.9064 73.7797 41.5815 73.4748 42.8702 71.2754C43.0908 70.8988 44.4709 68.5435 43.4984 67.2927C43.0726 66.7447 42.3418 66.5971 41.8218 66.5592C43.0135 65.5839 43.3157 63.9902 42.6608 62.8913C41.9567 61.7108 40.4671 61.6377 40.3547 61.6335C42.0916 61.0404 43.244 59.3737 43.185 57.5468C43.126 55.7395 41.8921 54.1642 40.1453 53.6695C42.287 52.5846 43.2777 50.5187 42.7648 49.0586C42.2251 47.5198 40.1495 47.0363 39.8305 46.9619C38.4954 46.6513 37.3796 46.9914 36.8961 47.1712C36.8708 47.642 36.7795 48.3138 36.4774 49.0572C36.022 50.1772 35.3222 50.8926 34.9048 51.2579C34.6954 51.6149 34.1698 52.6211 34.2766 53.9829C34.3904 55.4486 35.1634 56.4057 35.429 56.7078C33.8916 57.9304 32.3541 59.1531 30.8181 60.3757C31.5531 56.8708 31.6838 53.9505 31.6571 51.8861C31.6107 48.4107 31.1104 47.1895 30.2953 46.3309C29.1247 45.0984 27.1024 44.4027 26.3126 45.0731V45.0745Z" fill="white"/>
<path d="M36.3728 41.6152H30.0839C30.0488 42.7676 30.0136 43.9214 29.9785 45.0738C32.1441 45.0386 34.3111 45.0035 36.4768 44.9684C36.4416 43.8511 36.4065 42.7325 36.3714 41.6152H36.3728Z" fill="white"/>
<path d="M30.1895 45.8061C30.7488 46.8952 31.3193 48.3033 31.6566 49.9982C32.5532 54.5065 31.2406 58.2446 30.5042 59.9549C32.1457 58.8714 33.7885 57.7893 35.4299 56.7058C35.1137 56.3432 34.3605 55.3778 34.2776 53.9809C34.1202 51.3641 36.4614 49.7635 36.5837 49.6834C36.4628 48.3399 36.342 46.9978 36.2225 45.6543C34.2115 45.7049 32.2019 45.7541 30.1909 45.8047L30.1895 45.8061Z" fill="#0C4050"/>
<path d="M33.0197 6.40039C9.7025 6.40039 9.66456 41.4057 33.0197 41.4057C56.3749 41.4057 56.3749 6.40039 33.0197 6.40039Z" fill="#0C4050" stroke="#343434" stroke-width="0.140533" stroke-miterlimit="10"/>
<path d="M32.9416 10.9629C15.6644 10.9629 15.6349 36.901 32.9416 36.901C50.2482 36.901 50.2482 10.9629 32.9416 10.9629Z" fill="white"/>
<path d="M20.0317 72.0083C20.0541 71.8088 20.0794 71.6092 20.1061 71.4097L20.0612 71.7455C20.3647 69.5195 20.9283 67.33 21.801 65.2557L21.6731 65.5579C22.1115 64.5207 22.6273 63.5201 23.2077 62.5561C23.7881 61.592 24.4022 60.6842 24.9433 59.7145C25.7162 58.3303 26.3149 56.8631 26.8883 55.3875C27.1342 54.7537 27.3745 54.1157 27.5614 53.4608C27.7582 52.7722 27.879 52.0681 27.9535 51.357C28.0378 50.5518 28.0322 49.7395 27.9577 48.9342C27.8889 48.1922 27.761 47.4572 27.6626 46.7194L27.7076 47.0553C27.6654 46.7405 27.6261 46.4173 27.6668 46.0997L27.6218 46.4356C27.6359 46.3414 27.657 46.2486 27.6935 46.1601L27.5656 46.4623C27.5951 46.3934 27.6317 46.3316 27.6767 46.2725L27.4785 46.5283C27.5164 46.4819 27.5586 46.4398 27.6064 46.4018L27.3506 46.6C27.4124 46.5522 27.4785 46.5143 27.5488 46.4819L27.2466 46.6098C27.3492 46.5677 27.4532 46.541 27.5628 46.5255L27.2269 46.5705C27.39 46.5522 27.5516 46.5578 27.7132 46.5789L27.3773 46.5339C27.6738 46.5775 27.9577 46.6674 28.2332 46.7827L27.931 46.6548C28.3428 46.8319 28.7278 47.0623 29.082 47.3364L28.8262 47.1382C29.1143 47.3659 29.3743 47.6217 29.6005 47.9112L29.4024 47.6554C29.6272 47.9533 29.8113 48.2751 29.9589 48.618L29.831 48.3159C30.0896 48.9356 30.2231 49.5947 30.3145 50.2581L30.2695 49.9222C30.5112 51.7252 30.4086 53.5634 30.1697 55.3608L30.2147 55.0249C30.0053 56.575 29.6863 58.1096 29.2843 59.6218C29.1143 60.2598 29.498 61.0257 30.1683 61.1775C30.8386 61.3292 31.5413 60.9779 31.724 60.2935C32.036 59.1243 32.2974 57.9396 32.4969 56.7465C32.7892 55.001 32.9846 53.2233 32.9256 51.4512C32.8946 50.5419 32.7991 49.6214 32.608 48.7319C32.4014 47.7734 31.9966 46.8937 31.3909 46.1236C30.8499 45.4378 30.0966 44.87 29.3012 44.5117C28.7728 44.2728 28.2894 44.1196 27.7146 44.0493C27.3408 44.0043 26.929 44.031 26.5763 44.1716C26.0872 44.3655 25.6488 44.6648 25.4014 45.1469C25.2089 45.5235 25.1274 45.9198 25.1232 46.3428C25.119 46.7194 25.1836 47.0975 25.2356 47.4685C25.2876 47.8395 25.3466 48.2021 25.3958 48.5703L25.3508 48.2344C25.5012 49.3713 25.5406 50.5194 25.3902 51.6592L25.4352 51.3233C25.3283 52.0976 25.126 52.8495 24.8716 53.5873C24.554 54.5064 24.1914 55.4142 23.8148 56.3108L23.9427 56.0087C23.4888 57.0837 22.966 58.1251 22.3659 59.1257C21.8769 59.9422 21.3471 60.7348 20.8636 61.5555C19.7984 63.3684 18.9678 65.3302 18.393 67.3525C17.9602 68.8773 17.6848 70.4372 17.5021 72.0111C17.4669 72.3119 17.6679 72.7012 17.8731 72.9049C18.0923 73.1242 18.4521 73.29 18.7669 73.2759C19.0817 73.2619 19.433 73.1537 19.6607 72.9049L19.8588 72.6492C19.9726 72.4524 20.0303 72.2388 20.0317 72.0111V72.0083Z" fill="#343434"/>
<path d="M36.3896 48.7804C35.3132 49.2694 34.387 50.1506 33.7785 51.161C33.3471 51.8777 33.1124 52.6619 33.0309 53.4911C32.9424 54.3975 33.1686 55.2913 33.5396 56.1106C33.7884 56.6587 34.158 57.166 34.5739 57.5988C35.0335 58.0766 35.9062 58.0949 36.3629 57.5988C36.8197 57.1027 36.8534 56.32 36.3629 55.8098C36.2491 55.6918 36.1437 55.5681 36.0439 55.4388L36.2421 55.6946C36.0186 55.4023 35.8331 55.0847 35.687 54.7474L35.8149 55.0496C35.6799 54.7291 35.5858 54.3961 35.5352 54.0504L35.5802 54.3862C35.5338 54.0349 35.5338 53.6836 35.5802 53.3337L35.5352 53.6695C35.5858 53.328 35.6785 52.9992 35.812 52.6816L35.6842 52.9837C35.8373 52.6268 36.0369 52.2937 36.273 51.9859L36.0748 52.2417C36.3461 51.8918 36.6595 51.5798 37.0094 51.3086L36.7536 51.5067C37.0389 51.2931 37.3439 51.1118 37.6685 50.9643C37.9397 50.8406 38.1744 50.4836 38.2503 50.2082C38.3332 49.9061 38.2967 49.5027 38.1224 49.2329C37.9481 48.9631 37.6896 48.7256 37.3663 48.6511C37.015 48.571 36.7171 48.63 36.391 48.779L36.3896 48.7804Z" fill="#343434"/>
<path d="M37.2349 48.3923C37.5651 48.2785 37.9052 48.2012 38.2509 48.1534L37.9151 48.1984C38.3268 48.1464 38.74 48.1408 39.1518 48.1928L38.8159 48.1478C39.1799 48.197 39.5326 48.2912 39.8727 48.4303L39.5705 48.3024C39.9416 48.4612 40.2943 48.6678 40.6147 48.9123L40.3589 48.7142C40.588 48.8926 40.7988 49.0922 40.9787 49.3199L40.7805 49.0641C40.9112 49.2327 41.0208 49.4126 41.108 49.608L40.9801 49.3058C41.0588 49.4941 41.1136 49.6881 41.1403 49.8904L41.0953 49.5546C41.115 49.7218 41.1136 49.8876 41.0953 50.0534L41.1403 49.7176C41.1094 49.9424 41.0447 50.156 40.959 50.3654L41.0869 50.0633C40.8789 50.5495 40.5739 50.9866 40.2521 51.4054L40.4503 51.1496C39.7181 52.0954 38.8651 52.9287 37.9207 53.6609L38.1765 53.4628C37.5511 53.9448 36.892 54.3805 36.2441 54.833C35.3714 55.4401 34.5184 56.0767 33.6906 56.7442C32.6718 57.5663 31.6852 58.4489 30.8449 59.4551C30.3165 60.0889 29.819 60.7592 29.4606 61.5055C28.8802 62.7098 28.342 64.2416 29.0306 65.5163C29.2414 65.9056 29.6011 66.2442 29.982 66.4635C30.4626 66.7389 30.9671 66.8401 31.5096 66.8991C32.083 66.9624 32.6957 66.8991 33.2578 66.7769C33.9057 66.6363 34.3441 65.8465 34.1418 65.2212C33.9211 64.5396 33.2803 64.1868 32.5861 64.3372C32.4877 64.3583 32.3879 64.3737 32.2881 64.3878L32.624 64.3428C32.2291 64.3962 31.8286 64.4103 31.4323 64.3597L31.7682 64.4047C31.5475 64.3737 31.3339 64.3217 31.1273 64.236L31.4295 64.3639C31.3114 64.3119 31.2018 64.2501 31.0992 64.1728L31.355 64.3709C31.2636 64.2993 31.1821 64.2192 31.1105 64.1278L31.3086 64.3836C31.2538 64.3091 31.2074 64.2332 31.1709 64.1489L31.2988 64.451C31.2538 64.3414 31.2257 64.229 31.2074 64.1124L31.2524 64.4482C31.2257 64.2402 31.2341 64.0308 31.2622 63.8229L31.2173 64.1587C31.2847 63.6922 31.4407 63.2453 31.622 62.811L31.4941 63.1132C31.7667 62.4723 32.1307 61.8821 32.5551 61.3312L32.357 61.587C33.3969 60.2435 34.7095 59.1206 36.046 58.0849L35.7902 58.283C36.8484 57.468 37.9685 56.7428 39.045 55.9544C39.6366 55.5202 40.217 55.0648 40.7552 54.566C41.375 53.9898 41.9231 53.3546 42.436 52.6842C43.2905 51.5684 44.0072 50.1195 43.4464 48.7015C43.185 48.041 42.793 47.4522 42.2379 46.9997C41.8612 46.6933 41.4663 46.4108 41.0279 46.2014C39.6422 45.5381 38.0191 45.4538 36.5645 45.9555C36.2512 46.0637 35.9799 46.245 35.8085 46.5373C35.6497 46.8085 35.5822 47.2077 35.6806 47.5126C35.8801 48.131 36.5674 48.627 37.2363 48.3966L37.2349 48.3923Z" fill="#343434"/>
<path d="M39.5023 55.7535C39.8733 55.8462 40.2373 55.9629 40.5914 56.1118L40.2893 55.9839C40.6954 56.1582 41.0833 56.3718 41.4346 56.6416L41.1789 56.4435C41.4023 56.6191 41.6061 56.8145 41.7804 57.0379L41.5822 56.7822C41.7059 56.9452 41.8113 57.118 41.8956 57.3064L41.7677 57.0042C41.8394 57.1728 41.8886 57.3471 41.9153 57.5284L41.8703 57.1925C41.8928 57.3766 41.8914 57.5565 41.8675 57.7392L41.9125 57.4033C41.8591 57.7364 41.7382 58.0526 41.6089 58.3632L41.7368 58.061C41.5499 58.4953 41.311 58.8986 41.0243 59.2738L41.2224 59.018C40.8795 59.4579 40.4804 59.8458 40.042 60.1873L40.2977 59.9891C39.9815 60.2322 39.6485 60.4501 39.3014 60.644C38.832 60.9068 38.5509 61.5504 38.7195 62.0718C38.787 62.2798 38.8966 62.4681 39.0442 62.6297C39.2437 62.8476 39.6414 63.0204 39.938 63.0007C40.1291 62.9881 40.3188 62.9923 40.5099 63.0148L40.1741 62.9698C40.4073 63.0022 40.6322 63.0626 40.8514 63.1497L40.5493 63.0218C40.7601 63.1104 40.9568 63.2228 41.1409 63.3605L40.8852 63.1624C41.0496 63.2902 41.1971 63.435 41.3278 63.598L41.1297 63.3422C41.2562 63.5067 41.3602 63.6837 41.4431 63.8735L41.3152 63.5713C41.3883 63.7526 41.4389 63.9381 41.467 64.1306L41.422 63.7948C41.4501 64.014 41.4473 64.2332 41.4192 64.4524L41.4642 64.1166C41.4304 64.3386 41.37 64.5508 41.2857 64.7574L41.4136 64.4553C41.3222 64.6647 41.2084 64.86 41.0707 65.0413L41.2688 64.7855C41.1241 64.971 40.9596 65.134 40.7755 65.2802L41.0313 65.082C40.8486 65.2198 40.6533 65.3336 40.4453 65.4263L40.7474 65.2985C40.7165 65.3111 40.6856 65.3238 40.6547 65.3364C40.3371 65.4629 40.0771 65.6118 39.8986 65.9182C39.7398 66.1894 39.6724 66.5885 39.7707 66.8935C39.9675 67.502 40.6617 68.0206 41.3264 67.7775C41.4937 67.7156 41.6707 67.6805 41.8464 67.6552L41.5105 67.7002C41.7213 67.6735 41.9321 67.6693 42.1443 67.696L41.8085 67.651C41.949 67.6721 42.0825 67.7072 42.2146 67.7592L41.9125 67.6313C42.0193 67.6777 42.1176 67.7325 42.2132 67.8014L41.9574 67.6032C42.053 67.6777 42.1359 67.7578 42.2132 67.8505L42.015 67.5948C42.0937 67.6974 42.1556 67.8056 42.2076 67.9236L42.0797 67.6215C42.1443 67.7789 42.1837 67.9405 42.209 68.1091L42.164 67.7732C42.2076 68.119 42.1865 68.4717 42.1457 68.8174L42.1907 68.4815C42.1401 68.8582 42.0375 69.2221 41.89 69.5721L42.0179 69.2699C41.8478 69.6634 41.6272 70.0316 41.3644 70.3717L41.5625 70.1159C41.0285 70.8003 40.3849 71.4116 39.7623 72.0145C39.0161 72.7355 38.2417 73.4255 37.4421 74.0874C37.036 74.4233 36.6242 74.7535 36.2068 75.0753L36.4626 74.8772C35.3018 75.7724 34.1044 76.6338 32.8481 77.3913C30.9902 78.51 29.1647 79.6722 27.3926 80.9229C25.9001 81.9755 24.4428 83.0787 23.0136 84.217C22.7775 84.4053 22.6426 84.8227 22.6426 85.1108C22.6426 85.4214 22.7803 85.791 23.0136 86.0046C23.2469 86.2182 23.5715 86.3896 23.9074 86.3756L24.2433 86.3306C24.4569 86.2702 24.6438 86.162 24.8012 86.006C25.1609 85.7193 25.5221 85.4354 25.8847 85.1544L25.6289 85.3525C27.5992 83.8305 29.6313 82.3915 31.728 81.0494C32.7483 80.3973 33.8009 79.7986 34.8169 79.1395C36.3979 78.1137 37.9115 76.9782 39.3576 75.771C40.3258 74.9629 41.259 74.1127 42.1443 73.2161C42.8456 72.5064 43.5778 71.7714 44.0443 70.879C44.4013 70.1946 44.6037 69.499 44.6838 68.7345C44.74 68.2047 44.7344 67.6426 44.5812 67.1282C44.317 66.2428 43.6804 65.6076 42.8189 65.2971C42.2272 65.0848 41.54 65.127 40.9372 65.2619C40.8416 65.283 40.746 65.3083 40.6533 65.342L41.3264 67.7817C41.9757 67.5217 42.5842 67.169 43.0297 66.6153C43.4752 66.0616 43.7942 65.491 43.9024 64.815C43.9558 64.482 43.9952 64.1573 43.9572 63.8215C43.9052 63.3605 43.8082 63.005 43.6213 62.5791C43.3417 61.9467 42.8203 61.424 42.2427 61.0558C41.5766 60.6314 40.7292 60.4206 39.9422 60.474L40.5802 62.8307C41.8661 62.1112 43.0381 61.0614 43.7324 59.746C44.2341 58.7946 44.5896 57.7265 44.3184 56.6487C44.1244 55.8799 43.6199 55.1801 43.0072 54.6868C42.1767 54.0179 41.2126 53.5738 40.1783 53.3166C39.5374 53.1564 38.7772 53.5232 38.6226 54.2006C38.468 54.8779 38.8193 55.5848 39.5065 55.7563L39.5023 55.7535Z" fill="#343434"/>
<path d="M37.3081 66.935C36.0546 67.6362 34.7799 68.3122 33.4561 68.8729L33.7582 68.7451C33.0233 69.0542 32.2531 69.3564 31.4577 69.4646L31.7936 69.4196C31.587 69.4463 31.3776 69.459 31.171 69.4323L31.5069 69.4772C31.4057 69.4632 31.3073 69.4407 31.2118 69.4013L31.5139 69.5292C31.4521 69.5025 31.3945 69.4702 31.3397 69.4294L31.5954 69.6276C31.5547 69.5953 31.5181 69.5587 31.4844 69.518L31.6826 69.7738C31.6376 69.7147 31.6039 69.6543 31.5744 69.5868L31.7022 69.889C31.6713 69.8061 31.6517 69.7218 31.639 69.6346L31.684 69.9705C31.6643 69.7976 31.6727 69.6262 31.6952 69.4547L31.6502 69.7906C31.7149 69.3465 31.8639 68.9193 32.0367 68.5076L31.9088 68.8097C32.0901 68.3839 32.3051 67.9763 32.5862 67.6053L32.388 67.8611C32.7169 67.4367 33.1132 67.0769 33.5348 66.7481L33.279 66.9462C34.5298 65.9822 35.8831 65.146 37.3264 64.5066C37.5976 64.3857 37.8323 64.0231 37.9082 63.7505C37.9911 63.4484 37.9546 63.045 37.7803 62.7752C37.606 62.5054 37.3475 62.2679 37.0242 62.1934L36.6884 62.1484C36.4607 62.1484 36.2471 62.2061 36.0503 62.3213C35.1959 62.7007 34.371 63.142 33.5854 63.6493C32.7998 64.1567 32.0465 64.6766 31.3551 65.2795C30.7677 65.791 30.259 66.4192 29.9133 67.1191C29.6434 67.6658 29.3947 68.2462 29.2612 68.8434C29.0658 69.7189 29.0799 70.6942 29.7559 71.3702C30.0229 71.6372 30.3967 71.8326 30.7649 71.9042C31.6812 72.0813 32.6171 71.8522 33.4828 71.5501C35.2605 70.9289 36.9455 70.0323 38.5855 69.1161C39.1631 68.7928 39.4049 67.9524 39.0395 67.3861C38.6628 66.8015 37.9279 66.5865 37.3095 66.9322L37.3081 66.935Z" fill="#343434"/>
<path d="M29.0979 69.1715C28.8 69.7336 28.4557 70.2677 28.0678 70.7708L28.266 70.515C27.7109 71.2275 27.0715 71.8655 26.359 72.4192L26.6147 72.2211C25.9964 72.6947 25.3303 73.1008 24.6262 73.4339C24.3536 73.5618 24.1217 73.9103 24.0444 74.1899C23.9615 74.4921 23.998 74.8954 24.1723 75.1652C24.3465 75.4351 24.6051 75.6726 24.9283 75.747C25.2769 75.8257 25.5804 75.7723 25.9036 75.6192C27.8332 74.7085 29.4661 73.2498 30.6593 71.4889C30.8855 71.1544 31.0935 70.8073 31.2832 70.449C31.5924 69.8643 31.4505 69.0464 30.8293 68.719C30.2447 68.4098 29.4296 68.5489 29.0994 69.1729L29.0979 69.1715Z" fill="#343434"/>
<path d="M14.0703 73.8855C16.7249 77.708 19.3796 81.5291 22.0343 85.3516C22.7819 86.4267 23.5281 87.5031 24.2758 88.5782L24.4739 87.045C23.4958 87.8489 22.5177 88.6527 21.5396 89.4551C21.3035 89.6491 21.1686 90.0566 21.1686 90.3489C21.1686 90.6595 21.3063 91.0291 21.5396 91.2427C21.7729 91.4563 22.0975 91.6278 22.4334 91.6137C22.7875 91.5983 23.0559 91.4676 23.3272 91.2427C24.3053 90.4389 25.2834 89.635 26.2615 88.8326L26.4596 88.5768C26.5524 88.4321 26.6016 88.2747 26.61 88.106C26.6451 87.8432 26.617 87.5256 26.4596 87.2994C23.805 83.4769 21.1503 79.6558 18.4956 75.8333C17.748 74.7582 17.0018 73.6817 16.2541 72.6067C16.063 72.3326 15.8297 72.1162 15.4981 72.0249C15.1959 71.9419 14.7926 71.9785 14.5228 72.1527C13.9831 72.4999 13.6655 73.3023 14.0689 73.8827L14.0703 73.8855Z" fill="#343434"/>
<path d="M1.90268 81.4875C4.22147 79.8784 6.53886 78.2693 8.85766 76.6602C9.50832 76.2077 10.1604 75.7566 10.8111 75.3041L9.0811 74.8501C10.731 77.2504 12.3808 79.6493 14.0307 82.0496C15.6805 84.4499 17.3304 86.8488 18.9802 89.2491C19.9078 90.5983 20.8353 91.9474 21.7628 93.2965L22.2167 91.5665C19.9345 93.1419 17.6522 94.7187 15.3699 96.2941C14.7179 96.7438 14.0658 97.1949 13.4137 97.6446L15.1437 98.0985C13.4798 95.7122 11.8173 93.326 10.1534 90.9398C8.48946 88.5535 6.82695 86.1673 5.16304 83.781C4.2271 82.4389 3.29255 81.0982 2.3566 79.7561C2.16548 79.4821 1.93219 79.2657 1.60054 79.1743C1.29839 79.0914 0.895061 79.128 0.625238 79.3022C0.355415 79.4765 0.117914 79.7351 0.0434318 80.0583C-0.0310506 80.3815 -0.0226202 80.7567 0.171315 81.0336C1.83522 83.4198 3.49773 85.8061 5.16164 88.1923C6.82555 90.5786 8.48805 92.9648 10.152 95.3511C11.0879 96.6932 12.0225 98.0339 12.9584 99.3759C13.1411 99.6373 13.3884 99.8833 13.7145 99.9577C14.0405 100.032 14.4115 100.022 14.6898 99.8299C16.972 98.2545 19.2543 96.6777 21.5365 95.1023C22.1886 94.6526 22.8407 94.2015 23.4928 93.7518C23.7555 93.5705 24.0001 93.3204 24.0746 92.9957C24.149 92.6711 24.1392 92.3001 23.9467 92.0205C22.2968 89.6201 20.647 87.2213 18.9971 84.821C17.3472 82.4206 15.6974 80.0217 14.0475 77.6214C13.12 76.2723 12.1925 74.9232 11.265 73.5741C11.0851 73.3113 10.8335 73.0668 10.5089 72.9923C10.1843 72.9178 9.81187 72.9277 9.53362 73.1202C7.21483 74.7293 4.89744 76.3384 2.57864 77.9475C1.92798 78.4 1.27591 78.8511 0.625238 79.3036C0.351199 79.4948 0.134778 79.728 0.0434318 80.0597C-0.0394826 80.3618 -0.00294563 80.7652 0.171315 81.035C0.518431 81.5746 1.32088 81.8922 1.90128 81.4889L1.90268 81.4875Z" fill="#343434"/>
<path d="M28.4006 41.0921C28.4358 42.8037 28.4709 44.5154 28.506 46.2271C28.5201 46.8876 29.078 47.5228 29.7708 47.4919C30.444 47.4624 31.0497 46.9354 31.0356 46.2271C31.0005 44.5154 30.9654 42.8037 30.9302 41.0921C30.9162 40.4315 30.3583 39.7963 29.6654 39.8273C28.9923 39.8568 28.3866 40.3838 28.4006 41.0921Z" fill="#343434"/>
<path d="M29.6663 46.8637C31.763 46.8285 33.8584 46.7934 35.9551 46.7583C36.6156 46.747 37.2508 46.1849 37.2199 45.4935C37.189 44.802 36.6634 44.2174 35.9551 44.2287C33.8584 44.2638 31.763 44.2989 29.6663 44.3341C29.0058 44.3453 28.3706 44.9074 28.4015 45.5989C28.4324 46.2903 28.958 46.8749 29.6663 46.8637Z" fill="#343434"/>
<path d="M35.3184 41.512C35.2833 44.0275 35.2481 46.5431 35.213 49.0586C35.2032 49.7205 35.8018 50.3543 36.4778 50.3234C37.1706 50.2925 37.7328 49.7683 37.7426 49.0586C37.7777 46.5431 37.8129 44.0275 37.848 41.512C37.8578 40.8501 37.2592 40.2163 36.5832 40.2472C35.9072 40.2781 35.3282 40.8023 35.3184 41.512Z" fill="#343434"/>
<path d="M25.5915 23.6139C25.6028 23.4382 25.621 23.264 25.6435 23.0897L25.5986 23.4256C25.711 22.5894 25.9386 21.7715 26.2661 20.9944L26.1382 21.2965C26.4361 20.5995 26.8156 19.9432 27.2779 19.3431L27.0798 19.5989C27.5126 19.0438 28.0115 18.5477 28.5666 18.1135L28.3108 18.3116C28.8856 17.8703 29.511 17.5035 30.1785 17.2169L29.8764 17.3447C30.6212 17.0299 31.4054 16.8191 32.2064 16.7109L31.8705 16.7559C32.2865 16.7011 32.7053 16.6744 33.1241 16.6786C33.786 16.6856 34.4198 16.0912 34.3889 15.4138C34.358 14.7364 33.8338 14.156 33.1241 14.149C31.0583 14.1265 28.9179 14.7533 27.2414 15.9717C26.1396 16.7728 25.2051 17.7537 24.5052 18.9271C24.0035 19.7675 23.6213 20.7007 23.3753 21.6479C23.2095 22.2887 23.1027 22.952 23.0605 23.6125C23.0184 24.273 23.6732 24.9068 24.3253 24.8773C25.0477 24.845 25.5437 24.3208 25.5901 23.6125L25.5915 23.6139Z" fill="#343434"/>
<path d="M52.3532 4.14385C51.725 4.70317 51.0955 5.26108 50.4673 5.8204C50.3436 5.93564 50.2565 6.07055 50.2059 6.22795C50.1272 6.37832 50.0906 6.54134 50.0963 6.7156C50.0963 7.02618 50.234 7.39578 50.4673 7.60939C50.7006 7.823 51.0252 7.99445 51.3611 7.98039L51.6969 7.93542C51.9105 7.87499 52.0975 7.76678 52.2548 7.61079C52.883 7.05147 53.5126 6.49356 54.1408 5.93423C54.2645 5.819 54.3516 5.68409 54.4022 5.52669C54.4809 5.37632 54.5174 5.2133 54.5118 5.03904C54.5118 4.72846 54.3741 4.35886 54.1408 4.14525C53.9075 3.93164 53.5829 3.76019 53.247 3.77424L52.9111 3.81921C52.6975 3.87964 52.5106 3.98785 52.3532 4.14385Z" fill="#343434"/>
<path d="M46.3166 1.2656C46.2519 2.10458 46.1859 2.94356 46.1212 3.78254C46.0974 4.09031 46.2801 4.46412 46.4923 4.67633C46.7045 4.88853 47.0713 5.06139 47.386 5.04734C47.7008 5.03328 48.0522 4.92507 48.2798 4.67633C48.5075 4.42759 48.6227 4.13247 48.6508 3.78254C48.7155 2.94356 48.7815 2.10458 48.8462 1.2656C48.8701 0.95783 48.6874 0.584012 48.4752 0.371807C48.263 0.159603 47.8962 -0.0132528 47.5814 0.000800499C47.2666 0.0148538 46.9153 0.123064 46.6876 0.371807C46.4599 0.62055 46.3447 0.91567 46.3166 1.2656Z" fill="#343434"/>
<path d="M56.9145 9.42863C56.077 9.50171 55.238 9.57478 54.4004 9.64645C54.0589 9.67597 53.7553 9.76731 53.5066 10.0175C53.2874 10.2367 53.1215 10.5965 53.1356 10.9113C53.1497 11.226 53.2579 11.5774 53.5066 11.805C53.7413 12.0201 54.0701 12.2042 54.4004 12.176C55.238 12.103 56.077 12.0299 56.9145 11.9582C57.256 11.9287 57.5596 11.8374 57.8083 11.5872C58.0275 11.368 58.1934 11.0082 58.1793 10.6934C58.1653 10.3786 58.0571 10.0273 57.8083 9.79964C57.5736 9.58462 57.2448 9.40052 56.9145 9.42863Z" fill="#343434"/>
<path d="M33.0735 36.6879C40.1643 36.6879 45.9125 30.9397 45.9125 23.8489C45.9125 16.758 40.1643 11.0098 33.0735 11.0098C25.9826 11.0098 20.2344 16.758 20.2344 23.8489C20.2344 30.9397 25.9826 36.6879 33.0735 36.6879Z" stroke="#343434" stroke-width="2.38906" stroke-miterlimit="10"/>
<path d="M33.0195 41.4043C42.6856 41.4043 50.5215 33.5684 50.5215 23.9024C50.5215 14.2363 42.6856 6.40039 33.0195 6.40039C23.3535 6.40039 15.5176 14.2363 15.5176 23.9024C15.5176 33.5684 23.3535 41.4043 33.0195 41.4043Z" stroke="#343434" stroke-width="2.38906" stroke-miterlimit="10"/>
</svg>
