<svg width="79" height="75" viewBox="0 0 79 75" fill="none" xmlns="http://www.w3.org/2000/svg">
<path d="M53.1845 1.4062C53.3494 20.8107 53.5143 40.2135 53.6792 59.618C47.6881 59.5635 41.6955 59.5075 35.7044 59.453V45.1062C33.0577 44.9166 30.2494 44.7979 27.2942 44.7764C24.6426 44.7583 22.1113 44.8193 19.7086 44.9413L19.2139 59.7829C13.4422 59.7284 7.67045 59.6724 1.89875 59.618C1.93008 49.8324 1.87401 40.0469 1.73384 30.2647C1.59532 20.7002 1.376 11.1356 1.07422 1.5711C9.20737 1.28582 17.5664 1.11431 26.1399 1.07639C35.4076 1.03516 44.428 1.15389 53.1845 1.4062Z" fill="white"/>
<path d="M2.86477 2.86647L2.70975 2.97861C2.75758 2.94563 2.8054 2.91759 2.85817 2.89121L2.64709 2.98191C2.68996 2.96707 2.73449 2.95552 2.77901 2.94563C3.00164 2.87967 2.34696 2.95058 2.64049 2.97201C3.06595 3.0017 3.5013 2.97531 3.92841 2.97696C4.78757 2.98026 5.64508 2.98191 6.50424 2.9852C8.22091 2.99015 9.93758 2.99675 11.6559 3.00169C15.0892 3.01324 18.5242 3.02478 21.9576 3.03633C28.7863 3.05941 35.6151 3.0825 42.4438 3.10394C44.1605 3.10888 45.8772 3.11548 47.5955 3.12043C48.4546 3.12373 49.3121 3.12537 50.1713 3.12867C50.6001 3.12867 51.0305 3.13197 51.4592 3.13362C51.6538 3.13362 51.85 3.13362 52.0446 3.13527H52.1617C52.3514 3.14186 52.3184 3.13197 52.0628 3.10559C52.0826 3.12538 52.3151 3.17814 52.3233 3.17485L52.132 3.10064C52.264 3.18474 52.2376 3.16165 52.0529 3.03138C52.0595 3.03633 52.0628 3.04292 52.0694 3.04787C52.1996 3.16825 51.8204 2.67353 51.9391 2.87802C51.9655 2.92584 52.0034 3.01983 52.0413 3.05611L51.9985 2.95552C51.9473 2.82525 51.9407 2.82195 51.9803 2.94233C51.5763 2.65374 52.0067 3.04457 52.0034 3.04127C52.0084 3.04457 51.9539 2.6389 51.9539 2.67353C51.9539 2.723 51.9622 2.77413 51.9638 2.82525C51.9737 3.02478 51.977 3.22432 51.982 3.4255C52.0232 5.34831 52.0215 7.27441 52.0281 9.19721C52.038 12.4821 52.0397 15.7671 52.038 19.052C52.038 23.0361 52.0314 27.0219 52.0232 31.006C52.0149 35.1089 52.0067 39.2117 51.9952 43.3146C51.9853 46.865 51.9754 50.4154 51.9638 53.9658C51.9589 55.356 51.9556 56.7462 51.9506 58.1363C51.9506 58.2781 51.9473 58.42 51.9506 58.5618C51.9506 58.5816 51.949 58.603 51.9506 58.6228C51.9589 58.8372 52.0413 58.1874 51.9721 58.4331C51.9028 58.6789 52.1304 58.1446 52.0298 58.3078C51.9754 58.4018 52.0133 58.3589 52.1436 58.1742C52.0347 58.2798 52.0611 58.2616 52.2244 58.1215L52.4223 58.044C52.3761 58.0605 52.3283 58.0736 52.2788 58.0835C52.6103 57.9153 52.6366 58.0588 52.5064 58.0489C52.3332 58.0357 52.1518 58.0522 51.9787 58.0539C51.5499 58.0588 51.1228 58.0621 50.694 58.0671C48.9823 58.0852 47.269 58.1017 45.5572 58.1198C43.8455 58.138 42.1321 58.1544 40.4204 58.1726C39.5646 58.1808 38.7087 58.1907 37.8512 58.199C37.4637 58.2023 37.0712 58.1874 36.6837 58.2105C36.2961 58.2336 36.9524 58.3095 36.7727 58.2534C36.7298 58.2402 36.682 58.2237 36.6391 58.2155C36.4858 58.1858 36.9854 58.4183 36.7579 58.255C36.936 58.4068 36.964 58.4265 36.8403 58.3161C36.8238 58.2996 36.8057 58.2814 36.7908 58.2633C36.7908 58.2303 37.025 58.6393 36.9195 58.4265C36.87 58.3276 36.7842 58.105 36.9343 58.4958C36.8321 58.232 36.9096 58.7234 36.9492 58.5304C36.9673 58.4397 36.9541 58.3293 36.9557 58.2386C36.9656 57.7702 36.9772 57.3019 36.9871 56.8336C37.0069 55.9942 37.025 55.1565 37.0448 54.3171C37.0827 52.6202 37.1223 50.9233 37.1602 49.2264C37.1982 47.5296 37.2361 45.8723 37.274 44.1935C37.2922 43.3921 36.5798 42.7094 35.7899 42.7094H19.794C18.9843 42.7094 18.3181 43.3888 18.3098 44.1935C18.2769 47.2327 18.2422 50.2703 18.2093 53.3095C18.1928 54.8283 18.1763 56.3487 18.1581 57.8675C18.1548 58.2369 18.1367 58.6079 18.1466 58.9773C18.1466 58.9575 18.1466 59.0812 18.1433 59.0812C18.1103 59.0829 18.2422 58.6327 18.1746 58.8174C18.1548 58.8701 18.0856 59.068 18.1845 58.8174C18.2455 58.6838 18.2472 58.6657 18.1895 58.7663C18.2356 58.6673 18.3032 58.5882 18.3906 58.5288C18.4484 58.4826 18.8029 58.354 18.5753 58.4101C19.1641 58.2649 18.892 58.387 18.8046 58.3754C18.6232 58.349 18.4038 58.3804 18.2208 58.382C17.8316 58.3853 17.4408 58.3903 17.0516 58.3936C14.0124 58.4249 10.9715 58.4579 7.93232 58.4892C6.41189 58.5057 4.89311 58.5205 3.37267 58.537C3.27868 58.537 3.18468 58.542 3.09069 58.5403C2.91259 58.537 2.85487 58.4579 3.26219 58.575C3.22591 58.5651 2.9736 58.537 2.96536 58.4991C2.95876 58.4694 3.3298 58.7036 3.12202 58.5601C2.84992 58.3721 3.16325 58.57 3.1583 58.6063L3.09563 58.5453C3.01648 58.4562 3.01483 58.4562 3.09069 58.5453L3.14675 58.6129C3.06925 58.4678 3.07914 58.5041 3.17644 58.7201C3.16984 58.6789 3.1451 58.6063 3.12861 58.5634C3.03462 58.3078 3.14345 58.8866 3.14345 58.7234C3.14345 58.4282 3.13851 58.1314 3.13686 57.8362C3.11872 51.7792 3.10058 45.7222 3.08244 39.6652C3.0643 33.6082 3.04616 27.5512 3.02802 21.4942C3.00988 15.4175 2.99174 9.34233 2.9736 3.26555C2.9736 3.06106 2.97855 2.85493 2.96371 2.6521C2.95876 2.58943 2.98844 2.40144 2.94887 2.68672C2.90764 2.98685 2.94887 2.75434 2.96041 2.69167C2.9802 2.59108 3.08574 2.47894 2.89445 2.83514C3.03462 2.57294 2.64709 3.09239 2.86641 2.85823C3.39576 2.29095 3.47162 1.31471 2.86641 0.758974C2.26121 0.203242 1.33279 0.152121 0.767164 0.758974C0.241114 1.32295 -0.0260333 2.02051 0.00200074 2.79062C0.0300347 3.56073 0.0069459 4.35557 0.010244 5.13558C0.0151912 6.69394 0.0201387 8.2523 0.0234368 9.80901C0.0333311 12.9637 0.0415761 16.1183 0.0514705 19.2746C0.0696101 25.5658 0.0894007 31.8553 0.10754 38.1464C0.12568 44.4376 0.145468 50.7271 0.163608 57.0182C0.165257 57.7422 0.10589 58.4942 0.234516 59.2099C0.386229 60.0459 0.981541 60.8259 1.75165 61.1854C2.37994 61.4773 2.98515 61.507 3.66126 61.5004C4.4594 61.4921 5.2592 61.4839 6.05734 61.4757C9.19385 61.4427 12.332 61.4097 15.4685 61.3767C16.2667 61.3685 17.0665 61.3602 17.8646 61.352C18.1994 61.3487 18.5374 61.3586 18.8705 61.3388C19.4807 61.3025 20.0397 61.0683 20.4685 60.6264C21.0935 59.9816 21.1083 59.167 21.1165 58.3326C21.1248 57.5542 21.133 56.7742 21.1429 55.9958C21.1776 52.8412 21.2138 49.6849 21.2485 46.5302C21.2567 45.7519 21.265 44.9719 21.2749 44.1935L19.7907 45.6777H35.7866L34.3024 44.1935C34.2233 47.7044 34.1425 51.2152 34.0633 54.7261C34.0435 55.6231 34.0221 56.5202 34.0023 57.4173C33.994 57.8065 33.971 58.199 33.9759 58.5882C33.9841 59.2478 34.2282 59.8299 34.6553 60.323C34.9604 60.6742 35.3792 60.9166 35.8146 61.065C36.2236 61.2052 36.6622 61.1755 37.0877 61.1722C37.9633 61.164 38.839 61.1541 39.7146 61.1458C43.2172 61.1096 46.7198 61.0733 50.2224 61.037C50.9958 61.0288 51.7775 61.0535 52.5492 61.0123C53.8372 60.943 54.7936 59.9816 54.9057 58.7102C54.9602 58.0885 54.9189 57.447 54.9206 56.822C54.9321 53.4975 54.942 50.1747 54.9519 46.8502C54.9635 42.7506 54.975 38.6494 54.9833 34.5498C54.9915 30.4503 54.9997 26.2204 55.003 22.0566C55.0063 18.4534 55.0063 14.8485 54.9997 11.2453C54.9948 8.90038 54.9931 6.55706 54.9618 4.2121C54.9552 3.72563 54.9585 3.23751 54.9272 2.75269C54.8546 1.65112 54.2379 0.742484 53.1957 0.341763C52.7521 0.17191 52.2788 0.162017 51.8088 0.160368C51.3388 0.158719 50.8722 0.15707 50.4038 0.155421C49.5447 0.152123 48.6871 0.150473 47.828 0.147175C40.8046 0.124089 33.7797 0.101002 26.7563 0.0779152C19.7709 0.0548284 12.7855 0.0317419 5.80174 0.00865503C4.94258 0.00535692 4.08507 0.00370736 3.22591 0.000409239C2.82519 0.000409239 2.44755 -0.00948451 2.05013 0.0680212C1.55871 0.163667 1.13325 0.432463 0.767164 0.763924C0.189993 1.28668 0.19659 2.33877 0.767164 2.86317C1.38391 3.4288 2.24967 3.42056 2.86641 2.86317L2.86477 2.86647Z" fill="#343434"/>
<path d="M10.1905 12.1063C12.5651 12.1393 14.9414 12.1723 17.3161 12.2052L15.8319 10.7211V18.3068L17.3161 16.8226H10.2251L11.7093 18.3068C11.6977 15.7458 11.6862 13.1848 11.6747 10.6221C11.6714 9.84544 10.9952 9.10171 10.1905 9.13799C9.38577 9.17427 8.70306 9.78937 8.70635 10.6221C8.7179 13.1831 8.72944 15.7441 8.74098 18.3068C8.74428 19.1099 9.41875 19.7909 10.2251 19.7909H17.3161C18.1192 19.7909 18.8002 19.1115 18.8002 18.3068V10.7211C18.8002 9.9114 18.1208 9.24848 17.3161 9.23694C14.9414 9.20396 12.5651 9.17098 10.1905 9.13799C9.4138 9.12645 8.67007 9.82895 8.70635 10.6221C8.74263 11.4153 9.35773 12.0948 10.1905 12.1063Z" fill="#343434"/>
<path d="M23.878 12.1063C26.2526 12.1393 28.6289 12.1723 31.0036 12.2052L29.5194 10.7211V18.3068L31.0036 16.8226H23.9126L25.3968 18.3068C25.3852 15.7458 25.3737 13.1848 25.3622 10.6221C25.3589 9.84544 24.6827 9.10171 23.878 9.13799C23.0733 9.17427 22.3906 9.78937 22.3939 10.6221C22.4054 13.1831 22.4169 15.7441 22.4285 18.3068C22.4318 19.1099 23.1062 19.7909 23.9126 19.7909H31.0036C31.8067 19.7909 32.4877 19.1115 32.4877 18.3068V10.7211C32.4877 9.9114 31.8083 9.24848 31.0036 9.23694C28.6289 9.20396 26.2526 9.17098 23.878 9.13799C23.1013 9.12645 22.3576 9.82895 22.3939 10.6221C22.4301 11.4153 23.0452 12.0948 23.878 12.1063Z" fill="#343434"/>
<path d="M37.7315 12.2723C40.1062 12.3053 42.4825 12.3383 44.8571 12.3713L43.3729 10.8871V18.4728L44.8571 16.9886H37.7662L39.2503 18.4728C39.2388 15.9118 39.2272 13.3508 39.2157 10.7882C39.2124 10.0115 38.5363 9.26773 37.7315 9.30401C36.9268 9.34029 36.2441 9.95539 36.2474 10.7882C36.2589 13.3491 36.2705 15.9101 36.282 18.4728C36.2853 19.2759 36.9598 19.9569 37.7662 19.9569H44.8571C45.6602 19.9569 46.3413 19.2775 46.3413 18.4728V10.8871C46.3413 10.0774 45.6618 9.4145 44.8571 9.40295C42.4825 9.36997 40.1062 9.33699 37.7315 9.30401C36.9548 9.29247 36.2111 9.99496 36.2474 10.7882C36.2836 11.5814 36.8987 12.2608 37.7315 12.2723Z" fill="#343434"/>
<path d="M10.3565 26.2899C12.7312 26.3229 15.1075 26.3559 17.4821 26.3888L15.998 24.9047V32.4904L17.4821 31.0062H10.3912L11.8753 32.4904C11.8638 29.9294 11.8522 27.3684 11.8407 24.8057C11.8374 24.029 11.1613 23.2853 10.3565 23.3216C9.55178 23.3579 8.86907 23.973 8.87237 24.8057C8.88391 27.3667 8.89546 29.9277 8.907 32.4904C8.9103 33.2934 9.58476 33.9745 10.3912 33.9745H17.4821C18.2852 33.9745 18.9663 33.2951 18.9663 32.4904V24.9047C18.9663 24.095 18.2868 23.4321 17.4821 23.4205C15.1075 23.3876 12.7312 23.3546 10.3565 23.3216C9.57981 23.31 8.83609 24.0125 8.87237 24.8057C8.90865 25.5989 9.52375 26.2783 10.3565 26.2899Z" fill="#343434"/>
<path d="M24.044 26.2899C26.4187 26.3229 28.795 26.3559 31.1696 26.3888L29.6854 24.9047V32.4904L31.1696 31.0062H24.0787L25.5628 32.4904C25.5513 29.9294 25.5397 27.3684 25.5282 24.8057C25.5249 24.029 24.8488 23.2853 24.044 23.3216C23.2393 23.3579 22.5566 23.973 22.5599 24.8057C22.5714 27.3667 22.583 29.9277 22.5945 32.4904C22.5978 33.2934 23.2723 33.9745 24.0787 33.9745H31.1696C31.9727 33.9745 32.6538 33.2951 32.6538 32.4904V24.9047C32.6538 24.095 31.9743 23.4321 31.1696 23.4205C28.795 23.3876 26.4187 23.3546 24.044 23.3216C23.2673 23.31 22.5236 24.0125 22.5599 24.8057C22.5961 25.5989 23.2112 26.2783 24.044 26.2899Z" fill="#343434"/>
<path d="M37.8956 26.4559C40.2702 26.4889 42.6465 26.5219 45.0212 26.5549L43.537 25.0707V32.6564L45.0212 31.1722H37.9302L39.4144 32.6564C39.4028 30.0954 39.3913 27.5344 39.3797 24.9718C39.3764 24.195 38.7003 23.4513 37.8956 23.4876C37.0908 23.5239 36.4081 24.139 36.4114 24.9718C36.423 27.5327 36.4345 30.0937 36.4461 32.6564C36.4494 33.4595 37.1238 34.1405 37.9302 34.1405H45.0212C45.8243 34.1405 46.5053 33.4611 46.5053 32.6564V25.0707C46.5053 24.261 45.8259 23.5981 45.0212 23.5865C42.6465 23.5536 40.2702 23.5206 37.8956 23.4876C37.1189 23.4761 36.3752 24.1786 36.4114 24.9718C36.4477 25.765 37.0628 26.4444 37.8956 26.4559Z" fill="#343434"/>
<path d="M71.7979 72.9217C73.5937 72.2109 75.3879 71.4985 77.1837 70.7878C74.9311 65.0656 72.6769 59.3433 70.4243 53.6211C68.762 54.1719 67.0998 54.7227 65.4375 55.2734C67.5582 61.1556 69.6789 67.0395 71.7996 72.9217H71.7979Z" fill="#0C4050"/>
<path d="M70.487 53.4856C70.0599 52.3857 69.6328 51.2858 69.2057 50.1875C67.4972 50.7168 65.7888 51.2445 64.082 51.7739C64.5339 52.9414 64.9841 54.1073 65.4359 55.2748C66.1763 55.0126 66.9184 54.7504 67.6588 54.4882C68.6021 54.1551 69.5454 53.8204 70.4886 53.4873L70.487 53.4856Z" fill="white"/>
<path d="M68.3184 23.288C50.6553 14.8613 37.9213 41.4787 55.614 49.9186C73.2771 58.3453 86.0111 31.7295 68.3184 23.288Z" fill="#0C4050"/>
<path d="M66.4204 27.8628C54.2075 22.0367 45.6357 39.9504 57.87 45.7864C70.0829 51.6126 78.6547 33.6988 66.4204 27.8628Z" fill="white"/>
<path d="M61.94 51.6574C70.1869 51.6574 76.8723 44.972 76.8723 36.7252C76.8723 28.4784 70.1869 21.793 61.94 21.793C53.6932 21.793 47.0078 28.4784 47.0078 36.7252C47.0078 44.972 53.6932 51.6574 61.94 51.6574Z" stroke="#343434" stroke-width="2.8034" stroke-miterlimit="10"/>
<path d="M61.8205 47.1351C67.5764 47.1351 72.2425 42.469 72.2425 36.7131C72.2425 30.9571 67.5764 26.291 61.8205 26.291C56.0645 26.291 51.3984 30.9571 51.3984 36.7131C51.3984 42.469 56.0645 47.1351 61.8205 47.1351Z" stroke="#343434" stroke-width="2.8034" stroke-miterlimit="10"/>
<path d="M62.617 52.0674C63.6097 54.8279 64.6008 57.5884 65.5935 60.3489C66.5895 63.1227 67.5872 65.8964 68.5832 68.6701C69.1439 70.2317 69.7046 71.7917 70.2669 73.3534C70.3939 73.7063 70.6034 74.0576 70.9497 74.2406C71.296 74.4236 71.7231 74.5292 72.0941 74.3907C73.9344 73.7014 75.7748 73.0121 77.6168 72.3227C77.9713 72.1908 78.3193 71.9913 78.504 71.64C78.6887 71.2888 78.7959 70.8633 78.654 70.4956C77.6102 67.7961 76.5647 65.0966 75.5208 62.3971C74.472 59.6844 73.4216 56.9717 72.3728 54.2606C71.7841 52.7385 71.1954 51.2148 70.6066 49.6927C70.4632 49.3217 70.2801 49.0133 69.9239 48.8055C69.6057 48.6192 69.1373 48.54 68.7795 48.6555C68.4216 48.7709 68.0737 48.9935 67.8923 49.3382C67.7109 49.6828 67.6004 50.1149 67.7422 50.4826C68.7861 53.1821 69.8316 55.8816 70.8754 58.5811C71.9242 61.2938 72.9747 64.0065 74.0235 66.7176C74.6122 68.2397 75.2009 69.7634 75.7896 71.2855C76.1359 70.677 76.4806 70.0685 76.8269 69.46C74.9866 70.1493 73.1462 70.8386 71.3042 71.5279L73.1297 72.5652C72.137 69.8046 71.1459 67.0441 70.1532 64.2836C69.1571 61.5099 68.1594 58.7362 67.1634 55.9624C66.6027 54.4008 66.0421 52.8408 65.4797 51.2791C65.3478 50.9097 65.145 50.5948 64.797 50.3919C64.4787 50.2056 64.0104 50.1264 63.6526 50.2419C62.9352 50.4744 62.335 51.2857 62.6153 52.0674H62.617Z" fill="#343434"/>
<path d="M65.8325 57.043C67.4981 56.4938 69.1653 55.9463 70.8308 55.3972C71.1969 55.2768 71.5201 55.0542 71.718 54.7145C71.9044 54.3962 71.9835 53.9279 71.8681 53.57C71.6306 52.8362 70.8325 52.2739 70.0426 52.5328C68.377 53.0819 66.7098 53.6294 65.0443 54.1785C64.6782 54.2989 64.355 54.5215 64.1571 54.8613C63.9708 55.1795 63.8916 55.6479 64.007 56.0057C64.2445 56.7395 65.0426 57.3019 65.8325 57.043Z" fill="#343434"/>
<path d="M57.7073 35.6055C57.7139 35.4934 57.7271 35.3812 57.742 35.2708L57.6892 35.6649C57.7618 35.1438 57.9036 34.6359 58.1064 34.1494L57.9564 34.5039C58.1378 34.0818 58.3653 33.686 58.6424 33.3183L58.4098 33.6184C58.6869 33.2606 59.0052 32.9406 59.3614 32.6603L59.0612 32.8928C59.4356 32.6059 59.8412 32.3717 60.2749 32.187L59.9204 32.3371C60.3673 32.154 60.8323 32.0287 61.3122 31.9611L60.9181 32.0139C61.1852 31.9776 61.454 31.9594 61.7245 31.9627C62.5012 31.971 63.2449 31.2751 63.2086 30.4786C63.1723 29.6821 62.5572 29.0027 61.7245 28.9944C60.3162 28.9812 58.8254 29.4034 57.6859 30.2378C56.9109 30.8051 56.2562 31.4697 55.7565 32.2975C55.4069 32.8747 55.1381 33.5228 54.9666 34.1774C54.8446 34.6425 54.772 35.1256 54.7407 35.6055C54.6896 36.3822 55.4597 37.1243 56.2248 37.0897C57.0725 37.0517 57.6546 36.4366 57.709 35.6055H57.7073Z" fill="#343434"/>
</svg>
