<svg width="92" height="123" viewBox="0 0 92 123" fill="none" xmlns="http://www.w3.org/2000/svg">
<path d="M16.3548 3.62305C12.7538 8.29591 9.14985 12.9688 5.54883 17.6416C6.76377 18.1557 9.04179 18.9296 11.974 18.8099C14.6259 18.6989 16.6615 17.9045 17.8151 17.3496C17.3274 12.7731 16.8426 8.19953 16.3548 3.62305Z" fill="#0C4050"/>
<path d="M8.3753e-05 17.386C0.105223 30.7212 0.210363 44.0563 0.315503 57.3944C0.420642 70.7296 0.525782 84.0648 0.630921 97.4029C0.689332 104.888 0.747743 112.377 0.809075 119.862C0.820757 121.272 2.00358 122.505 3.43756 122.49C14.5999 122.385 25.7592 122.28 36.9216 122.175C48.1218 122.07 59.3221 121.965 70.5224 121.86C76.8044 121.801 83.0894 121.743 89.3715 121.681C90.7909 121.667 92 120.487 92 119.053V2.86213C92 1.4369 90.7967 0.239481 89.3715 0.23364C77.0848 0.195673 64.801 0.154787 52.5143 0.11682C40.2685 0.0788528 28.0197 0.037967 15.7739 0C14.8715 0 14.0012 0.0876132 13.3294 0.768099C13.0315 1.06891 12.7716 1.4223 12.4971 1.74648C11.9422 2.39776 11.3873 3.04904 10.8324 3.70324C9.72256 5.0058 8.61276 6.31128 7.50295 7.61384C5.25998 10.2511 3.01408 12.8883 0.771106 15.5256C-0.119659 16.5711 -0.332858 18.23 0.771106 19.2434C1.74949 20.143 3.53686 20.362 4.48895 19.2434C8.67409 14.3252 12.8592 9.40414 17.0444 4.48595L15.1869 5.25697C24.8597 5.28618 34.5325 5.3183 44.2054 5.34751C53.7993 5.37671 63.3962 5.40884 72.9902 5.43804C78.4516 5.45557 83.9101 5.47309 89.3715 5.49061L86.743 2.86213V119.053L89.3715 116.424C78.2092 116.53 67.0498 116.635 55.8875 116.74C44.6873 116.845 33.487 116.95 22.2867 117.055C16.0046 117.114 9.71964 117.172 3.43756 117.233L6.06605 119.862C5.96091 106.527 5.85577 93.1915 5.75063 79.8534C5.64549 66.5182 5.54035 53.183 5.43521 39.8449C5.3768 32.3596 5.31839 24.8713 5.25705 17.386C5.24537 16.0104 4.05671 14.6932 2.62857 14.7575C1.20043 14.8217 -0.0115984 15.914 8.3753e-05 17.386Z" fill="#343434"/>
<path d="M15.3287 3.26498C15.7318 8.51027 16.1348 13.7556 16.5378 18.9979L19.1663 16.3694H4.64246C3.26689 16.3694 1.94973 17.5785 2.01398 18.9979C2.07823 20.4173 3.16759 21.6264 4.64246 21.6264H19.1663C20.5068 21.6264 21.9029 20.4202 21.7948 18.9979C21.3918 13.7526 20.9887 8.50735 20.5857 3.26498C20.5302 2.56113 20.3287 1.91861 19.8147 1.40752C19.3591 0.951911 18.6114 0.607287 17.9572 0.636493C17.303 0.665698 16.5729 0.89058 16.0997 1.40752C15.6266 1.92445 15.2762 2.57573 15.3287 3.26498Z" fill="#343434"/>
<path d="M14.38 46.1799C16.4033 48.1078 18.4266 50.0328 20.4499 51.9607C21.4673 52.929 23.1149 52.9753 24.1294 51.9607C27.3089 48.7812 30.4884 45.6018 33.6678 42.4223C34.6304 41.4598 34.7026 39.6937 33.6678 38.7428C32.6331 37.7918 31.0173 37.7138 29.9883 38.7428L20.4499 48.2812H24.1294C22.1061 46.3533 20.0828 44.4283 18.0595 42.5003C17.0739 41.5609 15.3454 41.4482 14.38 42.5003C13.4146 43.5525 13.3278 45.1769 14.38 46.1799Z" fill="#343434"/>
<path d="M14.38 69.8801C16.4033 71.8081 18.4266 73.7331 20.4499 75.661C21.4673 76.6293 23.1149 76.6755 24.1294 75.661C27.3089 72.4815 30.4884 69.302 33.6678 66.1226C34.6304 65.1601 34.7026 63.394 33.6678 62.443C32.6302 61.4892 31.0173 61.4141 29.9883 62.443L20.4499 71.9815H24.1294C22.1061 70.0536 20.0828 68.1285 18.0595 66.2006C17.0739 65.2612 15.3454 65.1485 14.38 66.2006C13.4146 67.2527 13.3278 68.8772 14.38 69.8801Z" fill="#343434"/>
<path d="M14.0909 93.5813C16.1142 95.5092 18.1375 97.4343 20.1608 99.3622C21.1783 100.33 22.8258 100.377 23.8403 99.3622C27.0198 96.1827 30.1993 93.0032 33.3788 89.8237C34.3413 88.8612 34.4136 87.0952 33.3788 86.1442C32.3411 85.1904 30.7283 85.1152 29.6993 86.1442L20.1608 95.6827H23.8403C21.817 93.7547 19.7937 91.8297 17.7704 89.9018C16.7848 88.9624 15.0563 88.8497 14.0909 89.9018C13.1255 90.9539 13.0388 92.5783 14.0909 93.5813Z" fill="#343434"/>
<path d="M40.9318 47.8083H75.617C76.9784 47.8083 78.282 46.6116 78.2184 45.2069C78.1548 43.7963 77.0766 42.6055 75.617 42.6055H40.9318C39.5704 42.6055 38.2668 43.8021 38.3304 45.2069C38.3939 46.6116 39.4721 47.8083 40.9318 47.8083Z" fill="#343434"/>
<path d="M41.2208 71.8004H75.906C77.2674 71.8004 78.571 70.6038 78.5074 69.199C78.4438 67.7943 77.3657 66.5977 75.906 66.5977H41.2208C39.8594 66.5977 38.5558 67.7943 38.6194 69.199C38.683 70.6038 39.7611 71.8004 41.2208 71.8004Z" fill="#343434"/>
<path d="M41.8218 95H75.1782C77.1766 95 79.0901 93.85 78.9967 92.5C78.9034 91.15 77.3208 90 75.1782 90H41.8218C39.8234 90 37.9099 91.15 38.0033 92.5C38.0966 93.85 39.6792 95 41.8218 95Z" fill="#343434"/>
</svg>
