<svg width="80" height="49" viewBox="0 0 80 49" fill="none" xmlns="http://www.w3.org/2000/svg">
<path d="M39.2832 37.4863V47.4998" stroke="#0C4050" stroke-width="2" stroke-linecap="round"/>
<path d="M49.2969 36.9727L53.405 45.7024" stroke="#0C4050" stroke-width="2" stroke-linecap="round"/>
<path d="M29.2695 36.9727L25.1614 45.7024" stroke="#0C4050" stroke-width="2" stroke-linecap="round"/>
<path d="M19.5137 32.8652L12.3245 40.0544" stroke="#0C4050" stroke-width="2" stroke-linecap="round"/>
<path d="M59.0547 32.8652L66.2439 40.0544" stroke="#0C4050" stroke-width="2" stroke-linecap="round"/>
<path d="M78.0811 12.8378C78.0811 14.1611 77.255 15.5908 75.3649 17.0417C73.4892 18.4815 70.7122 19.8212 67.1911 20.9644C60.16 23.2473 50.384 24.6757 39.5405 24.6757C28.6971 24.6757 18.921 23.2473 11.89 20.9644C8.36889 19.8212 5.59189 18.4815 3.7162 17.0417C1.82611 15.5908 1 14.1611 1 12.8378C1 11.5145 1.82611 10.0849 3.7162 8.63401C5.59189 7.1942 8.36889 5.85445 11.89 4.71124C18.921 2.42842 28.6971 1 39.5405 1C50.384 1 60.16 2.42842 67.1911 4.71124C70.7122 5.85445 73.4892 7.1942 75.3649 8.63401C77.255 10.0849 78.0811 11.5145 78.0811 12.8378Z" fill="white" stroke="black" stroke-width="2"/>
<path d="M70.8922 21.0273C70.8922 22.4332 70.1782 23.876 68.6656 25.2951C67.1513 26.7159 64.9058 28.0414 62.0478 29.1755C56.3376 31.4415 48.3806 32.8651 39.5408 32.8651C30.701 32.8651 22.744 31.4415 17.0338 29.1755C14.1758 28.0414 11.9304 26.7159 10.416 25.2951C8.90341 23.876 8.18945 22.4332 8.18945 21.0273C8.18945 19.6214 8.90341 18.1786 10.416 16.7595C11.9304 15.3387 14.1758 14.0132 17.0338 12.8791C22.744 10.6131 30.701 9.18945 39.5408 9.18945C48.3806 9.18945 56.3376 10.6131 62.0478 12.8791C64.9058 14.0132 67.1513 15.3387 68.6656 16.7595C70.1782 18.1786 70.8922 19.6214 70.8922 21.0273Z" fill="white" stroke="black" stroke-width="2"/>
</svg>
