<svg width="37" height="66" viewBox="0 0 37 66" fill="none" xmlns="http://www.w3.org/2000/svg">
<rect x="1" y="1" width="34.6533" height="64" rx="3.06667" fill="white" stroke="#343434" stroke-width="2"/>
<rect x="5.89258" y="5.89258" width="24.8667" height="54.2133" rx="1.06667" fill="white" stroke="#343434" stroke-width="2"/>
<path d="M5.7207 33L30.934 33" stroke="#343434" stroke-width="2" stroke-linecap="round"/>
<path d="M12.8311 21.2734C13.3834 21.2734 13.8311 20.8257 13.8311 20.2734C13.8311 19.7212 13.3834 19.2734 12.8311 19.2734L12.8311 21.2734ZM6.69922 21.2734L12.8311 21.2734L12.8311 19.2734L6.69922 19.2734L6.69922 21.2734Z" fill="#0C4050"/>
<path d="M12.8311 49.207C13.3834 49.207 13.8311 48.7593 13.8311 48.207C13.8311 47.6547 13.3834 47.207 12.8311 47.207L12.8311 49.207ZM6.69922 49.207L12.8311 49.207L12.8311 47.207L6.69922 47.207L6.69922 49.207Z" fill="#0C4050"/>
</svg>
