<svg width="58" height="60" viewBox="0 0 58 60" fill="none" xmlns="http://www.w3.org/2000/svg">
<path d="M25.3129 43.2205V0.876953H19.625V43.2205C19.625 54.8492 29.9476 58.5991 35.8462 58.5991H57.1233V52.2791H35.8462C28.0937 52.2791 25.3129 46.3805 25.3129 43.2205Z" fill="white"/>
<path fill-rule="evenodd" clip-rule="evenodd" d="M18.75 0H26.1905V43.2199C26.1905 44.5826 26.8052 46.6405 28.3282 48.3515C29.8242 50.0322 32.2184 51.4022 35.8475 51.4022H58.0009V59.4747H35.8475C32.7445 59.4747 28.5026 58.4958 25.0126 55.9808C21.4843 53.4382 18.75 49.3377 18.75 43.2199V0ZM20.5026 1.75256V43.2199C20.5026 48.7307 22.9295 52.3194 26.0372 54.559C29.1832 56.826 33.0518 57.7221 35.8475 57.7221H56.2483V53.1547H35.8475C31.7241 53.1547 28.8516 51.5754 27.0191 49.5168C25.2137 47.4885 24.4379 45.0171 24.4379 43.2199V1.75256H20.5026Z" fill="#343434"/>
<path d="M14.148 43.2205V0.876953H19.8359V43.2205C19.8359 54.8492 9.51337 58.5991 3.61477 58.5991H0.876125V52.2791H3.61477C11.3672 52.2791 14.148 46.3805 14.148 43.2205Z" fill="white"/>
<path fill-rule="evenodd" clip-rule="evenodd" d="M20.7129 0H13.2724V43.2199C13.2724 44.5826 12.6577 46.6405 11.1347 48.3515C9.63866 50.0322 7.24452 51.4022 3.61544 51.4022H0.000522614V59.4747H3.61544C6.71835 59.4747 10.9603 58.4958 14.4503 55.9808C17.9785 53.4382 20.7129 49.3377 20.7129 43.2199V0ZM18.9603 1.75256V43.2199C18.9603 48.7307 16.5334 52.3194 13.4257 54.559C10.2797 56.826 6.41114 57.7221 3.61544 57.7221H1.75308V53.1547H3.61544C7.73882 53.1547 10.6113 51.5754 12.4438 49.5168C14.2492 47.4885 15.0249 45.0171 15.0249 43.2199V1.75256H18.9603Z" fill="#343434"/>
<path d="M10.9883 5.93359H28.6841V15.2028H10.9883V5.93359Z" fill="white"/>
<path fill-rule="evenodd" clip-rule="evenodd" d="M26.9316 7.68615H12.7408V13.4503H26.9316V7.68615ZM10.9883 5.93359V15.2028H28.6841V5.93359H10.9883Z" fill="#343434"/>
<path d="M10.9883 35.8457H28.6841V45.1149H10.9883V35.8457Z" fill="white"/>
<path fill-rule="evenodd" clip-rule="evenodd" d="M26.9316 37.5983H12.7408V43.3624H26.9316V37.5983ZM10.9883 35.8457V45.1149H28.6841V35.8457H10.9883Z" fill="#343434"/>
</svg>
