<svg width="69" height="69" viewBox="0 0 69 69" fill="none" xmlns="http://www.w3.org/2000/svg">
<path d="M46.679 7.63086C53.31 14.7711 52.9565 25.9922 45.8867 32.6893" stroke="#932023" stroke-width="3" stroke-miterlimit="10" stroke-linecap="round"/>
<path d="M53.251 4.57422C61.5032 13.4625 61.0644 27.4228 52.2637 35.7572" stroke="#932023" stroke-width="3" stroke-miterlimit="10" stroke-linecap="round"/>
<path d="M60.0956 2C70.1275 12.4579 69.8776 28.6157 59.541 38.0888" stroke="#932023" stroke-width="3" stroke-miterlimit="10" stroke-linecap="round"/>
<path d="M22.778 7.76758C16.147 14.9078 16.5005 26.129 23.5703 32.826" stroke="#932023" stroke-width="3" stroke-miterlimit="10" stroke-linecap="round"/>
<path d="M16.2053 4.70703C7.95312 13.5953 8.39194 27.5557 17.1927 35.89" stroke="#932023" stroke-width="3" stroke-miterlimit="10" stroke-linecap="round"/>
<path d="M9.36311 2.13672C-0.668732 12.5946 -0.418851 28.7524 9.92382 38.2255" stroke="#932023" stroke-width="3" stroke-miterlimit="10" stroke-linecap="round"/>
<path d="M34.9232 29.0907C39.8039 29.0907 43.7605 25.0948 43.7605 20.1655C43.7605 15.2362 39.8039 11.2402 34.9232 11.2402C30.0425 11.2402 26.0859 15.2362 26.0859 20.1655C26.0859 25.0948 30.0425 29.0907 34.9232 29.0907Z" fill="#343434"/>
<path d="M34.3446 22.7973L24.3371 68.236C24.2518 68.6238 24.5444 68.9993 24.9405 68.9993H45.7721C46.1744 68.9993 46.4669 68.6238 46.3755 68.2299L35.5514 22.7911C35.399 22.1448 34.4848 22.1571 34.3446 22.8034V22.7973Z" fill="#343434"/>
</svg>
