<svg width="78" height="71" viewBox="0 0 78 71" fill="none" xmlns="http://www.w3.org/2000/svg">
<path d="M36.2192 44.3007L41.5918 39.5645L34.6167 31.6521L29.2441 36.3883L36.2192 44.3007Z" fill="white" stroke="#343434" stroke-width="1.18487" stroke-linecap="round"/>
<path d="M33.8253 35.4845C34.3196 37.1225 36.11 39.0645 37.6075 39.7573C37.9268 39.905 38.0682 40.4135 37.8043 40.6462L8.04215 66.8828C6.66946 66.7041 3.19616 62.961 3.21984 61.4125L32.982 35.1759C33.2459 34.9432 33.7236 35.1476 33.8253 35.4845Z" fill="#0C4050" stroke="#343434" stroke-width="1.18487" stroke-linecap="round"/>
<path d="M40.3207 40.7738L38.1524 39.9936L8.72645 66.2811L10.0153 67.7431C10.1595 67.9068 10.4091 67.9225 10.5727 67.7782L40.4481 41.4417C40.6735 41.2431 40.6034 40.8755 40.3207 40.7738Z" fill="#0C4050" stroke="#343434" stroke-width="1.18487" stroke-linecap="round"/>
<path d="M33.171 32.6656L33.6731 34.9146L3.90268 60.8114L2.61383 59.3493C2.46958 59.1857 2.48529 58.9361 2.64892 58.7919L32.5243 32.4554C32.7497 32.2567 33.1055 32.3724 33.171 32.6656Z" fill="#0C4050" stroke="#343434" stroke-width="1.18487" stroke-linecap="round"/>
<path d="M51.6242 31.5874L57.6607 26.266C57.881 26.0718 57.8208 25.7128 57.5516 25.5956C55.9828 24.9126 53.4928 23.6638 52.7137 22.6416C51.9349 21.6198 50.9993 19.0923 50.4893 17.5366C50.3999 17.2641 50.0601 17.169 49.845 17.3587L43.788 22.6982C43.7687 22.7151 43.7479 22.7302 43.7257 22.7431L35.6512 27.4507C35.6291 27.4636 35.6082 27.4787 35.589 27.4956L33.4721 29.3618C33.3085 29.506 33.2927 29.7556 33.437 29.9192L43.1621 40.951C43.3063 41.1147 43.5559 41.1304 43.7195 40.9861L45.8364 39.12C45.8556 39.103 45.8732 39.0842 45.8888 39.0639L51.5719 31.6435C51.5874 31.6232 51.605 31.6044 51.6242 31.5874Z" fill="white" stroke="#343434" stroke-width="1.18487"/>
<path d="M71.0239 7.96785C71.4259 7.61351 71.4645 7.00042 71.1101 6.59847C70.7558 6.19652 70.1427 6.15792 69.7407 6.51226L53.5789 20.7597L54.8621 22.2152L71.0239 7.96785Z" fill="white" stroke="#343434" stroke-width="1.18487"/>
<path d="M69.6938 5.66902C70.0958 5.31468 70.1344 4.70159 69.78 4.29964C69.4257 3.89769 68.8126 3.85909 68.4107 4.21343L52.2488 18.4608L53.532 19.9164L69.6938 5.66902Z" fill="white" stroke="#343434" stroke-width="1.18487"/>
<path d="M72.9653 9.37996C73.3673 9.02562 73.4059 8.41253 73.0515 8.01058C72.6972 7.60862 72.0841 7.57003 71.6822 7.92436L55.5203 22.1718L56.8035 23.6274L72.9653 9.37996Z" fill="white" stroke="#343434" stroke-width="1.18487"/>
<path d="M47.9804 30.461L52.5651 26.4194C52.7287 26.2751 52.7444 26.0256 52.6001 25.8619L49.5058 22.3518C49.3615 22.1881 49.1119 22.1724 48.9483 22.3167L44.3636 26.3583C44.2 26.5025 44.1843 26.7521 44.3285 26.9157L47.4229 30.4259C47.5671 30.5895 47.8167 30.6052 47.9804 30.461Z" stroke="#343434" stroke-width="1.18487"/>
<path d="M50.9154 16.8595C50.7792 16.9796 50.6684 17.186 50.6405 17.5347C50.6123 17.8872 50.6744 18.3449 50.8479 18.8863C51.1943 19.9674 51.9496 21.2722 53.0501 22.5205C54.1505 23.7688 55.3503 24.6818 56.3794 25.1611C56.8948 25.4011 57.341 25.5201 57.6944 25.5364C58.0437 25.5524 58.2625 25.4684 58.3987 25.3483C58.5349 25.2283 58.6457 25.0218 58.6735 24.6732C58.7017 24.3206 58.6397 23.8629 58.4661 23.3215C58.1197 22.2404 57.3644 20.9356 56.264 19.6873C55.1635 18.439 53.9638 17.526 52.9347 17.0468C52.4193 16.8067 51.973 16.6877 51.6197 16.6715C51.2703 16.6554 51.0516 16.7394 50.9154 16.8595Z" fill="white" stroke="#343434" stroke-width="1.18487"/>
</svg>
